<?xml version="1.0" encoding="utf-8"?>
<!-- Generator: Adobe Illustrator 16.0.4, SVG Export Plug-In . SVG Version: 6.00 Build 0)  -->
<!DOCTYPE svg PUBLIC "-//W3C//DTD SVG 1.1//EN" "http://www.w3.org/Graphics/SVG/1.1/DTD/svg11.dtd">
<svg version="1.1" id="Layer_1" xmlns="http://www.w3.org/2000/svg" xmlns:xlink="http://www.w3.org/1999/xlink" x="0px" y="0px"
	 width="1098px" height="1555px" viewBox="0 0 1098 1555" enable-background="new 0 0 1098 1555" xml:space="preserve">
<g>
	<g>
		<circle fill="#D1A12C" stroke="#000000" stroke-width="0.4325" stroke-miterlimit="10" cx="438.642" cy="535.462" r="22.451"/>
		<polygon fill="#D1A12C" stroke="#000000" stroke-width="0.4325" stroke-miterlimit="10" points="261.208,540.531 283.479,540.531 
			305.748,540.531 328.018,540.531 350.287,540.531 372.557,540.531 394.826,540.531 417.096,540.531 439.366,540.531 
			437.935,542.461 433.623,547.547 426.4,554.738 416.236,562.982 403.102,571.226 386.968,578.417 367.803,583.503 345.58,585.433 
			323.761,583.503 305.663,578.417 291.037,571.226 279.631,562.982 271.195,554.738 265.48,547.547 262.235,542.461 
			261.208,540.531 		"/>
		
			<rect x="246" y="581.088" fill="#D1A12C" stroke="#000000" stroke-width="0.4325" stroke-miterlimit="10" width="203.505" height="8.69"/>
		<circle cx="347.752" cy="585.433" r="2.897"/>
	</g>
	<g>
		<g>
			
				<rect x="323.163" y="248.522" fill="#FFFFFF" stroke="#000000" stroke-width="0.4507" stroke-miterlimit="10" width="52.467" height="292.009"/>
			<circle cx="347.752" cy="539.083" r="2.897"/>
		</g>
		<g>
			<g>
				<rect x="348.31" y="195.804" width="1.978" height="52.506"/>
				<circle cx="349.298" cy="248.522" r="2.897"/>
			</g>
			<g>
				<ellipse fill="#FF3000" cx="349.396" cy="146.92" rx="34.583" ry="56.127"/>
				<ellipse fill="#FF8B00" cx="349.396" cy="153.196" rx="30.675" ry="48.161"/>
				<ellipse fill="#FFC200" cx="349.396" cy="161.404" rx="26.234" ry="38.987"/>
				<ellipse fill="#FFE600" cx="349.396" cy="170.538" rx="20.922" ry="28.43"/>
				<ellipse fill="#00B1FF" cx="349.396" cy="175.607" rx="16.289" ry="22.133"/>
				<ellipse fill="#004FFF" cx="349.396" cy="180.315" rx="12.021" ry="16.334"/>
				<circle cx="349.298" cy="196.167" r="2.897"/>
			</g>
		</g>
	</g>
</g>
</svg>
