<?xml version="1.0" encoding="utf-8"?>
<!-- Generator: Adobe Illustrator 16.0.4, SVG Export Plug-In . SVG Version: 6.00 Build 0)  -->
<!DOCTYPE svg PUBLIC "-//W3C//DTD SVG 1.1//EN" "http://www.w3.org/Graphics/SVG/1.1/DTD/svg11.dtd">
<svg version="1.1" id="Layer_1" xmlns="http://www.w3.org/2000/svg" xmlns:xlink="http://www.w3.org/1999/xlink" x="0px" y="0px"
	 width="612px" height="792px" viewBox="0 0 612 792" enable-background="new 0 0 612 792" xml:space="preserve">
<g>
	<g>
		
			<ellipse fill="#E2DF76" stroke="#000000" stroke-width="0.6156" stroke-miterlimit="10" cx="306.984" cy="494.702" rx="55.241" ry="97.758"/>
		<circle cx="304.877" cy="499.012" r="4.31"/>
	</g>
	<g>
		<polygon fill="#8AC978" stroke="#000000" stroke-width="0.6156" stroke-miterlimit="10" points="281.325,556.604 285.118,558.175 
			288.515,560.279 291.513,562.919 294.111,566.097 296.307,569.815 298.1,574.078 299.488,578.888 300.47,584.248 301.044,590.16 
			301.208,596.627 300.961,603.653 300.301,611.24 299.227,619.391 297.737,628.109 295.829,637.397 293.502,647.257 
			291.265,657.334 289.585,667.238 288.405,676.925 287.663,686.348 287.299,695.461 287.254,704.22 287.468,712.578 
			287.88,720.491 288.431,727.912 289.061,734.796 289.709,741.097 290.317,746.77 290.823,751.769 291.168,756.048 
			291.292,759.562 291.136,762.266 289.721,764.468 286.305,766.495 281.178,768.331 274.628,769.962 266.947,771.37 
			258.425,772.541 249.351,773.458 240.014,774.105 230.706,774.467 221.714,774.528 213.331,774.271 205.845,773.682 
			199.546,772.744 194.724,771.441 191.669,769.758 190.671,767.678 191.504,765.478 193.625,763.419 196.849,761.475 
			200.988,759.613 205.856,757.802 211.268,756.013 217.036,754.212 222.975,752.372 228.898,750.46 234.619,748.447 239.951,746.3 
			244.708,743.99 248.705,741.485 251.753,738.755 253.669,735.771 254.264,732.499 253.639,727.246 252.18,718.697 
			250.133,707.396 247.742,693.884 245.252,678.703 242.907,662.396 240.954,645.503 239.634,628.569 239.195,612.133 
			239.881,596.739 241.937,582.928 245.607,571.244 251.135,562.227 258.769,556.42 268.75,554.365 281.325,556.604 		"/>
		<circle cx="272.96" cy="576.426" r="4.309"/>
	</g>
	<g>
		<polygon fill="#8AC978" stroke="#000000" stroke-width="0.6156" stroke-miterlimit="10" points="332.995,556.604 329.201,558.175 
			325.805,560.279 322.807,562.919 320.209,566.097 318.013,569.815 316.22,574.078 314.832,578.888 313.85,584.248 313.276,590.16 
			313.111,596.627 313.358,603.653 314.019,611.24 315.093,619.391 316.583,628.109 318.491,637.397 320.818,647.257 
			323.056,657.334 324.734,667.238 325.915,676.925 326.657,686.348 327.021,695.461 327.066,704.22 326.852,712.578 
			326.439,720.491 325.888,727.912 325.259,734.796 324.61,741.097 324.003,746.77 323.496,751.769 323.151,756.048 
			323.027,759.562 323.184,762.266 324.599,764.468 328.015,766.495 333.143,768.331 339.691,769.962 347.372,771.37 
			355.895,772.541 364.969,773.458 374.305,774.105 383.614,774.467 392.605,774.528 400.989,774.271 408.475,773.682 
			414.774,772.744 419.595,771.441 422.651,769.758 423.649,767.678 422.815,765.478 420.694,763.419 417.471,761.475 
			413.332,759.613 408.463,757.802 403.051,756.013 397.283,754.212 391.345,752.372 385.422,750.46 379.701,748.447 374.368,746.3 
			369.611,743.99 365.615,741.485 362.566,738.755 360.651,735.771 360.056,732.499 360.681,727.246 362.139,718.697 
			364.187,707.396 366.578,693.884 369.068,678.703 371.413,662.396 373.367,645.503 374.685,628.569 375.124,612.133 
			374.438,596.739 372.383,582.928 368.713,571.244 363.184,562.227 355.551,556.42 345.569,554.365 332.995,556.604 		"/>
		<circle cx="339.333" cy="576.426" r="4.309"/>
	</g>
	<g>
		<g>
			
				<rect x="86.74" y="396.944" fill="#7098CF" stroke="#000000" stroke-width="0.6156" stroke-miterlimit="10" width="189.426" height="47.356"/>
			<circle cx="260.032" cy="420.273" r="4.309"/>
		</g>
		<g>
			<g>
				
					<rect x="-16.091" y="392.885" fill="#D9B8D8" stroke="#000000" stroke-width="0.6156" stroke-miterlimit="10" width="135.304" height="55.475"/>
				<circle cx="104.891" cy="420.623" r="4.309"/>
			</g>
			<g>
				<g>
					<polygon fill="#FFC943" stroke="#000000" stroke-width="0.6156" stroke-miterlimit="10" points="11.809,416.857 
						11.724,414.127 11.774,411.584 11.898,409.212 12.04,406.997 12.137,404.923 12.133,402.976 11.967,401.138 11.581,399.396 
						10.916,397.735 9.912,396.138 8.511,394.591 6.653,393.078 4.279,391.584 1.331,390.093 -2.251,388.592 -6.526,387.063 
						-11.401,385.802 -16.669,385.098 -22.219,384.924 -27.94,385.259 -33.72,386.076 -39.448,387.353 -45.012,389.065 
						-50.3,391.188 -55.202,393.699 -59.605,396.571 -63.4,399.782 -66.472,403.307 -68.712,407.122 -70.009,411.203 
						-70.249,415.525 -69.323,420.065 -67.348,424.714 -64.589,429.342 -61.156,433.898 -57.154,438.329 -52.694,442.583 
						-47.882,446.606 -42.828,450.349 -37.638,453.756 -32.421,456.777 -27.286,459.358 -22.34,461.449 -17.692,462.995 
						-13.449,463.945 -9.719,464.247 -6.612,463.847 -4.234,462.694 -2.307,460.986 -0.48,458.975 1.24,456.694 2.849,454.173 
						4.343,451.446 5.716,448.544 6.965,445.498 8.084,442.34 9.069,439.102 9.915,435.816 10.617,432.513 11.17,429.225 
						11.572,425.984 11.814,422.821 11.895,419.768 11.809,416.857 					"/>
					<circle cx="1.465" cy="422.76" r="4.31"/>
				</g>
				<g>
					
						<rect x="-36.85" y="334.698" transform="matrix(-0.9128 0.4084 -0.4084 -0.9128 93.7998 711.609)" fill="#B7A071" stroke="#000000" stroke-width="0.6156" stroke-miterlimit="10" width="15.56" height="62.24"/>
					<circle cx="-20.4" cy="384.917" r="4.309"/>
				</g>
				<g>
					
						<rect x="-78.076" y="358.372" transform="matrix(-0.5519 0.8339 -0.8339 -0.5519 215.7072 663.075)" fill="#B7A071" stroke="#000000" stroke-width="0.6156" stroke-miterlimit="10" width="15.56" height="62.239"/>
					<circle cx="-53.191" cy="402.357" r="4.31"/>
				</g>
				<g>
					
						<rect x="-86.903" y="394.57" transform="matrix(0.3157 0.9489 -0.9489 0.3157 349.7788 366.3829)" fill="#B7A071" stroke="#000000" stroke-width="0.6156" stroke-miterlimit="10" width="15.561" height="62.243"/>
					<circle cx="-61.056" cy="420.623" r="4.309"/>
				</g>
				<g>
					
						<rect x="-68.825" y="417.921" transform="matrix(0.6555 0.7552 -0.7552 0.6555 318.0915 200.8079)" fill="#B7A071" stroke="#000000" stroke-width="0.6156" stroke-miterlimit="10" width="15.56" height="62.24"/>
					<circle cx="-44.572" cy="433.551" r="4.309"/>
				</g>
			</g>
			<g>
				<polygon fill="#BC8FBB" stroke="#000000" stroke-width="0.6156" stroke-miterlimit="10" points="33.333,441.333 41.905,494 
					53.333,441.333 				"/>
				<circle fill="#FFFFFF" stroke="#000000" stroke-width="0.7512" stroke-miterlimit="10" cx="43" cy="441.25" r="3.333"/>
			</g>
			<g>
				<polygon fill="#BC8FBB" stroke="#000000" stroke-width="0.6156" stroke-miterlimit="10" points="67.333,441.333 75.905,494 
					87.333,441.333 				"/>
				<circle fill="#FFFFFF" stroke="#000000" stroke-width="0.7512" stroke-miterlimit="10" cx="77.5" cy="441.25" r="3.333"/>
			</g>
		</g>
		<g>
			<polygon fill="#4E7AAE" stroke="#000000" stroke-width="0.6156" stroke-miterlimit="10" points="132,438.333 144,505 
				160,438.333 			"/>
			<circle fill="#FFFFFF" stroke="#000000" stroke-width="0.7512" stroke-miterlimit="10" cx="146" cy="438.25" r="3.333"/>
		</g>
		<g>
			<polygon fill="#4E7AAE" stroke="#000000" stroke-width="0.6156" stroke-miterlimit="10" points="174.667,438.333 
				186.667,528.333 202.667,438.333 			"/>
			<circle fill="#FFFFFF" stroke="#000000" stroke-width="0.7512" stroke-miterlimit="10" cx="189" cy="438.25" r="3.333"/>
		</g>
		<g>
			<polygon fill="#4E7AAE" stroke="#000000" stroke-width="0.6156" stroke-miterlimit="10" points="218,438.333 230,489.667 
				246,438.333 			"/>
			<circle fill="#FFFFFF" stroke="#000000" stroke-width="0.7512" stroke-miterlimit="10" cx="232.5" cy="438.25" r="3.333"/>
		</g>
	</g>
	<g>
		<g>
			
				<rect x="335.023" y="402.357" fill="#7098CF" stroke="#000000" stroke-width="0.6156" stroke-miterlimit="10" width="180.632" height="46.68"/>
			<circle cx="353.608" cy="424.583" r="4.31"/>
		</g>
		<g>
			<g>
				
					<rect x="489.271" y="397.959" fill="#D9B8D8" stroke="#000000" stroke-width="0.6156" stroke-miterlimit="10" width="135.304" height="55.475"/>
				<circle cx="504.439" cy="424.932" r="4.31"/>
			</g>
			<g>
				<g>
					<polygon fill="#FFC943" stroke="#000000" stroke-width="0.6156" stroke-miterlimit="10" points="595.23,416.857 
						595.315,414.127 595.265,411.584 595.14,409.212 594.999,406.997 594.902,404.923 594.906,402.976 595.072,401.138 
						595.458,399.396 596.124,397.735 597.127,396.138 598.528,394.591 600.386,393.078 602.76,391.584 605.708,390.093 
						609.29,388.592 613.565,387.063 618.44,385.802 623.708,385.098 629.259,384.924 634.979,385.259 640.76,386.076 
						646.487,387.353 652.05,389.065 657.339,391.188 662.241,393.699 666.645,396.571 670.438,399.782 673.511,403.307 
						675.751,407.122 677.047,411.203 677.288,415.525 676.362,420.065 674.388,424.714 671.629,429.342 668.195,433.898 
						664.194,438.329 659.733,442.583 654.921,446.606 649.867,450.349 644.678,453.756 639.461,456.777 634.325,459.358 
						629.379,461.449 624.731,462.995 620.488,463.945 616.759,464.247 613.651,463.847 611.273,462.694 609.346,460.986 
						607.52,458.975 605.799,456.694 604.19,454.173 602.696,451.446 601.323,448.544 600.075,445.498 598.955,442.34 
						597.971,439.102 597.125,435.816 596.422,432.513 595.869,429.225 595.468,425.984 595.225,422.821 595.144,419.768 
						595.23,416.857 					"/>
					<circle cx="608.481" cy="424.583" r="4.31"/>
				</g>
				<g>
					
						<rect x="628.346" y="334.747" transform="matrix(0.9128 0.4083 -0.4083 0.9128 204.8326 -227.8513)" fill="#B7A071" stroke="#000000" stroke-width="0.6156" stroke-miterlimit="10" width="15.56" height="62.237"/>
					<circle cx="628.885" cy="384.917" r="4.309"/>
				</g>
				<g>
					
						<rect x="669.541" y="358.38" transform="matrix(0.5519 0.8339 -0.8339 0.5519 628.3004 -390.2893)" fill="#B7A071" stroke="#000000" stroke-width="0.6156" stroke-miterlimit="10" width="15.56" height="62.24"/>
					<circle cx="655.921" cy="402.357" r="4.31"/>
				</g>
				<g>
					
						<rect x="678.42" y="394.556" transform="matrix(-0.3157 0.9489 -0.9489 -0.3157 1306.7473 -91.0365)" fill="#B7A071" stroke="#000000" stroke-width="0.6156" stroke-miterlimit="10" width="15.56" height="62.243"/>
					<circle cx="664.54" cy="418.363" r="4.31"/>
				</g>
				<g>
					
						<rect x="660.299" y="417.889" transform="matrix(-0.6555 0.7552 -0.7552 -0.6555 1445.1001 238.8232)" fill="#B7A071" stroke="#000000" stroke-width="0.6156" stroke-miterlimit="10" width="15.561" height="62.241"/>
					<circle cx="650.381" cy="434.37" r="4.309"/>
				</g>
			</g>
			<g>
				<polygon fill="#BC8FBB" stroke="#000000" stroke-width="0.6156" stroke-miterlimit="10" points="579.333,446.333 570.762,499 
					559.333,446.333 				"/>
				<circle fill="#FFFFFF" stroke="#000000" stroke-width="0.7512" stroke-miterlimit="10" cx="569.666" cy="446.25" r="3.333"/>
			</g>
			<g>
				<polygon fill="#BC8FBB" stroke="#000000" stroke-width="0.6156" stroke-miterlimit="10" points="545.333,446.333 536.762,499 
					525.333,446.333 				"/>
				<circle fill="#FFFFFF" stroke="#000000" stroke-width="0.7512" stroke-miterlimit="10" cx="535.166" cy="446.25" r="3.333"/>
			</g>
		</g>
		<g>
			<polygon fill="#4E7AAE" stroke="#000000" stroke-width="0.6156" stroke-miterlimit="10" points="479.667,443.333 467.667,510 
				451.667,443.333 			"/>
			<circle fill="#FFFFFF" stroke="#000000" stroke-width="0.7512" stroke-miterlimit="10" cx="465.667" cy="443.25" r="3.333"/>
		</g>
		<g>
			<polygon fill="#4E7AAE" stroke="#000000" stroke-width="0.6156" stroke-miterlimit="10" points="437,443.333 425,533.333 
				409,443.333 			"/>
			<circle fill="#FFFFFF" stroke="#000000" stroke-width="0.7512" stroke-miterlimit="10" cx="422.667" cy="443.25" r="3.333"/>
		</g>
		<g>
			<polygon fill="#4E7AAE" stroke="#000000" stroke-width="0.6156" stroke-miterlimit="10" points="393.667,443.333 
				381.667,494.667 365.667,443.333 			"/>
			<circle fill="#FFFFFF" stroke="#000000" stroke-width="0.7512" stroke-miterlimit="10" cx="379.167" cy="443.25" r="3.333"/>
		</g>
	</g>
	<g>
		<g>
			<polygon fill="#E18826" stroke="#000000" stroke-width="0.6156" stroke-miterlimit="10" points="331.071,420.102 
				282.378,420.102 288.534,357.667 324.915,357.667 			"/>
			<circle cx="306.724" cy="408.484" r="4.423"/>
		</g>
		<g>
			<g>
				<polygon fill="#E18826" stroke="#000000" stroke-width="0.6156" stroke-miterlimit="10" points="331.071,388.884 
					282.378,388.884 288.534,326.45 324.915,326.45 				"/>
				<circle cx="306.724" cy="377.268" r="4.423"/>
			</g>
			<g>
				<g>
					<polygon fill="#E18826" stroke="#000000" stroke-width="0.6156" stroke-miterlimit="10" points="331.071,359.343 
						282.378,359.343 288.534,296.909 324.915,296.909 					"/>
					<circle cx="306.724" cy="347.727" r="4.423"/>
				</g>
				<g>
					<g>
						<polygon fill="#E18826" stroke="#000000" stroke-width="0.6156" stroke-miterlimit="10" points="331.071,330.772 
							282.378,330.772 288.534,268.338 324.915,268.338 						"/>
						<circle cx="306.724" cy="319.156" r="4.423"/>
					</g>
					<g>
						<g>
							<polygon fill="#E18826" stroke="#000000" stroke-width="0.6156" stroke-miterlimit="10" points="331.071,299.556 
								282.378,299.556 288.534,237.122 324.915,237.122 							"/>
							<circle cx="306.724" cy="287.939" r="4.423"/>
						</g>
						<g>
							<g>
								<polygon fill="#E18826" stroke="#000000" stroke-width="0.6156" stroke-miterlimit="10" points="331.071,268.338 
									282.378,268.338 288.534,205.904 324.915,205.904 								"/>
								<circle cx="306.724" cy="256.722" r="4.423"/>
							</g>
							<g>
								<g>
									<polygon fill="#E18826" stroke="#000000" stroke-width="0.6156" stroke-miterlimit="10" points="331.071,237.122 
										282.378,237.122 288.534,174.688 324.915,174.688 									"/>
									<circle cx="306.724" cy="225.505" r="4.423"/>
								</g>
								<g>
									<g>
										<polygon fill="#E18826" stroke="#000000" stroke-width="0.6156" stroke-miterlimit="10" points="331.071,205.904 
											282.378,205.904 288.534,143.47 324.915,143.47 										"/>
										<circle cx="306.724" cy="194.288" r="4.423"/>
									</g>
									<g>
										
											<circle fill="#FFC942" stroke="#010101" stroke-width="0.6156" stroke-miterlimit="10" cx="304.877" cy="101.99" r="72.697"/>
										<circle fill="#010101" cx="283.228" cy="91.069" r="14.447"/>
										<circle fill="#FFFFFF" cx="278.302" cy="86.144" r="4.925"/>
										<circle fill="#010101" cx="332.479" cy="91.069" r="14.447"/>
										<circle fill="#FFFFFF" cx="327.553" cy="86.144" r="4.925"/>
										<polygon fill="#010101" points="350.126,115.034 349.424,116.104 347.313,118.922 343.79,122.907 338.852,127.474 
											332.496,132.042 324.717,136.026 315.512,138.845 304.877,139.914 294.242,138.845 285.037,136.026 277.258,132.042 
											270.901,127.474 265.964,122.907 262.441,118.922 260.33,116.104 259.627,115.034 260.254,116.426 262.181,120.092 
											265.477,125.275 270.208,131.218 276.446,137.159 284.257,142.343 293.711,146.01 304.877,147.4 316.042,146.01 
											325.496,142.343 333.308,137.159 339.545,131.218 344.278,125.275 347.573,120.092 349.5,116.426 350.126,115.034 
																					"/>
										<circle fill="#010101" cx="304.877" cy="164.33" r="4.925"/>
									</g>
								</g>
							</g>
						</g>
					</g>
				</g>
			</g>
		</g>
	</g>
</g>
</svg>
