<?xml version="1.0" encoding="utf-8"?>
<!-- Generator: Adobe Illustrator 16.0.4, SVG Export Plug-In . SVG Version: 6.00 Build 0)  -->
<!DOCTYPE svg PUBLIC "-//W3C//DTD SVG 1.1//EN" "http://www.w3.org/Graphics/SVG/1.1/DTD/svg11.dtd">
<svg version="1.1" id="Layer_1" xmlns="http://www.w3.org/2000/svg" xmlns:xlink="http://www.w3.org/1999/xlink" x="0px" y="0px"
	 width="612px" height="1024.449px" viewBox="0 0 612 1024.449" enable-background="new 0 0 612 1024.449" xml:space="preserve">
<g>
	<g>
		<polygon fill="#C03F27" stroke="#000000" stroke-width="8.21" stroke-miterlimit="10" points="154.962,231.567 158.133,197.422 
			164.728,163.252 175.3,130.468 190.401,100.48 210.582,74.7 236.394,54.538 268.39,41.407 307.12,36.716 345.043,40.049 
			374.87,50.04 397.539,66.676 413.988,89.944 425.15,119.832 431.964,156.325 435.366,199.413 436.291,249.082 433.008,441.059 
			429.724,527.127 148.394,521.653 		"/>
		<polygon fill="#BA692C" stroke="#000000" stroke-width="4.926" stroke-miterlimit="10" points="172.835,365.179 173.424,327.549 
			174.677,292.868 176.854,258.02 180.828,219.953 187.676,181.09 198.476,143.856 214.305,110.676 236.241,83.975 265.36,66.176 
			302.742,59.704 339.408,65.16 366.609,80.476 385.754,104.071 398.251,134.365 405.517,169.779 408.96,208.732 409.989,249.644 
			408.634,413.66 405.641,527.127 174.677,522.165 		"/>
		<polygon fill="#FFF6CE" stroke="#000000" stroke-width="4.926" stroke-miterlimit="10" points="291.39,243.881 263.921,246.849 
			241.582,254.257 223.945,265.321 210.584,279.262 201.071,295.296 194.981,312.643 191.885,330.521 191.359,348.148 
			193.779,365.187 199.633,381.476 208.663,396.494 220.607,409.723 235.208,420.643 252.203,428.734 271.334,433.478 
			292.342,434.353 313.546,431.31 333.123,424.783 350.603,414.986 365.514,402.129 377.385,386.424 385.744,368.083 
			390.12,347.317 390.041,324.339 385.999,302.462 378.996,284.636 369.329,270.523 357.291,259.788 343.184,252.093 
			327.299,247.101 309.937,244.476 291.39,243.881 		"/>
		<circle fill="#7FAFDE" stroke="#000000" stroke-width="4.926" stroke-miterlimit="10" cx="291.248" cy="341.58" r="10.4"/>
		<polygon fill="#D85341" stroke="#000000" stroke-width="7" stroke-miterlimit="10" points="148.394,521.653 429.724,527.127 
			431.503,527.623 435.334,529.453 438.96,533.13 440.122,539.167 437.778,544.864 433.691,547.789 429.809,548.866 428.081,549.02 
			148.394,546.83 145.991,546.573 140.662,545.188 135.231,541.75 132.521,535.336 134.77,528.58 140.252,524.39 145.837,522.252 
			148.394,521.653 		"/>
		<circle cx="291.248" cy="341.58" r="10.947"/>
	</g>
	<g>
		<polygon fill="#ED8823" stroke="#000000" stroke-width="4.926" stroke-miterlimit="10" points="220.094,698.442 225.492,698.899 
			230.21,701.206 234.228,705.328 237.524,711.237 240.079,718.898 241.871,728.281 242.879,739.351 243.083,752.08 
			242.521,764.453 241.261,774.606 239.32,782.733 236.72,789.025 233.477,793.675 229.613,796.875 225.146,798.819 
			220.094,799.698 214.998,799.216 210.414,796.982 206.394,793.032 202.99,787.412 200.253,780.164 198.235,771.327 
			196.986,760.948 196.559,749.064 197.031,737.271 198.389,727.11 200.542,718.545 203.4,711.543 206.875,706.067 210.875,702.083 
			215.311,699.552 220.094,698.442 		"/>
		<polyline fill="none" stroke="#000000" stroke-width="4.926" stroke-miterlimit="10" points="227.483,549.02 227.375,549.702 
			227.156,551.5 226.985,554.042 227.021,556.957 227.423,559.87 228.349,562.413 229.958,564.21 232.409,564.892 236.745,564.21 
			240.003,562.413 242.338,559.87 243.903,556.957 244.853,554.042 245.34,551.5 245.52,549.702 245.545,549.02 		"/>
		<polygon fill="none" stroke="#000000" stroke-width="4.926" stroke-miterlimit="10" points="233.23,578.028 235.395,578.602 
			237.002,580.158 238.108,582.444 238.772,585.211 239.051,588.21 239.003,591.19 238.686,593.9 238.156,596.09 237.452,597.924 
			236.566,599.675 235.49,601.263 234.215,602.607 232.733,603.624 231.037,604.229 229.117,604.345 226.966,603.889 
			224.979,602.985 223.51,601.818 222.482,600.39 221.825,598.707 221.466,596.773 221.331,594.595 221.348,592.177 
			221.443,589.522 221.764,586.907 222.484,584.609 223.569,582.638 224.983,581.004 226.691,579.716 228.659,578.785 
			230.85,578.219 233.23,578.028 		"/>
		<polygon fill="none" stroke="#000000" stroke-width="4.926" stroke-miterlimit="10" points="227.483,618.257 224.415,619.269 
			221.794,621.964 219.798,625.833 218.606,630.367 218.396,635.054 219.344,639.385 221.63,642.85 225.431,644.939 
			229.678,644.736 233.083,642.156 235.497,637.94 236.771,632.83 236.756,627.565 235.302,622.888 232.261,619.539 
			227.483,618.257 		"/>
		<polygon fill="none" stroke="#000000" stroke-width="4.926" stroke-miterlimit="10" points="225.431,659.717 221.668,660.548 
			219.001,663.001 217.404,666.543 216.854,670.64 217.323,674.758 218.789,678.362 221.227,680.915 224.61,681.884 
			228.046,680.948 230.626,678.479 232.302,674.98 233.025,670.955 232.748,666.911 231.421,663.354 228.999,660.789 
			225.431,659.717 		"/>
		
			<line fill="none" stroke="#000000" stroke-width="4.926" stroke-miterlimit="10" x1="226.252" y1="641.245" x2="225.021" y2="662.591"/>
		<polyline fill="none" stroke="#000000" stroke-width="4.926" stroke-miterlimit="10" points="227.894,600.195 227.807,600.469 
			227.58,601.234 227.266,602.403 226.919,603.889 226.591,605.607 226.335,607.468 226.205,609.388 226.252,611.279 
			226.44,613.222 226.952,617.339 227.894,623.593 		"/>
		<polyline fill="none" stroke="#000000" stroke-width="4.926" stroke-miterlimit="10" points="234.462,559.555 234.319,559.743 
			233.936,560.287 233.379,561.158 232.717,562.327 232.017,563.765 231.345,565.444 230.769,567.334 230.357,569.408 
			230.139,571.586 230.075,573.756 230.126,575.83 230.254,577.72 230.421,579.341 230.588,580.607 230.716,581.429 
			230.767,581.722 		"/>
		<polyline fill="none" stroke="#000000" stroke-width="4.926" stroke-miterlimit="10" points="223.789,679.011 223.462,679.973 
			223.118,681.045 222.711,682.398 222.286,683.942 221.884,685.591 221.549,687.261 221.326,688.863 220.505,697.894 		"/>
		
			<line fill="none" stroke="#000000" stroke-width="3.284" stroke-miterlimit="10" x1="199.022" y1="730.734" x2="226.662" y2="759.469"/>
		
			<line fill="none" stroke="#000000" stroke-width="3.284" stroke-miterlimit="10" x1="207.779" y1="740.312" x2="229.673" y2="719.24"/>
		
			<line fill="none" stroke="#000000" stroke-width="3.284" stroke-miterlimit="10" x1="209.969" y1="703.367" x2="220.369" y2="719.24"/>
		
			<line fill="none" stroke="#000000" stroke-width="3.284" stroke-miterlimit="10" x1="229.125" y1="730.459" x2="240.072" y2="741.954"/>
		
			<line fill="none" stroke="#000000" stroke-width="3.284" stroke-miterlimit="10" x1="238.156" y1="740.038" x2="226.389" y2="749.342"/>
		
			<line fill="none" stroke="#000000" stroke-width="3.284" stroke-miterlimit="10" x1="198.202" y1="744.963" x2="208.6" y2="757.006"/>
		
			<line fill="none" stroke="#000000" stroke-width="3.284" stroke-miterlimit="10" x1="201.211" y1="781.087" x2="217.084" y2="758.374"/>
		
			<line fill="none" stroke="#000000" stroke-width="3.284" stroke-miterlimit="10" x1="211.611" y1="765.763" x2="219.821" y2="774.519"/>
		
			<line fill="none" stroke="#000000" stroke-width="3.284" stroke-miterlimit="10" x1="224.199" y1="779.446" x2="240.894" y2="765.763"/>
		
			<line fill="none" stroke="#000000" stroke-width="3.284" stroke-miterlimit="10" x1="227.483" y1="782.73" x2="235.42" y2="791.213"/>
		<circle fill="#FFFFFF" stroke="#000000" stroke-width="1.642" stroke-miterlimit="10" cx="234.872" cy="546.83" r="10.947"/>
	</g>
	<g>
		<polygon fill="#ED8823" stroke="#000000" stroke-width="4.926" stroke-miterlimit="10" points="364.863,645.898 359.466,646.355 
			354.748,648.662 350.729,652.784 347.433,658.693 344.878,666.354 343.086,675.737 342.078,686.807 341.875,699.536 
			342.437,711.909 343.696,722.062 345.637,730.189 348.237,736.481 351.479,741.131 355.345,744.332 359.812,746.275 
			364.863,747.154 369.959,746.673 374.543,744.438 378.563,740.488 381.968,734.868 384.705,727.62 386.722,718.783 
			387.971,708.404 388.399,696.52 387.926,684.727 386.568,674.566 384.416,666.001 381.557,659 378.082,653.523 374.083,649.539 
			369.646,647.008 364.863,645.898 		"/>
		<polygon fill="none" stroke="#000000" stroke-width="4.926" stroke-miterlimit="10" points="357.474,565.713 360.543,566.725 
			363.163,569.42 365.158,573.29 366.351,577.823 366.562,582.51 365.613,586.841 363.327,590.306 359.526,592.395 355.28,592.192 
			351.874,589.612 349.46,585.396 348.187,580.286 348.202,575.021 349.655,570.344 352.695,566.995 357.474,565.713 		"/>
		<polygon fill="none" stroke="#000000" stroke-width="4.926" stroke-miterlimit="10" points="359.526,607.173 363.29,608.004 
			365.956,610.458 367.552,614 368.104,618.096 367.634,622.214 366.168,625.818 363.73,628.371 360.348,629.34 356.911,628.404 
			354.331,625.935 352.655,622.436 351.932,618.411 352.21,614.367 353.535,610.81 355.959,608.245 359.526,607.173 		"/>
		
			<line fill="none" stroke="#000000" stroke-width="4.926" stroke-miterlimit="10" x1="358.705" y1="588.701" x2="359.937" y2="610.047"/>
		<polyline fill="none" stroke="#000000" stroke-width="4.926" stroke-miterlimit="10" points="357.063,547.651 357.378,548.69 
			357.692,549.859 358.038,551.345 358.365,553.063 358.622,554.924 358.754,556.844 358.705,558.735 358.517,560.678 
			358.006,564.795 357.063,571.049 		"/>
		<polyline fill="none" stroke="#000000" stroke-width="4.926" stroke-miterlimit="10" points="361.168,626.467 361.495,627.429 
			362.246,629.854 362.673,631.398 363.073,633.047 363.407,634.717 363.632,636.319 364.452,645.35 		"/>
		
			<line fill="none" stroke="#000000" stroke-width="3.284" stroke-miterlimit="10" x1="385.935" y1="678.19" x2="358.295" y2="706.925"/>
		
			<line fill="none" stroke="#000000" stroke-width="3.284" stroke-miterlimit="10" x1="377.178" y1="687.768" x2="355.283" y2="666.696"/>
		
			<line fill="none" stroke="#000000" stroke-width="3.284" stroke-miterlimit="10" x1="374.987" y1="650.823" x2="364.589" y2="666.696"/>
		
			<line fill="none" stroke="#000000" stroke-width="3.284" stroke-miterlimit="10" x1="355.832" y1="677.916" x2="344.885" y2="689.41"/>
		
			<line fill="none" stroke="#000000" stroke-width="3.284" stroke-miterlimit="10" x1="346.801" y1="687.494" x2="358.567" y2="696.798"/>
		
			<line fill="none" stroke="#000000" stroke-width="3.284" stroke-miterlimit="10" x1="386.756" y1="692.419" x2="376.356" y2="704.462"/>
		
			<line fill="none" stroke="#000000" stroke-width="3.284" stroke-miterlimit="10" x1="383.746" y1="728.543" x2="367.873" y2="705.83"/>
		
			<line fill="none" stroke="#000000" stroke-width="3.284" stroke-miterlimit="10" x1="373.346" y1="713.218" x2="365.136" y2="721.975"/>
		
			<line fill="none" stroke="#000000" stroke-width="3.284" stroke-miterlimit="10" x1="360.758" y1="726.902" x2="344.063" y2="713.218"/>
		
			<line fill="none" stroke="#000000" stroke-width="3.284" stroke-miterlimit="10" x1="357.474" y1="730.185" x2="349.536" y2="738.669"/>
		
			<line fill="none" stroke="#000000" stroke-width="3.284" stroke-miterlimit="10" x1="366.505" y1="731.555" x2="374.715" y2="743.049"/>
		<circle fill="#FFFFFF" stroke="#000000" stroke-width="1.642" stroke-miterlimit="10" cx="357.476" cy="546.83" r="10.947"/>
	</g>
	<g>
		<polygon fill="#7FAFDE" stroke="#000000" stroke-width="3.284" stroke-miterlimit="10" points="309.847,328.373 315.672,323.86 
			321.626,318.963 327.02,314.085 331.172,309.631 333.393,306.004 334.227,302.706 334.719,299.119 334.941,295.469 
			334.967,291.979 334.862,288.873 334.701,286.376 334.553,284.715 334.487,284.11 327.791,286.621 323.678,288.284 
			319.308,290.177 315.092,292.192 311.439,294.22 308.763,296.152 306.532,299.071 304.059,303.704 301.508,309.4 299.046,315.513 
			295.062,326.399 293.437,331.181 300.005,335.56 		"/>
		<path d="M302.193,342.127c0-6.046-4.9-10.947-10.945-10.947c-6.049,0-10.949,4.901-10.949,10.947s4.9,10.947,10.949,10.947
			C297.293,353.074,302.193,348.173,302.193,342.127z"/>
	</g>
	<g>
		<polygon fill="#7FAFDE" stroke="#000000" stroke-width="3.284" stroke-miterlimit="10" points="302.81,343.642 311.499,343.154 
			323.472,342.153 330.047,341.413 355.081,338.022 357.838,337.599 360.151,337.099 362.172,336.445 364.043,335.56 
			366.095,334.207 368.438,332.327 370.913,330.114 373.349,327.76 375.577,325.458 377.436,323.398 378.756,321.776 
			379.368,320.782 378.714,319.912 376.598,318.644 373.403,317.145 369.517,315.582 365.321,314.122 361.204,312.93 
			357.548,312.176 354.738,312.024 350.657,313.216 343.646,316.019 325.113,324.271 300.005,336.106 299.458,343.77 		"/>
		<circle cx="291.247" cy="341.032" r="10.947"/>
	</g>
	<g>
		<polygon fill="#941B1D" stroke="#000000" stroke-width="4.926" stroke-miterlimit="10" points="282.46,547.082 281.924,815.651 
			305.161,816.135 304.685,545.917 		"/>
		<polygon fill="#F6BC17" stroke="#000000" stroke-width="6.568" stroke-miterlimit="10" points="293.256,815.888 279.841,816.147 
			265.806,820.905 252.029,829.42 239.393,840.957 228.776,854.771 221.062,870.125 217.13,886.278 217.861,902.49 222.728,916.824 
			230.163,928.077 239.486,936.616 250.017,942.805 261.074,947.011 271.977,949.596 282.044,950.928 290.598,951.37 
			298.587,951.238 307.243,950.238 316.301,947.816 325.498,943.425 334.569,936.513 343.249,926.526 351.278,912.914 
			358.388,895.127 362.007,876.641 360.386,861.063 354.466,848.167 345.185,837.725 333.483,829.505 320.301,823.279 
			306.579,818.817 293.256,815.888 		"/>
		<polygon fill="#FCEC7B" stroke="#000000" stroke-width="4.926" stroke-miterlimit="10" points="241.602,887.901 240.422,898.391 
			242.325,907.462 246.726,915.066 253.04,921.153 260.683,925.676 269.065,928.586 277.607,929.839 285.718,929.382 
			293.559,927.424 301.429,924.121 308.964,919.354 315.797,913 321.559,904.941 325.885,895.054 328.407,883.22 328.758,869.319 
			326.294,856.308 321.085,846.914 313.846,840.675 305.283,837.127 296.11,835.806 287.036,836.251 278.773,837.998 
			272.031,840.583 266.598,843.754 261.747,847.605 257.42,852.187 253.56,857.556 250.105,863.758 247,870.849 244.186,878.879 
			241.602,887.901 		"/>
		<polygon fill="#9F1D22" stroke="#000000" stroke-width="4.926" stroke-miterlimit="10" points="298.489,951.242 297.814,968.287 
			276.312,968.777 275.85,950.21 		"/>
		<polygon fill="#EADE7D" stroke="#000000" stroke-width="4.926" stroke-miterlimit="10" points="293.163,968.392 293.238,987.452 
			284.066,988.156 281.771,968.654 		"/>
		<circle fill="#FFFFFF" stroke="#000000" stroke-width="1.642" stroke-miterlimit="10" cx="292.889" cy="545.736" r="10.947"/>
	</g>
	<g>
		<polygon fill="#DA9427" stroke="#000000" stroke-width="4.926" stroke-miterlimit="10" points="270.996,119.363 266.07,195.442 
			323.54,198.179 328.466,122.647 		"/>
		<polygon fill="#D67928" stroke="#000000" stroke-width="3.284" stroke-miterlimit="10" points="323.54,198.179 333.393,208.578 
			337.771,134.688 328.466,122.647 		"/>
		<polygon fill="#D67927" stroke="#000000" stroke-width="3.284" stroke-miterlimit="10" points="323.54,198.179 333.393,208.578 
			273.186,205.842 266.07,195.442 		"/>
		
			<line fill="none" stroke="#000000" stroke-width="1.642" stroke-miterlimit="10" x1="285.789" y1="120.208" x2="281.934" y2="196.197"/>
		
			<line fill="none" stroke="#000000" stroke-width="1.642" stroke-miterlimit="10" x1="292.342" y1="120.583" x2="290.97" y2="196.197"/>
		
			<line fill="none" stroke="#000000" stroke-width="1.642" stroke-miterlimit="10" x1="303.854" y1="121.241" x2="299.731" y2="196.197"/>
		
			<line fill="none" stroke="#000000" stroke-width="1.642" stroke-miterlimit="10" x1="319.436" y1="122.647" x2="318.614" y2="197.944"/>
		<circle cx="300.552" cy="160.96" r="10.947"/>
	</g>
	<g>
		<ellipse cx="386" cy="337.382" rx="8" ry="7"/>
		<ellipse transform="matrix(0.866 -0.5 0.5 0.866 -95.5521 224.5315)" cx="371.207" cy="290.569" rx="8" ry="7"/>
		<ellipse transform="matrix(0.5 -0.866 0.866 0.5 -55.4413 418.8208)" cx="334.988" cy="257.424" rx="8" ry="6.999"/>
		<ellipse cx="287.05" cy="246.829" rx="6.999" ry="8"/>
		<ellipse transform="matrix(-0.5 -0.866 0.866 -0.5 133.7827 600.4838)" cx="240.236" cy="261.622" rx="8" ry="6.999"/>
		<ellipse transform="matrix(-0.866 -0.5 0.5 -0.866 237.5179 659.3232)" cx="207.091" cy="297.84" rx="8" ry="6.999"/>
		<ellipse cx="196.496" cy="345.779" rx="8" ry="6.999"/>
		<ellipse transform="matrix(-0.866 0.5 -0.5 -0.866 590.5676 626.9429)" cx="211.29" cy="392.592" rx="8" ry="6.999"/>
		<ellipse transform="matrix(-0.5 0.866 -0.866 -0.5 739.9611 424.2574)" cx="247.508" cy="425.737" rx="8" ry="6.999"/>
		<ellipse cx="295.446" cy="436.333" rx="6.999" ry="8"/>
		<ellipse transform="matrix(0.5 0.866 -0.866 0.5 536.194 -85.6359)" cx="342.26" cy="421.539" rx="8" ry="6.999"/>
		<ellipse transform="matrix(0.866 0.5 -0.5 0.866 242.9545 -136.079)" cx="375.405" cy="385.321" rx="8" ry="6.999"/>
		<circle cx="291.248" cy="341.58" r="8.757"/>
	</g>
</g>
</svg>
