<?xml version="1.0" encoding="utf-8"?>
<!-- Generator: Adobe Illustrator 16.0.4, SVG Export Plug-In . SVG Version: 6.00 Build 0)  -->
<!DOCTYPE svg PUBLIC "-//W3C//DTD SVG 1.1//EN" "http://www.w3.org/Graphics/SVG/1.1/DTD/svg11.dtd">
<svg version="1.1" id="Layer_1" xmlns="http://www.w3.org/2000/svg" xmlns:xlink="http://www.w3.org/1999/xlink" x="0px" y="0px"
	 width="612px" height="792px" viewBox="0 0 612 792" enable-background="new 0 0 612 792" xml:space="preserve">
<g>
	<g>
		
			<polygon fill="#F8991D" stroke="#000000" stroke-width="1.795" stroke-linecap="round" stroke-linejoin="round" stroke-miterlimit="79.8403" points="
			328.426,397.295 323.427,392.262 318.282,387.919 312.918,384.257 307.258,381.273 301.228,378.961 294.749,377.319 
			287.748,376.335 280.151,376.009 280.042,376.009 280.021,376.011 279.936,376.011 279.915,376.009 279.806,376.009 
			272.208,376.335 265.206,377.319 258.725,378.961 252.692,381.273 247.026,384.257 241.657,387.919 236.509,392.262 
			231.501,397.295 226.652,403.733 222.126,412.077 218.116,421.99 214.814,433.128 212.408,445.144 211.093,457.698 
			211.057,470.445 212.493,483.039 215.832,495.053 220.966,504.811 227.724,512.514 235.927,518.365 245.4,522.565 
			255.972,525.315 267.46,526.817 279.697,527.273 279.72,527.273 279.743,527.271 279.835,527.271 279.858,527.27 279.904,527.27 
			279.927,527.271 280.014,527.271 280.037,527.273 280.062,527.273 292.297,526.817 303.791,525.315 314.366,522.565 
			323.846,518.365 332.057,512.514 338.824,504.811 343.973,495.053 347.328,483.039 348.781,470.445 348.762,457.698 
			347.463,445.144 345.073,433.128 341.787,421.99 337.789,412.077 333.273,403.733 328.426,397.295 		"/>
		<circle cx="281.003" cy="460.224" r="5.778"/>
	</g>
	<g>
		
			<polygon fill="#FFFFFF" stroke="#000000" stroke-width="1.795" stroke-linecap="round" stroke-linejoin="round" stroke-miterlimit="79.8403" points="
			413.723,477.397 414.462,477.515 416.282,478.029 418.575,479.173 420.734,481.184 425.293,488.436 433.232,502.499 
			441.618,519.402 447.519,535.173 449.755,546.741 450.704,558.858 450.553,570.914 449.48,582.292 447.661,592.083 
			444.814,600.83 440.828,607.214 435.597,609.917 430.792,609.191 427.883,607.044 426.445,604.792 426.06,603.749 
			425.853,604.383 425.043,605.78 423.339,607.178 420.452,607.812 417.212,606.979 414.736,605.147 413.155,603.314 
			412.597,602.481 412.333,602.657 411.53,602.937 410.171,602.955 408.252,602.341 405.551,600.73 403.822,599.186 
			402.909,598.031 402.643,597.573 401.801,597.682 399.689,597.463 396.914,596.106 394.086,592.807 392.907,588.134 
			393.438,575.532 392.965,568.968 391.124,564.461 384.476,552.724 381.888,545.829 380.521,536.223 379.888,524.004 
			379.837,512.598 380.205,505.439 380.983,501.63 382.011,498.305 382.906,495.954 383.291,495.062 386.724,492.083 
			394.982,485.648 405.002,479.503 413.723,477.397 		"/>
		
			<polygon fill="#4C4C4D" stroke="#000000" stroke-width="1.795" stroke-linecap="round" stroke-linejoin="round" stroke-miterlimit="79.8403" points="
			414.424,469.544 415.383,469.583 416.441,471.045 417.298,473.262 417.649,475.573 416.906,478.597 414.676,482.525 
			410.953,487.219 405.731,492.542 399.033,497.745 392.731,501.167 387.636,503.153 384.556,504.04 380.03,504.208 
			378.386,502.478 378.602,500.233 379.648,498.85 382.754,497.349 388.507,494.282 394.926,490.318 400.031,486.136 
			414.424,469.544 		"/>
		
			<polygon fill="#FFFFFF" stroke="#000000" stroke-width="1.795" stroke-linecap="round" stroke-linejoin="round" stroke-miterlimit="79.8403" points="
			370.391,447.626 377.699,441.475 386.409,436.052 395.171,433.188 402.646,434.725 406.648,439.433 408.061,444.75 
			408.05,449.097 407.787,450.897 408.785,451.027 411.2,451.735 414.175,453.495 416.855,456.787 418.217,462.372 417.009,468.228 
			413.924,474.207 409.656,480.158 404.224,485.981 397.792,491.303 391.194,495.705 385.255,498.76 376.687,499.896 
			371.765,496.529 369.523,492.034 368.99,489.785 367.183,489.806 362.948,489.321 358.064,487.501 354.31,483.524 
			353.498,476.705 356.078,467.678 361.796,457.6 370.391,447.626 		"/>
		
			<polygon stroke="#000000" stroke-width="1.795" stroke-linecap="round" stroke-linejoin="round" stroke-miterlimit="79.8403" points="
			374.1,457.982 378.866,453.258 384.139,448.49 388.788,445.03 391.683,444.232 392.225,446.776 390.738,451.675 387.48,457.779 
			382.705,463.94 377.129,468.991 370.699,473.638 365.125,476.775 362.121,477.299 362.27,474.744 364.664,470.021 368.782,464.11 
			374.1,457.982 		"/>
		
			<polygon fill="#F8991D" stroke="#000000" stroke-width="1.795" stroke-linecap="round" stroke-linejoin="round" stroke-miterlimit="79.8403" points="
			388.756,455.814 381.325,446.341 372.68,436.292 361.321,424.298 347.897,411.708 320.664,388.988 311.034,401.114 
			323.159,412.126 334.807,423.533 347.056,436.779 357.533,450.085 365.279,461.628 370.086,469.757 371.737,472.831 
			372.717,472.202 375.185,470.488 378.437,467.958 381.767,464.875 384.749,461.486 386.941,458.591 388.295,456.571 
			388.756,455.814 		"/>
		
			<polyline fill="#F8991D" stroke="#000000" stroke-width="1.795" stroke-linecap="round" stroke-linejoin="round" stroke-miterlimit="79.8403" points="
			407.787,450.897 407.47,451.914 407.116,452.91 406.666,453.982 405.994,455.158 405.156,456.378 404.141,457.723 		"/>
		
			<polyline fill="none" stroke="#000000" stroke-width="1.795" stroke-linecap="round" stroke-linejoin="round" stroke-miterlimit="79.8403" points="
			426.063,603.749 423.557,562.152 422.417,550.599 421.514,546.444 420.349,542.904 419.341,540.442 418.911,539.521 		"/>
		
			<polyline fill="none" stroke="#000000" stroke-width="1.795" stroke-linecap="round" stroke-linejoin="round" stroke-miterlimit="79.8403" points="
			423.539,563.642 422.397,572.272 421.032,579.148 419.191,584.256 416.709,587.554 414.161,589.393 411.323,589.996 
			407.973,589.583 404.597,587.652 401.891,584.011 399.946,579.371 398.858,574.44 397.142,556.613 396.614,553.684 
			395.196,551.71 389.89,545.026 387.92,542.185 		"/>
		
			<polyline fill="#F8991D" stroke="#000000" stroke-width="1.795" stroke-linecap="round" stroke-linejoin="round" stroke-miterlimit="79.8403" points="
			412.601,602.487 411.987,600.401 411.477,598.287 411.058,595.896 410.499,590.146 		"/>
		
			<polyline fill="#F8991D" stroke="#000000" stroke-width="1.795" stroke-linecap="round" stroke-linejoin="round" stroke-miterlimit="79.8403" points="
			402.644,597.579 402.486,597.026 402.118,595.475 401.698,593.083 401.382,590.006 401.286,587.084 401.345,585.028 
			401.459,583.811 401.521,583.414 		"/>
		<circle cx="315.107" cy="395.605" r="5.778"/>
	</g>
	<g>
		
			<polygon fill="#FFFFFF" stroke="#000000" stroke-width="1.795" stroke-linecap="round" stroke-linejoin="round" stroke-miterlimit="79.8403" points="
			146.518,477.026 145.778,477.144 143.959,477.655 141.667,478.798 139.506,480.809 134.945,488.062 127.007,502.126 
			118.623,519.027 112.723,534.8 110.486,546.366 109.535,558.483 109.685,570.54 110.759,581.918 112.579,591.708 115.426,600.455 
			119.411,606.839 124.641,609.542 129.445,608.816 132.354,606.669 133.792,604.417 134.178,603.374 134.385,604.008 
			135.196,605.407 136.901,606.806 139.789,607.44 143.027,606.608 145.502,604.774 147.084,602.942 147.64,602.11 147.907,602.285 
			148.71,602.565 150.067,602.582 151.99,601.968 154.691,600.355 156.416,598.812 157.33,597.656 157.598,597.2 158.437,597.309 
			160.55,597.089 163.323,595.733 166.15,592.434 167.332,587.761 166.802,575.157 167.272,568.594 169.114,564.087 
			175.762,552.352 178.351,545.456 179.718,535.852 180.349,523.632 180.402,512.226 180.035,505.067 179.255,501.256 
			178.229,497.933 177.333,495.581 176.949,494.69 173.515,491.712 165.257,485.277 155.235,479.129 146.518,477.026 		"/>
		
			<polygon fill="#4C4C4D" stroke="#000000" stroke-width="1.795" stroke-linecap="round" stroke-linejoin="round" stroke-miterlimit="79.8403" points="
			145.819,469.173 144.858,469.21 143.801,470.672 142.945,472.889 142.593,475.198 143.336,478.221 145.567,482.15 
			149.292,486.844 154.513,492.169 161.21,497.372 167.513,500.793 172.608,502.78 175.687,503.667 180.213,503.835 
			181.858,502.105 181.643,499.859 180.597,498.475 177.49,496.974 171.738,493.906 165.319,489.943 160.216,485.761 
			145.819,469.173 		"/>
		
			<polygon fill="#FFFFFF" stroke="#000000" stroke-width="1.795" stroke-linecap="round" stroke-linejoin="round" stroke-miterlimit="79.8403" points="
			189.851,447.251 182.544,441.1 173.834,435.677 165.071,432.812 157.598,434.35 153.593,439.058 152.18,444.375 152.19,448.722 
			152.455,450.522 151.459,450.652 149.042,451.36 146.066,453.12 143.387,456.412 142.025,461.997 143.234,467.853 
			146.317,473.832 150.584,479.783 156.017,485.606 162.449,490.928 169.047,495.33 174.984,498.385 183.553,499.523 
			188.474,496.155 190.718,491.659 191.25,489.41 193.057,489.431 197.291,488.946 202.176,487.125 205.929,483.149 206.742,476.33 
			204.163,467.303 198.445,457.225 189.851,447.251 		"/>
		
			<polygon stroke="#000000" stroke-width="1.795" stroke-linecap="round" stroke-linejoin="round" stroke-miterlimit="79.8403" points="
			186.143,457.609 181.376,452.883 176.104,448.115 171.454,444.657 168.559,443.859 168.019,446.404 169.507,451.304 
			172.765,457.406 177.538,463.567 183.115,468.617 189.546,473.264 195.119,476.402 198.124,476.926 197.975,474.37 
			195.58,469.648 191.463,463.737 186.143,457.609 		"/>
		
			<polygon fill="#F8991D" stroke="#000000" stroke-width="1.795" stroke-linecap="round" stroke-linejoin="round" stroke-miterlimit="79.8403" points="
			171.485,455.439 178.918,445.966 187.562,435.918 198.921,423.921 212.346,411.332 239.578,388.613 249.209,400.738 
			237.084,411.751 225.436,423.157 213.188,436.402 202.712,449.71 194.963,461.253 190.156,469.381 188.506,472.456 
			185.06,470.112 181.81,467.581 178.48,464.5 175.497,461.111 173.304,458.215 171.951,456.196 171.485,455.439 		"/>
		
			<polyline fill="#F8991D" stroke="#000000" stroke-width="1.795" stroke-linecap="round" stroke-linejoin="round" stroke-miterlimit="79.8403" points="
			152.456,450.522 152.772,451.539 153.126,452.534 153.576,453.607 154.248,454.783 155.084,456.003 156.101,457.348 		"/>
		
			<polyline fill="none" stroke="#000000" stroke-width="1.795" stroke-linecap="round" stroke-linejoin="round" stroke-miterlimit="79.8403" points="
			134.178,603.374 136.684,561.779 137.824,550.226 138.727,546.069 139.893,542.528 140.902,540.067 141.332,539.146 		"/>
		
			<polyline fill="none" stroke="#000000" stroke-width="1.795" stroke-linecap="round" stroke-linejoin="round" stroke-miterlimit="79.8403" points="
			136.704,563.267 137.845,571.897 139.211,578.773 141.051,583.883 143.533,587.18 146.083,589.019 148.92,589.622 152.27,589.21 
			155.646,587.28 158.351,583.638 160.295,578.996 161.385,574.067 163.101,556.24 163.628,553.311 165.046,551.337 
			170.354,544.653 172.323,541.812 		"/>
		
			<polyline fill="#F8991D" stroke="#000000" stroke-width="1.795" stroke-linecap="round" stroke-linejoin="round" stroke-miterlimit="79.8403" points="
			147.64,602.113 148.254,600.027 148.766,597.914 149.185,595.521 149.745,589.773 		"/>
		
			<polyline fill="#F8991D" stroke="#000000" stroke-width="1.795" stroke-linecap="round" stroke-linejoin="round" stroke-miterlimit="79.8403" points="
			157.599,597.204 157.757,596.651 158.125,595.1 158.545,592.707 158.86,589.631 158.958,586.709 158.896,584.654 158.783,583.439 
			158.723,583.04 		"/>
		<circle cx="245.104" cy="395.605" r="5.778"/>
	</g>
	<g>
		
			<polygon fill="#FFFFFF" stroke="#000000" stroke-width="1.795" stroke-linecap="round" stroke-linejoin="round" stroke-miterlimit="79.8403" points="
			344.853,673.953 347.095,660.525 351.298,648.5 358.098,638.299 368.131,630.339 375.381,627.01 381.479,625.341 386.046,624.786 
			388.698,624.794 400.84,628.675 412.138,633.275 422.138,638.386 430.396,643.805 441.958,653.807 450.898,663.688 
			457.366,672.77 461.522,680.363 463.81,687.37 464.764,694.274 464.725,699.894 464.021,703.053 454.881,703.763 343.447,703.822 
			343.412,695.882 343.803,686.488 344.853,673.953 		"/>
		
			<polygon fill="#E41A67" stroke="#000000" stroke-width="1.795" stroke-linecap="round" stroke-linejoin="round" stroke-miterlimit="79.8403" points="
			287.077,635.108 289.971,629.36 293.108,625.146 296.279,622.407 299.275,621.087 303.263,620.51 317.97,619.725 353.966,619.542 
			362.396,619.909 371.097,620.957 379.916,622.612 388.698,624.796 386.046,624.787 381.479,625.343 375.381,627.012 
			368.131,630.34 358.098,638.3 351.298,648.502 347.095,660.527 344.853,673.953 343.806,686.488 343.415,695.882 343.45,703.822 
			290.861,703.822 288.577,703.5 286.132,702.418 284.158,700.39 283.291,697.229 283.345,668.587 284.455,648.953 287.077,635.108 
					"/>
		
			<polygon fill="#488FCD" stroke="#000000" stroke-width="1.795" stroke-linecap="round" stroke-linejoin="round" stroke-miterlimit="79.8403" points="
			342.888,608.75 350.73,607.909 353.756,608.291 355.088,610.15 355.272,613.339 355.3,616.724 355.011,619.557 354.248,621.09 
			351.498,621.956 345.351,623.031 335.797,623.902 322.836,624.174 300.997,623.521 295.378,622.558 293.354,620.822 
			293.191,618.068 293.138,614.787 293.215,611.823 293.447,610.017 293.939,609.342 294.956,609.105 342.888,608.75 		"/>
		
			<polygon fill="#FFFFFF" stroke="#000000" stroke-width="1.795" stroke-linecap="round" stroke-linejoin="round" stroke-miterlimit="79.8403" points="
			353.545,586.451 354.415,585.72 356.192,583.438 357.628,579.473 357.472,573.692 355.275,569.146 351.002,566.016 
			344.842,563.989 336.996,562.755 326.114,562.219 312.946,562.458 300.83,563.404 293.104,564.999 289.594,567.344 
			287.624,570.294 286.781,573.399 286.652,576.218 287.538,581.289 289.212,584.926 290.833,587.121 291.559,587.854 
			290.872,588.616 289.42,590.888 288.127,594.66 287.913,599.917 288.958,604.469 291.613,608.05 296.767,610.685 305.3,612.399 
			316.431,613.25 327.984,613.311 338.746,612.636 347.512,611.277 353.537,609.144 357.221,606.104 359.065,602.145 
			359.57,597.252 358.627,592.548 356.557,589.17 354.485,587.135 353.545,586.451 		"/>
		
			<polygon stroke="#000000" stroke-width="1.795" stroke-linecap="round" stroke-linejoin="round" stroke-miterlimit="79.8403" points="
			317.926,569.204 337.489,568.267 340.363,567.802 340.716,567.346 339.387,567.02 337.213,566.805 322.591,566.482 
			304.729,566.975 300.066,567.387 298.574,567.94 300.809,568.533 305.516,568.994 311.589,569.243 317.926,569.204 		"/>
		
			<polygon fill="#F8991D" stroke="#000000" stroke-width="1.795" stroke-linecap="round" stroke-linejoin="round" stroke-miterlimit="79.8403" points="
			321.432,518.721 323.553,526.135 325.515,534.164 327.462,543.964 331.108,568.645 327.409,568.994 323.002,569.234 
			311.319,569.257 304.839,568.871 304.043,568.782 303.675,561.647 302.362,547.047 299.868,532.05 298.293,524.33 
			321.432,518.721 		"/>
		
			<polyline fill="#F8991D" stroke="#000000" stroke-width="1.795" stroke-linecap="round" stroke-linejoin="round" stroke-miterlimit="79.8403" points="
			353.545,586.451 353.237,586.656 352.336,587.154 350.883,587.753 348.916,588.276 343.168,589.256 		"/>
		
			<polyline fill="#F8991D" stroke="#000000" stroke-width="1.795" stroke-linecap="round" stroke-linejoin="round" stroke-miterlimit="79.8403" points="
			291.562,587.854 291.88,588.018 292.842,588.418 294.46,588.923 296.75,589.399 299.062,589.724 300.729,589.892 301.738,589.952 
			302.076,589.962 		"/>
		<circle cx="309.723" cy="521.254" r="5.778"/>
	</g>
	<g>
		
			<polygon fill="#FFFFFF" stroke="#000000" stroke-width="1.795" stroke-linecap="round" stroke-linejoin="round" stroke-miterlimit="79.8403" points="
			214.86,673.204 212.619,659.777 208.415,647.754 201.614,637.552 191.581,629.592 184.33,626.263 178.23,624.594 173.666,624.039 
			171.014,624.047 158.874,627.928 147.576,632.528 137.572,637.64 129.317,643.058 117.752,653.058 108.813,662.939 
			102.344,672.023 98.189,679.615 95.9,686.623 94.943,693.526 94.984,699.147 95.687,702.306 104.826,703.016 216.263,703.076 
			216.298,695.135 215.909,685.741 214.86,673.204 		"/>
		
			<polygon fill="#E41A67" stroke="#000000" stroke-width="1.795" stroke-linecap="round" stroke-linejoin="round" stroke-miterlimit="79.8403" points="
			272.636,634.361 269.739,628.614 266.603,624.4 263.432,621.66 260.435,620.34 256.446,619.763 241.74,618.977 205.746,618.794 
			197.316,619.16 188.616,620.21 179.797,621.865 171.017,624.049 173.667,624.041 178.232,624.596 184.332,626.265 
			191.583,629.594 201.616,637.554 208.417,647.755 212.62,659.779 214.862,673.204 215.909,685.741 216.298,695.135 
			216.263,703.076 268.848,703.076 271.136,702.755 273.581,701.67 275.555,699.64 276.419,696.481 276.368,667.838 
			275.259,648.206 272.636,634.361 		"/>
		
			<polygon fill="#488FCD" stroke="#000000" stroke-width="1.795" stroke-linecap="round" stroke-linejoin="round" stroke-miterlimit="79.8403" points="
			216.824,608.003 208.982,607.162 205.956,607.544 204.624,609.404 204.438,612.592 204.412,615.977 204.701,618.81 
			205.464,620.344 208.213,621.209 214.364,622.284 223.916,623.155 236.877,623.427 258.715,622.773 264.331,621.811 
			266.354,620.074 266.521,617.322 266.573,614.04 266.496,611.076 266.265,609.271 265.772,608.596 264.755,608.357 
			216.824,608.003 		"/>
		
			<polygon fill="#FFFFFF" stroke="#000000" stroke-width="1.795" stroke-linecap="round" stroke-linejoin="round" stroke-miterlimit="79.8403" points="
			206.165,585.705 205.297,584.974 203.52,582.691 202.083,578.726 202.24,572.945 204.435,568.4 208.709,565.269 214.868,563.243 
			222.713,562.009 233.594,561.472 246.765,561.71 258.881,562.659 266.608,564.252 270.117,566.598 272.088,569.548 
			272.929,572.652 273.059,575.471 272.174,580.542 270.5,584.179 268.876,586.374 268.149,587.107 268.839,587.869 
			270.289,590.141 271.581,593.913 271.797,599.17 270.752,603.724 268.096,607.304 262.943,609.938 254.41,611.653 
			243.279,612.503 231.725,612.564 220.966,611.889 212.201,610.531 206.175,608.397 202.489,605.358 200.645,601.398 
			200.14,596.506 201.082,591.801 203.154,588.423 205.227,586.388 206.165,585.705 		"/>
		
			<polygon stroke="#000000" stroke-width="1.795" stroke-linecap="round" stroke-linejoin="round" stroke-miterlimit="79.8403" points="
			241.785,568.458 222.223,567.521 219.348,567.055 218.996,566.6 220.324,566.273 222.498,566.058 237.121,565.735 
			254.983,566.228 259.646,566.64 261.137,567.194 258.902,567.786 254.196,568.247 248.122,568.498 241.785,568.458 		"/>
		
			<polygon fill="#F8991D" stroke="#000000" stroke-width="1.795" stroke-linecap="round" stroke-linejoin="round" stroke-miterlimit="79.8403" points="
			238.281,517.974 236.16,525.389 234.199,533.417 232.248,543.217 228.604,567.898 232.302,568.247 236.71,568.487 248.394,568.51 
			254.874,568.125 255.67,568.035 256.038,560.901 257.351,546.301 259.844,531.303 261.416,523.583 238.281,517.974 		"/>
		
			<polyline fill="#F8991D" stroke="#000000" stroke-width="1.795" stroke-linecap="round" stroke-linejoin="round" stroke-miterlimit="79.8403" points="
			206.3,585.89 206.609,586.097 207.51,586.593 208.964,587.192 210.93,587.715 216.678,588.695 		"/>
		
			<polyline fill="#F8991D" stroke="#000000" stroke-width="1.795" stroke-linecap="round" stroke-linejoin="round" stroke-miterlimit="79.8403" points="
			268.284,587.292 267.967,587.456 267.004,587.855 265.385,588.36 263.097,588.838 260.785,589.163 259.118,589.33 
			258.108,589.391 257.77,589.399 		"/>
		<circle cx="250.488" cy="521.254" r="5.778"/>
	</g>
	<g>
		
			<polygon fill="#FFFFFF" stroke="#000000" stroke-width="1.795" stroke-linecap="round" stroke-linejoin="round" stroke-miterlimit="79.8403" points="
			334.407,422.143 335.646,419.18 339.121,414.507 343.373,409.886 346.947,407.09 345.941,407.004 341.812,407.848 
			336.639,409.495 332.498,411.835 333.136,407.94 334.495,404.219 336.253,400.748 338.105,397.604 341.1,393.237 344.115,389.519 
			346.442,386.934 347.377,385.964 345.687,386.041 341.47,386.513 336,387.734 330.56,390.062 326.247,393.47 323.069,397.188 
			321.103,400.179 320.429,401.405 320.401,400.375 320.477,397.784 320.903,394.385 321.923,390.936 324.669,385.261 
			327.064,381.167 328.759,378.683 329.401,377.847 327.699,378.479 323.483,380.185 318.117,382.685 312.946,385.701 
			305.822,389.933 298.52,392.676 290.157,394.157 279.853,394.603 279.853,394.611 279.853,394.622 279.853,394.631 
			279.853,394.639 269.504,394.129 261.059,392.536 253.744,389.77 246.781,385.736 241.583,382.758 236.22,380.251 232.02,378.525 
			230.325,377.883 231.029,378.662 232.738,380.793 234.853,383.975 236.769,387.906 237.713,391.368 238.151,394.72 
			238.278,397.251 238.276,398.254 237.69,397.393 236.011,395.237 233.362,392.433 229.867,389.629 225.674,387.507 
			220.535,385.564 216.179,384.143 214.342,383.593 215.277,384.961 217.574,388.357 220.475,392.711 223.22,396.955 
			224.752,399.432 226.395,402.349 228.006,405.751 229.436,409.679 224.975,408.074 220.272,407.362 216.216,407.376 
			213.696,407.955 215.172,409.681 219.388,413.269 223.697,417.611 225.458,421.603 224.2,427.818 222.11,435.072 219.828,442.89 
			217.982,450.802 216.422,466.587 218.042,482.355 223.888,496.999 234.998,509.418 247.221,516.231 260.043,519.83 
			271.562,521.236 279.874,521.479 279.874,521.471 279.874,521.46 279.874,521.452 279.874,521.443 288.19,521.199 299.703,519.79 
			312.517,516.191 324.728,509.383 335.841,496.963 341.685,482.318 343.303,466.551 341.743,450.766 340.06,443.042 
			338.027,435.38 336.016,428.255 334.407,422.143 		"/>
		<circle cx="281.003" cy="456.635" r="5.778"/>
	</g>
	<g>
		
			<polygon fill="#F8991D" stroke="#000000" stroke-width="1.795" stroke-linecap="round" stroke-linejoin="round" stroke-miterlimit="79.8403" points="
			306.692,116.486 309.847,111.835 319.03,100.032 333.825,84.304 353.81,67.873 376.305,54.094 397.468,44.594 415.125,40 
			427.104,40.948 433.963,53.423 437.479,78.58 437.301,109.787 433.085,140.419 422.941,171.901 410.835,195.95 400.695,211.306 
			396.44,216.705 374.003,191.651 351.566,166.597 329.129,141.542 306.692,116.486 		"/>
		
			<polygon fill="#FFFFFF" stroke="#000000" stroke-width="1.795" stroke-linecap="round" stroke-linejoin="round" stroke-miterlimit="79.8403" points="
			329.876,118.73 333.075,114.835 341.585,105.35 353.778,93.58 368.019,82.832 383.375,73.834 396.626,67.501 407.356,64.532 
			415.139,65.631 419.337,75.487 420.286,94.032 419.036,114.832 416.636,131.447 410.688,151.208 402.707,170.619 395.706,185.401 
			392.704,191.279 376.998,173.143 361.292,155.006 345.585,136.87 329.876,118.73 		"/>
		
			<polygon fill="#F8991D" stroke="#000000" stroke-width="1.795" stroke-linecap="round" stroke-linejoin="round" stroke-miterlimit="79.8403" points="
			255.39,117.983 252.234,113.332 243.049,101.529 228.254,85.799 208.271,69.37 185.776,55.591 164.612,46.09 146.955,41.497 
			134.977,42.445 128.118,54.918 124.604,80.073 124.779,111.28 128.996,141.912 139.138,173.396 151.245,197.445 161.388,212.799 
			165.643,218.199 188.08,193.145 210.517,168.09 232.954,143.036 255.39,117.983 		"/>
		
			<polygon fill="#FFFFFF" stroke="#000000" stroke-width="1.795" stroke-linecap="round" stroke-linejoin="round" stroke-miterlimit="79.8403" points="
			232.206,120.227 229.005,116.332 220.493,106.845 208.302,95.075 194.062,84.328 178.706,75.329 165.454,68.997 154.726,66.027 
			146.944,67.126 142.748,76.982 141.798,95.528 143.047,116.324 145.447,132.939 151.396,152.7 159.377,172.11 166.379,186.894 
			169.381,192.773 185.087,174.636 200.793,156.5 216.5,138.364 232.206,120.227 		"/>
		
			<polygon fill="#F8991D" stroke="#000000" stroke-width="1.795" stroke-linecap="round" stroke-linejoin="round" stroke-miterlimit="79.8403" points="
			191.92,124.226 206.681,117.985 233.08,111.184 272.591,106.767 314.156,107.782 345.978,113.777 368.403,122.438 
			381.783,131.449 390.327,141.556 397.398,155.661 402.083,174.674 403.472,199.507 401.45,227.295 397.394,252.981 
			392.639,274.181 388.512,288.508 384.983,298.247 381.594,306.549 379.046,312.327 378.042,314.496 330.363,314.542 
			282.686,314.588 235.007,314.635 187.33,314.682 185.857,311.526 182.282,303.462 177.864,292.593 173.867,281.024 
			169.777,265.119 165.267,243.536 161.878,221.812 161.153,205.488 162.368,194.889 163.583,186.883 164.519,181.823 
			164.892,180.059 160.931,179.696 150.027,179.963 133.655,182.897 113.287,190.529 91.631,205.054 72.431,223.154 58.701,238.593 
			53.455,245.125 57.556,236.805 68.88,217.266 85.953,194.642 107.304,177.065 130.348,167.727 151.147,163.229 166.199,161.815 
			171.995,161.734 169.601,160.743 161.525,158.999 146.438,158.34 123.008,160.612 94.637,168.621 73.212,179.885 59.67,189.926 
			54.948,194.268 59.36,188.178 71.917,173.96 91.604,157.694 117.399,145.458 139.83,140.96 157.459,140.179 168.986,141.151 
			173.117,141.911 169.396,139.288 159.607,133.563 145.824,127.943 130.113,125.638 106.81,128.724 82.527,134.796 63.433,140.732 
			55.697,143.406 62.472,138.687 79.903,128.094 103.649,116.976 129.366,110.679 151.673,112.117 170.126,117.834 182.689,124.042 
			187.328,126.96 		"/>
		<polygon fill="#F4F4C0" points="299.873,275.794 300.115,277.757 300.777,279.362 301.759,280.444 302.958,280.842 
			304.157,280.444 305.139,279.362 305.801,277.757 306.043,275.794 305.801,273.828 305.139,272.224 304.157,271.141 
			302.958,270.745 301.759,271.141 300.777,272.224 300.115,273.828 299.873,275.794 		"/>
		<polygon fill="#FFFFFF" points="269.869,257.627 269.637,272.276 268.659,284.219 267.05,292.683 264.915,296.894 
			261.337,299.338 255.717,302.644 249.204,305.807 242.946,307.833 237.859,308.646 232.635,309.27 228.556,309.672 
			226.912,309.814 220.231,308.573 214.501,304.337 209.736,296.334 205.947,283.787 204.872,269.258 206.774,253.739 
			210.506,238.939 214.922,226.572 220.889,214.188 228.591,202.805 237.873,194.469 248.578,191.234 258.657,194.214 
			264.424,200.77 267.036,207.325 267.649,210.305 267.958,214.215 268.657,224.677 269.408,239.783 269.869,257.627 		"/>
		<polygon points="268.186,265.762 267.481,277.117 265.557,286.388 262.705,292.64 259.211,294.932 255.717,292.64 
			252.865,286.388 250.94,277.117 250.236,265.762 250.94,254.409 252.865,245.136 255.717,238.884 259.211,236.592 
			262.705,238.884 265.557,245.136 267.481,254.409 268.186,265.762 		"/>
		<polygon fill="#FFFFFF" points="264.82,255.383 264.424,260.513 263.339,264.703 261.735,267.528 259.768,268.563 
			257.802,267.528 256.198,264.703 255.114,260.513 254.718,255.383 255.114,250.253 256.198,246.064 257.802,243.238 
			259.768,242.203 261.735,243.238 263.339,246.064 264.424,250.253 264.82,255.383 		"/>
		
			<polyline fill="none" stroke="#000000" stroke-width="1.795" stroke-linecap="round" stroke-linejoin="round" stroke-miterlimit="79.8403" points="
			267.583,210.074 266.969,207.095 264.357,200.539 258.59,193.984 248.511,191.004 237.804,194.239 228.524,202.575 
			220.822,213.96 214.855,226.344 210.439,238.708 206.708,253.509 204.805,269.032 205.88,283.563 209.669,296.109 
			214.435,304.115 220.163,308.351 226.843,309.592 		"/>
		<polygon fill="#FFFFFF" points="289.65,257.44 289.883,272.087 290.859,284.029 292.471,292.492 294.604,296.704 298.18,299.148 
			303.8,302.453 310.313,305.617 316.573,307.64 321.66,308.453 326.887,309.078 330.964,309.48 332.608,309.622 339.289,308.381 
			345.016,304.147 349.78,296.144 353.57,283.596 354.645,269.068 352.744,253.547 349.012,238.746 344.595,226.379 
			338.628,213.996 330.928,202.611 321.646,194.275 310.939,191.04 300.86,194.02 295.093,200.575 292.481,207.131 291.868,210.11 
			291.557,214.021 290.859,224.483 290.109,239.589 289.65,257.44 		"/>
		<polygon points="291.333,265.575 292.039,276.928 293.964,286.201 296.818,292.451 300.308,294.744 303.8,292.451 
			306.653,286.201 308.578,276.928 309.283,265.575 308.578,254.222 306.653,244.949 303.8,238.699 300.308,236.407 
			296.818,238.699 293.964,244.949 292.039,254.222 291.333,265.575 		"/>
		<polygon fill="#FFFFFF" points="294.698,255.196 295.096,260.326 296.178,264.516 297.785,267.341 299.75,268.377 
			301.715,267.341 303.321,264.516 304.402,260.326 304.802,255.196 304.402,250.065 303.321,245.875 301.715,243.05 
			299.75,242.014 297.785,243.05 296.178,245.875 295.096,250.065 294.698,255.196 		"/>
		<polygon fill="#FFFFFF" points="299.747,275.672 299.989,277.637 300.649,279.242 301.629,280.324 302.832,280.722 
			304.031,280.324 305.013,279.242 305.675,277.637 305.917,275.672 305.675,273.706 305.013,272.102 304.031,271.019 
			302.832,270.623 301.629,271.019 300.649,272.102 299.989,273.706 299.747,275.672 		"/>
		
			<polyline fill="none" stroke="#000000" stroke-width="1.795" stroke-linecap="round" stroke-linejoin="round" stroke-miterlimit="79.8403" points="
			291.934,209.886 292.549,206.906 295.161,200.351 300.928,193.796 311.006,190.815 321.714,194.051 330.994,202.387 
			338.696,213.771 344.662,226.157 349.079,238.52 352.809,253.321 354.713,268.844 353.636,283.372 349.849,295.917 
			345.084,303.923 339.357,308.159 332.675,309.399 		"/>
		
			<polygon fill="#FFFFFF" stroke="#000000" stroke-width="1.795" stroke-linecap="round" stroke-linejoin="round" stroke-miterlimit="79.8403" points="
			280.442,290.375 273.85,291.552 267.798,294.605 261.432,298.814 253.893,303.462 244.148,307.218 232.598,309.258 
			220.524,309.615 209.201,308.324 197.939,305.722 185.572,302.645 172.679,299.884 159.838,298.228 146.254,298.105 
			132.774,298.929 122.45,299.963 118.33,300.472 121.888,301.058 130.389,302.645 140.573,304.968 149.181,307.765 
			155.683,310.823 161.241,313.724 165.115,315.888 166.57,316.739 163.529,316.906 156.123,317.651 146.929,319.341 
			138.523,322.349 131.17,326.406 124.29,330.411 119.197,333.47 117.208,334.689 119.938,334.367 126.558,333.66 134.72,332.953 
			142.076,332.632 147.832,333.129 153.203,334.222 157.17,335.315 158.717,335.812 156.403,336.952 150.724,339.88 
			143.572,343.859 136.841,348.155 131.25,352.712 126.605,357.27 123.432,360.775 122.257,362.177 125.018,361.195 
			131.722,358.952 140.004,356.498 147.498,354.886 153.853,354.062 159.629,353.344 163.827,352.836 165.448,352.644 
			163.341,353.708 158.286,356.373 152.186,359.836 146.938,363.303 142.241,367.544 138.104,372.137 135.158,375.818 
			134.036,377.326 138.067,375.205 148.2,370.456 161.486,365.494 174.984,362.743 187.176,362.611 198.894,363.794 
			210.718,366.135 223.226,369.474 235.17,373.445 246.854,377.257 261.167,380.124 281.001,381.254 300.478,380.623 
			313.958,378.728 324.701,375.573 335.973,371.156 349.181,366.853 362.967,364.074 376.438,362.873 388.7,363.303 
			401.575,366.203 415.135,370.945 425.854,375.371 430.21,377.326 429.141,376.02 426.284,372.767 422.165,368.569 
			417.309,364.423 412.189,360.802 407.491,357.762 404.055,355.667 402.725,354.886 405.003,354.685 410.858,354.535 
			418.818,355.123 427.408,357.13 435.033,360.1 440.87,362.809 444.602,364.781 445.917,365.544 444.9,364.003 441.992,359.936 
			437.397,354.186 431.332,347.595 423.865,341.793 416.189,337.779 410.192,335.448 407.773,334.694 409.701,334.195 
			414.785,333.222 421.972,332.565 430.21,333.012 438.449,334.423 445.636,335.886 450.719,337.034 452.647,337.5 450.369,335.59 
			444.512,331.05 436.554,325.669 427.965,321.234 419.027,318.288 410.297,316.185 403.671,314.922 401.042,314.502 
			402.584,313.511 406.651,311.207 412.401,308.586 418.992,306.649 426.81,305.327 435.259,304.056 442.025,303.101 
			444.794,302.724 441.28,301.689 432.244,299.499 419.947,297.517 406.651,297.113 394.308,298.488 383.131,300.686 
			372.774,303.341 362.897,306.088 349.207,308.851 335.131,309.667 321.193,308.272 307.924,304.406 298.833,299.654 
			292.584,295.118 287.133,291.719 280.442,290.375 		"/>
		<polygon points="279.778,301.546 273.003,302.402 268.78,304.152 266.608,306.307 265.993,308.375 267.176,312.654 
			270.312,316.393 274.734,319.065 279.778,320.145 285.636,319.197 290.67,316.515 294.19,312.706 295.514,308.376 
			294.574,306.055 291.694,303.767 286.791,302.076 279.778,301.546 		"/>
		<polygon fill="#FFFFFF" points="286.279,307.396 285.783,308.41 284.432,309.238 282.428,309.796 279.974,310.001 
			277.518,309.796 275.515,309.238 274.161,308.41 273.667,307.396 274.161,306.386 275.515,305.56 277.518,305.002 
			279.974,304.797 282.428,305.002 284.432,305.56 285.783,306.386 286.279,307.396 		"/>
		
			<polyline fill="none" stroke="#000000" stroke-width="1.795" stroke-linecap="round" stroke-linejoin="round" stroke-miterlimit="79.8403" points="
			270.023,336.918 270.461,337.909 272.03,340.088 275.098,342.267 280.037,343.258 285.016,342.267 288.172,340.088 
			289.829,337.909 290.311,336.918 		"/>
		<polygon fill="#FFFFFF" points="259.127,275.794 258.885,277.757 258.222,279.362 257.242,280.444 256.042,280.842 
			254.839,280.444 253.859,279.362 253.198,277.757 252.955,275.794 253.198,273.828 253.859,272.224 254.839,271.141 
			256.042,270.745 257.242,271.141 258.222,272.224 258.885,273.828 259.127,275.794 		"/>
		
			<polyline fill="#F8991D" stroke="#000000" stroke-width="1.795" stroke-linecap="round" stroke-linejoin="round" stroke-miterlimit="79.8403" points="
			187.328,126.96 188.376,127.633 191.122,129.579 194.963,132.691 199.295,136.863 203.005,141.083 205.697,144.529 
			207.34,146.854 207.896,147.707 		"/>
		
			<polyline fill="#F8991D" stroke="#000000" stroke-width="1.795" stroke-linecap="round" stroke-linejoin="round" stroke-miterlimit="79.8403" points="
			173.117,141.917 174.594,142.317 178.397,143.59 183.581,145.848 189.198,149.205 194.556,153.265 198.686,156.729 
			201.344,159.143 202.285,160.049 		"/>
		
			<polyline fill="#F8991D" stroke="#000000" stroke-width="1.795" stroke-linecap="round" stroke-linejoin="round" stroke-miterlimit="79.8403" points="
			171.995,161.738 172.992,161.859 175.655,162.328 179.478,163.295 183.964,164.911 187.749,166.792 190.975,168.743 
			193.218,170.274 194.061,170.894 		"/>
		
			<polyline fill="#F8991D" stroke="#000000" stroke-width="1.795" stroke-linecap="round" stroke-linejoin="round" stroke-miterlimit="79.8403" points="
			164.891,180.061 165.989,180.116 168.878,180.317 172.955,180.715 177.606,181.364 182.373,182.188 186.3,182.906 
			188.964,183.413 189.946,183.606 		"/>
		<circle cx="281.003" cy="381.245" r="5.778"/>
	</g>
</g>
</svg>
