<?xml version="1.0" encoding="utf-8"?>
<!-- Generator: Adobe Illustrator 16.0.4, SVG Export Plug-In . SVG Version: 6.00 Build 0)  -->
<!DOCTYPE svg PUBLIC "-//W3C//DTD SVG 1.1//EN" "http://www.w3.org/Graphics/SVG/1.1/DTD/svg11.dtd">
<svg version="1.1" id="Layer_1" xmlns="http://www.w3.org/2000/svg" xmlns:xlink="http://www.w3.org/1999/xlink" x="0px" y="0px"
	 width="1319.934px" height="1089px" viewBox="0 0 1319.934 1089" enable-background="new 0 0 1319.934 1089" xml:space="preserve">
<g>
	<g>
		<ellipse opacity="0.03" fill="#231F20" enable-background="new    " cx="675.888" cy="990" rx="316" ry="58"/>
		<ellipse opacity="0.03" fill="#231F20" enable-background="new    " cx="675.888" cy="988" rx="276" ry="50.658"/>
		<ellipse opacity="0.03" fill="#231F20" enable-background="new    " cx="675.888" cy="985" rx="232" ry="42.582"/>
		<ellipse opacity="0.03" fill="#231F20" enable-background="new    " cx="675.888" cy="983" rx="200" ry="36.709"/>
		<polygon fill="#937945" stroke="#231F20" stroke-width="3" stroke-miterlimit="10" points="902.083,686.235 900.89,656.302 
			897.386,627.233 891.689,599.176 883.915,572.278 874.18,546.688 862.599,522.548 849.289,500.01 834.367,479.22 817.949,460.324 
			800.151,443.47 781.089,428.806 760.879,416.478 739.639,406.633 717.481,399.419 694.526,394.982 670.888,393.471 
			647.249,394.982 624.294,399.419 602.137,406.633 580.896,416.478 560.688,428.806 541.624,443.47 523.826,460.324 
			507.408,479.22 492.486,500.01 479.177,522.548 467.596,546.688 457.86,572.278 450.086,599.176 444.39,627.233 440.886,656.302 
			439.692,686.235 440.886,716.169 444.39,745.238 450.086,773.295 457.86,800.192 467.596,825.784 479.177,849.923 
			492.486,872.461 507.408,893.251 523.826,912.146 541.624,929 560.688,943.665 580.896,955.993 602.137,965.838 624.294,973.052 
			647.249,977.488 670.888,979 694.526,977.488 717.481,973.052 739.639,965.838 760.879,955.993 781.089,943.665 800.151,929 
			817.949,912.146 834.367,893.251 849.289,872.461 862.599,849.923 874.18,825.784 883.915,800.192 891.689,773.295 
			897.386,745.238 900.89,716.169 		"/>
		<ellipse fill="#AE8E57" cx="675.888" cy="766.235" rx="165.57" ry="185.136"/>
		<polygon opacity="0.15" fill="#604219" enable-background="new    " points="441.002,721.543 441.701,723.771 443.857,730.07 
			447.558,739.857 452.89,752.552 459.939,767.572 468.797,784.336 479.546,802.264 492.276,820.771 507.074,839.279 
			524.027,857.207 543.223,873.971 564.747,888.991 588.689,901.686 615.135,911.473 644.172,917.771 675.888,920 707.494,917.688 
			736.223,911.152 762.188,900.997 785.508,887.826 806.297,872.242 824.67,854.848 840.744,836.247 854.635,817.043 
			866.458,797.84 876.329,779.239 884.363,761.845 890.678,746.261 895.388,733.09 898.608,722.935 900.456,716.399 
			901.046,714.087 900.739,717.062 899.665,725.47 897.596,738.535 894.302,755.479 889.555,775.529 883.124,798.907 
			874.782,822.837 864.3,846.543 851.447,869.249 835.996,891.18 817.717,912.558 796.381,932.607 771.759,949.553 743.622,962.617 
			711.741,974.025 675.888,979 639.106,976.108 606.31,967.938 577.275,955.24 551.78,938.771 529.604,919.287 510.52,897.539 
			494.31,874.282 480.75,850.271 469.618,826.261 460.692,803.004 453.749,781.256 448.567,761.771 444.924,745.303 
			442.597,732.605 441.363,724.435 		"/>
		<circle fill="#231F20" cx="683.471" cy="765.087" r="7.499"/>
	</g>
	<g>
		<polygon opacity="0.8" fill="#CEBC75" stroke="#231F20" stroke-width="1.23" stroke-miterlimit="10" points="640.188,689.892 
			636.52,706.34 628.448,725.479 620.378,741.34 616.709,747.955 613.041,741.34 604.97,725.479 596.899,706.34 593.23,689.892 
			595.076,677.569 600.107,667.507 607.569,660.723 616.709,658.235 625.849,660.723 633.311,667.507 638.342,677.569 		"/>
		<circle fill="#FFFFFF" stroke="#231F20" stroke-width="0.2401" stroke-miterlimit="10" cx="616.709" cy="666.677" r="4.221"/>
	</g>
	<g>
		<polygon opacity="0.8" fill="#C3B77E" stroke="#231F20" stroke-width="1.23" stroke-miterlimit="10" points="687.188,666.892 
			683.52,683.34 675.448,702.479 667.378,718.34 663.709,724.955 660.041,718.34 651.97,702.479 643.899,683.34 640.23,666.892 
			642.076,654.569 647.107,644.507 654.569,637.723 663.709,635.235 672.849,637.723 680.311,644.507 685.342,654.569 		"/>
		<circle fill="#FFFFFF" stroke="#231F20" stroke-width="0.2401" stroke-miterlimit="10" cx="663.709" cy="643.677" r="4.221"/>
	</g>
	<g>
		<polygon opacity="0.8" fill="#CEBC75" stroke="#231F20" stroke-width="1.23" stroke-miterlimit="10" points="713.188,701.892 
			709.52,718.34 701.448,737.479 693.378,753.34 689.709,759.955 686.041,753.34 677.97,737.479 669.899,718.34 666.23,701.892 
			668.076,689.569 673.107,679.507 680.569,672.723 689.709,670.235 698.849,672.723 706.311,679.507 711.342,689.569 		"/>
		<circle fill="#FFFFFF" stroke="#231F20" stroke-width="0.2401" stroke-miterlimit="10" cx="689.709" cy="678.677" r="4.221"/>
	</g>
	<g>
		<polygon opacity="0.8" fill="#B1A36A" stroke="#231F20" stroke-width="1.23" stroke-miterlimit="10" points="753.188,666.892 
			749.52,683.34 741.448,702.479 733.378,718.34 729.709,724.955 726.041,718.34 717.97,702.479 709.899,683.34 706.23,666.892 
			708.076,654.569 713.107,644.507 720.569,637.723 729.709,635.235 738.849,637.723 746.311,644.507 751.342,654.569 		"/>
		<circle fill="#FFFFFF" stroke="#231F20" stroke-width="0.2401" stroke-miterlimit="10" cx="729.709" cy="643.677" r="4.221"/>
	</g>
	<g>
		<polygon opacity="0.8" fill="#B1A36A" stroke="#231F20" stroke-width="1.23" stroke-miterlimit="10" points="796.188,713.892 
			792.52,730.34 784.448,749.479 776.378,765.34 772.709,771.955 769.041,765.34 760.97,749.479 752.899,730.34 749.23,713.892 
			751.076,701.569 756.107,691.508 763.569,684.723 772.709,682.235 781.849,684.723 789.311,691.508 794.342,701.569 		"/>
		<circle fill="#FFFFFF" stroke="#231F20" stroke-width="0.2401" stroke-miterlimit="10" cx="772.709" cy="690.677" r="4.221"/>
	</g>
	<g>
		<polygon opacity="0.8" fill="#C3B77E" stroke="#231F20" stroke-width="1.23" stroke-miterlimit="10" points="597.188,705.892 
			593.52,722.34 585.448,741.479 577.378,757.34 573.709,763.955 570.041,757.34 561.97,741.479 553.899,722.34 550.23,705.892 
			552.076,693.569 557.107,683.507 564.569,676.723 573.709,674.235 582.849,676.723 590.311,683.507 595.342,693.569 		"/>
		<circle fill="#FFFFFF" stroke="#231F20" stroke-width="0.2401" stroke-miterlimit="10" cx="573.709" cy="682.677" r="4.221"/>
	</g>
	<g>
		<polygon opacity="0.8" fill="#C3B77E" stroke="#231F20" stroke-width="1.23" stroke-miterlimit="10" points="664.188,735.892 
			660.52,752.34 652.448,771.479 644.378,787.34 640.709,793.955 637.041,787.34 628.97,771.479 620.899,752.34 617.23,735.892 
			619.076,723.569 624.107,713.508 631.569,706.723 640.709,704.235 649.849,706.723 657.311,713.508 662.342,723.569 		"/>
		<circle fill="#FFFFFF" stroke="#231F20" stroke-width="0.2401" stroke-miterlimit="10" cx="640.709" cy="712.677" r="4.221"/>
	</g>
	<g>
		<polygon opacity="0.8" fill="#CEBC75" stroke="#231F20" stroke-width="1.23" stroke-miterlimit="10" points="756.188,750.892 
			752.52,767.34 744.448,786.479 736.378,802.34 732.709,808.955 729.041,802.34 720.97,786.479 712.899,767.34 709.23,750.892 
			711.076,738.569 716.107,728.508 723.569,721.723 732.709,719.235 741.849,721.723 749.311,728.508 754.342,738.569 		"/>
		<circle fill="#FFFFFF" stroke="#231F20" stroke-width="0.2401" stroke-miterlimit="10" cx="732.709" cy="727.677" r="4.221"/>
	</g>
	<g>
		<polygon opacity="0.8" fill="#B1A36A" stroke="#231F20" stroke-width="1.23" stroke-miterlimit="10" points="652.188,772.892 
			648.52,789.34 640.448,808.479 632.378,824.34 628.709,830.955 625.041,824.34 616.97,808.479 608.899,789.34 605.23,772.892 
			607.076,760.569 612.107,750.508 619.569,743.723 628.709,741.235 637.849,743.723 645.311,750.508 650.342,760.569 		"/>
		<circle fill="#FFFFFF" stroke="#231F20" stroke-width="0.2401" stroke-miterlimit="10" cx="628.709" cy="749.677" r="4.221"/>
	</g>
	<g>
		<polygon opacity="0.8" fill="#C3B77E" stroke="#231F20" stroke-width="1.23" stroke-miterlimit="10" points="708.188,776.892 
			704.52,793.34 696.448,812.479 688.378,828.34 684.709,834.955 681.041,828.34 672.97,812.479 664.899,793.34 661.23,776.892 
			663.076,764.569 668.107,754.508 675.569,747.723 684.709,745.235 693.849,747.723 701.311,754.508 706.342,764.569 		"/>
		<circle fill="#FFFFFF" stroke="#231F20" stroke-width="0.2401" stroke-miterlimit="10" cx="684.709" cy="753.677" r="4.221"/>
	</g>
	<g>
		
			<ellipse transform="matrix(0.3241 -0.946 0.946 0.3241 -520.2196 1127.5604)" fill="#F1A620" stroke="#231F20" stroke-width="3" stroke-miterlimit="10" cx="528.992" cy="927.846" rx="57.746" ry="26.249"/>
		<polygon fill="#D58528" points="555.888,924.667 553.775,931.614 551.458,938.194 548.957,944.388 546.298,950.175 
			543.505,955.537 540.602,960.457 537.614,964.913 534.564,968.887 531.479,972.359 528.38,975.312 525.292,977.727 
			522.241,979.583 519.25,980.862 516.344,981.545 513.546,981.613 510.881,981.047 508.425,979.836 506.244,978.008 
			504.35,975.598 502.752,972.642 501.461,969.176 500.487,965.235 499.843,960.857 499.537,956.077 499.581,950.931 
			499.984,945.454 500.759,939.684 501.913,933.653 503.46,927.4 505.408,920.962 507.77,914.371 510.555,907.667 510.047,910.046 
			508.854,916.367 508.155,920.624 507.472,925.408 506.865,930.566 506.397,935.948 506.13,941.398 506.126,946.764 
			506.446,951.893 507.153,956.633 508.309,960.83 509.976,964.333 512.215,966.988 515.09,968.643 518.371,969.118 
			521.761,968.442 525.216,966.77 528.692,964.254 532.144,961.051 535.526,957.314 538.798,953.2 541.913,948.861 544.827,944.454 
			547.497,940.133 549.877,936.051 551.923,932.365 554.838,926.798 		"/>
		
			<ellipse transform="matrix(0.3241 -0.946 0.946 0.3241 -498.7542 1199.4126)" fill="#F1A620" stroke="#231F20" stroke-width="3" stroke-miterlimit="10" cx="590.007" cy="948.749" rx="57.746" ry="26.248"/>
		<polygon fill="#D58528" points="616.888,945.667 614.775,952.614 612.458,959.194 609.957,965.388 607.298,971.175 
			604.505,976.537 601.602,981.457 598.614,985.913 595.564,989.887 592.479,993.359 589.38,996.312 586.292,998.727 
			583.241,1000.583 580.25,1001.862 577.344,1002.545 574.546,1002.613 571.881,1002.047 569.425,1000.836 567.244,999.008 
			565.35,996.598 563.752,993.642 562.461,990.176 561.487,986.235 560.843,981.857 560.537,977.077 560.581,971.931 
			560.984,966.454 561.759,960.684 562.913,954.653 564.46,948.4 566.408,941.962 568.77,935.371 571.555,928.667 571.047,931.046 
			569.854,937.367 569.155,941.624 568.472,946.408 567.865,951.566 567.396,956.948 567.13,962.398 567.126,967.764 
			567.446,972.893 568.153,977.633 569.309,981.83 570.976,985.333 573.215,987.988 576.09,989.643 579.371,990.118 
			582.761,989.442 586.216,987.77 589.692,985.254 593.144,982.051 596.526,978.314 599.798,974.2 602.913,969.861 605.827,965.454 
			608.497,961.133 610.877,957.051 612.923,953.365 615.838,947.798 		"/>
		
			<ellipse transform="matrix(0.3241 -0.946 0.946 0.3241 -509.7466 1162.644)" fill="#F1A620" stroke="#231F20" stroke-width="3" stroke-miterlimit="10" cx="558.777" cy="938.057" rx="57.745" ry="26.249"/>
		<polygon fill="#D58528" points="585.555,935 583.443,941.947 581.125,948.527 578.624,954.721 575.965,960.508 573.172,965.87 
			570.27,970.789 567.281,975.245 564.231,979.22 561.146,982.692 558.046,985.646 554.959,988.06 551.908,989.916 548.917,991.194 
			546.01,991.878 543.213,991.946 540.548,991.38 538.092,990.17 535.911,988.341 534.017,985.931 532.419,982.975 531.129,979.509 
			530.155,975.568 529.51,971.19 529.204,966.41 529.247,961.264 529.651,955.787 530.425,950.016 531.58,943.985 533.127,937.732 
			535.075,931.294 537.438,924.704 540.222,918 539.714,920.379 538.521,926.7 537.822,930.957 537.139,935.742 536.532,940.9 
			536.064,946.281 535.797,951.73 535.792,957.097 536.112,962.227 536.82,966.966 537.977,971.163 539.643,974.666 
			541.883,977.321 544.757,978.976 548.038,979.451 551.429,978.775 554.884,977.104 558.359,974.587 561.811,971.384 
			565.194,967.646 568.466,963.532 571.58,959.194 574.494,954.787 577.163,950.466 579.543,946.385 581.589,942.698 
			584.504,937.131 		"/>
		<circle fill="#231F20" cx="568.472" cy="915.079" r="7.499"/>
	</g>
	<g>
		
			<ellipse transform="matrix(0.3241 0.946 -0.946 0.3241 1424.3556 -137.9071)" fill="#F1A620" stroke="#231F20" stroke-width="3" stroke-miterlimit="10" cx="808.689" cy="927.855" rx="57.746" ry="26.249"/>
		<polygon fill="#D58528" points="781.725,924.667 783.836,931.614 786.154,938.194 788.655,944.388 791.314,950.175 
			794.107,955.537 797.01,960.457 799.998,964.913 803.048,968.887 806.134,972.359 809.233,975.312 812.32,977.727 
			815.371,979.583 818.362,980.862 821.27,981.545 824.066,981.613 826.731,981.047 829.188,979.836 831.368,978.008 
			833.263,975.598 834.86,972.642 836.15,969.176 837.124,965.235 837.77,960.857 838.075,956.077 838.032,950.931 837.628,945.454 
			836.854,939.684 835.699,933.653 834.152,927.4 832.204,920.962 829.843,914.371 827.058,907.667 827.565,910.046 
			828.759,916.367 829.457,920.624 830.141,925.408 830.747,930.566 831.215,935.948 831.482,941.398 831.487,946.764 
			831.167,951.893 830.459,956.633 829.303,960.83 827.637,964.333 825.396,966.988 822.521,968.643 819.241,969.118 
			815.851,968.442 812.396,966.77 808.92,964.254 805.469,961.051 802.085,957.314 798.812,953.2 795.699,948.861 792.785,944.454 
			790.116,940.133 787.736,936.051 785.69,932.365 782.775,926.798 		"/>
		
			<ellipse transform="matrix(0.3241 0.946 -0.946 0.3241 1402.8959 -66.0543)" fill="#F1A620" stroke="#231F20" stroke-width="3" stroke-miterlimit="10" cx="747.675" cy="948.763" rx="57.746" ry="26.248"/>
		<polygon fill="#D58528" points="720.725,945.667 722.836,952.614 725.154,959.194 727.655,965.388 730.314,971.175 
			733.107,976.537 736.01,981.457 738.998,985.913 742.048,989.887 745.134,993.359 748.233,996.312 751.32,998.727 
			754.371,1000.583 757.362,1001.862 760.27,1002.545 763.066,1002.613 765.731,1002.047 768.188,1000.836 770.368,999.008 
			772.263,996.598 773.86,993.642 775.15,990.176 776.124,986.235 776.77,981.857 777.075,977.077 777.032,971.931 776.628,966.454 
			775.854,960.684 774.699,954.653 773.152,948.4 771.204,941.962 768.843,935.371 766.058,928.667 766.565,931.046 
			767.759,937.367 768.457,941.624 769.141,946.408 769.747,951.566 770.215,956.948 770.482,962.398 770.487,967.764 
			770.167,972.893 769.459,977.633 768.303,981.83 766.637,985.333 764.396,987.988 761.521,989.643 758.241,990.118 
			754.851,989.442 751.396,987.77 747.92,985.254 744.469,982.051 741.085,978.314 737.812,974.2 734.699,969.861 731.785,965.454 
			729.116,961.133 726.736,957.051 724.69,953.365 721.775,947.798 		"/>
		
			<ellipse transform="matrix(0.3241 0.946 -0.946 0.3241 1413.8849 -102.7991)" fill="#F1A620" stroke="#231F20" stroke-width="3" stroke-miterlimit="10" cx="778.884" cy="938.079" rx="57.744" ry="26.248"/>
		<polygon fill="#D58528" points="752.058,935 754.17,941.947 756.487,948.527 758.988,954.721 761.646,960.508 764.44,965.87 
			767.344,970.789 770.331,975.245 773.381,979.22 776.467,982.692 779.565,985.646 782.653,988.06 785.704,989.916 
			788.695,991.194 791.602,991.878 794.399,991.946 797.064,991.38 799.521,990.17 801.701,988.341 803.596,985.931 
			805.193,982.975 806.484,979.509 807.458,975.568 808.104,971.19 808.408,966.41 808.364,961.264 807.961,955.787 
			807.188,950.016 806.032,943.985 804.485,937.732 802.537,931.294 800.176,924.704 797.391,918 797.898,920.379 799.091,926.7 
			799.79,930.957 800.474,935.742 801.08,940.9 801.548,946.281 801.815,951.73 801.819,957.097 801.499,962.227 800.792,966.966 
			799.637,971.163 797.97,974.666 795.73,977.321 792.855,978.976 789.574,979.451 786.185,978.775 782.729,977.104 
			779.253,974.587 775.802,971.384 772.419,967.646 769.146,963.532 766.032,959.194 763.118,954.787 760.448,950.466 
			758.068,946.385 756.021,942.698 753.107,937.131 		"/>
		<circle fill="#231F20" cx="772.461" cy="915.079" r="7.499"/>
	</g>
	<g>
		<g>
			<polygon fill="#937945" stroke="#221F1F" stroke-width="3" stroke-miterlimit="10" points="624.164,595.304 625.548,607.951 
				624.361,619.453 620.69,629.908 614.621,639.414 606.238,648.068 595.628,655.968 582.876,663.211 568.069,669.895 
				551.292,676.118 532.632,681.977 512.174,687.569 490.002,692.993 385.913,714.951 357.2,719.472 328.821,721.427 
				300.962,721.014 273.808,718.426 247.543,713.861 222.354,707.515 198.427,699.581 175.947,690.257 155.099,679.738 
				136.069,668.221 119.043,655.899 104.206,642.97 91.743,629.629 81.84,616.071 74.684,602.493 70.458,589.09 69.573,576.702 
				72.172,565.932 78.037,556.612 86.953,548.58 98.703,541.668 113.071,535.714 129.841,530.551 148.798,526.015 169.724,521.94 
				324.538,497.939 353.199,492.473 381.412,487.694 408.378,485.008 434.043,484.287 458.353,485.4 481.249,488.222 
				502.68,492.624 522.589,498.476 540.92,505.652 557.618,514.021 572.63,523.46 585.898,533.836 597.368,545.021 606.985,556.89 
				614.693,569.312 620.438,582.16 			"/>
			<polygon opacity="0.08" fill="#604219" enable-background="new    " points="624.164,595.304 625.548,607.951 624.361,619.453 
				620.69,629.908 614.621,639.414 606.238,648.068 595.628,655.968 582.876,663.211 568.069,669.895 551.292,676.118 
				532.632,681.977 512.174,687.569 490.002,692.993 385.913,714.951 357.2,719.472 328.821,721.427 300.962,721.014 
				273.808,718.426 247.543,713.861 222.354,707.515 198.427,699.581 175.947,690.257 155.099,679.738 136.069,668.221 
				119.043,655.899 104.206,642.97 91.743,629.629 81.84,616.071 74.684,602.493 70.458,589.09 76.042,592.93 82.803,597.346 
				92.011,603.085 103.521,609.891 117.185,617.509 132.855,625.682 150.386,634.153 169.627,642.669 190.435,650.972 
				212.659,658.807 236.153,665.917 260.771,672.048 286.364,676.942 312.785,680.345 339.888,682 364.618,681.573 389.627,679.229 
				414.654,675.232 439.443,669.854 463.734,663.363 487.27,656.028 509.79,648.116 531.037,639.896 550.753,631.639 
				568.679,623.61 584.556,616.081 598.125,609.317 617.31,599.166 			"/>
			<circle fill="#221F1F" cx="542.472" cy="573.596" r="7.499"/>
		</g>
		<g opacity="0.85">
			<polygon fill="#69BD58" stroke="#221F1F" stroke-width="1.23" stroke-miterlimit="10" points="508.734,691.887 512.402,708.334 
				520.474,727.475 528.544,743.336 532.213,749.949 535.881,743.336 543.952,727.475 552.021,708.334 555.691,691.887 
				553.846,679.564 548.815,669.502 541.354,662.718 532.213,660.23 523.074,662.718 515.611,669.502 510.58,679.564 			"/>
			<circle fill="#FFFFFF" stroke="#221F1F" stroke-width="0.2401" stroke-miterlimit="10" cx="532.213" cy="668.672" r="4.221"/>
		</g>
		<g opacity="0.85">
			<polygon fill="#459481" stroke="#221F1F" stroke-width="1.23" stroke-miterlimit="10" points="464.944,691.887 468.612,708.334 
				476.684,727.475 484.754,743.336 488.423,749.949 492.091,743.336 500.162,727.475 508.232,708.334 511.901,691.887 
				510.056,679.564 505.024,669.502 497.561,662.718 488.423,660.23 479.282,662.718 471.819,669.502 466.788,679.564 			"/>
			<circle fill="#FFFFFF" stroke="#221F1F" stroke-width="0.2401" stroke-miterlimit="10" cx="488.423" cy="668.672" r="4.221"/>
		</g>
		<g opacity="0.85">
			<polygon fill="#69BD58" stroke="#221F1F" stroke-width="1.23" stroke-miterlimit="10" points="421.416,691.887 425.084,708.334 
				433.155,727.475 441.226,743.336 444.895,749.949 448.562,743.336 456.634,727.475 464.704,708.334 468.373,691.887 
				466.527,679.564 461.496,669.502 454.033,662.718 444.895,660.23 435.755,662.718 428.293,669.502 423.262,679.564 			"/>
			<circle fill="#FFFFFF" stroke="#221F1F" stroke-width="0.2401" stroke-miterlimit="10" cx="444.895" cy="668.672" r="4.221"/>
		</g>
		<g opacity="0.85">
			
				<polygon opacity="0.9" fill="#6FBF97" stroke="#221F1F" stroke-width="1.23" stroke-miterlimit="10" enable-background="new    " points="
				378.685,691.887 382.354,708.334 390.424,727.475 398.494,743.336 402.163,749.949 405.832,743.336 413.902,727.475 
				421.973,708.334 425.642,691.887 423.796,679.564 418.766,669.502 411.303,662.718 402.163,660.23 393.024,662.718 
				385.562,669.502 380.53,679.564 			"/>
			<circle fill="#FFFFFF" stroke="#221F1F" stroke-width="0.2401" stroke-miterlimit="10" cx="402.163" cy="668.672" r="4.221"/>
		</g>
		<g opacity="0.85">
			
				<polygon opacity="0.9" fill="#69BD58" stroke="#221F1F" stroke-width="1.23" stroke-miterlimit="10" enable-background="new    " points="
				335.954,691.887 339.623,708.334 347.693,727.475 355.764,743.336 359.433,749.949 363.101,743.336 371.172,727.475 
				379.243,708.334 382.911,691.887 381.066,679.564 376.035,669.502 368.572,662.718 359.433,660.23 350.294,662.718 
				342.831,669.502 337.799,679.564 			"/>
			<circle fill="#FFFFFF" stroke="#221F1F" stroke-width="0.2401" stroke-miterlimit="10" cx="359.433" cy="668.672" r="4.221"/>
		</g>
		<g opacity="0.85">
			
				<polygon opacity="0.8" fill="#6CBC59" stroke="#221F1F" stroke-width="1.23" stroke-miterlimit="10" enable-background="new    " points="
				294.183,691.887 297.853,708.334 305.922,727.475 313.993,743.336 317.663,749.949 321.33,743.336 329.401,727.475 
				337.472,708.334 341.14,691.887 339.295,679.564 334.264,669.502 326.801,662.718 317.663,660.23 308.523,662.718 
				301.06,669.502 296.028,679.564 			"/>
			<circle fill="#FFFFFF" stroke="#221F1F" stroke-width="0.2401" stroke-miterlimit="10" cx="317.662" cy="668.672" r="4.221"/>
		</g>
		<g opacity="0.85">
			<polygon fill="#69BD58" stroke="#221F1F" stroke-width="1.23" stroke-miterlimit="10" points="252.413,691.887 256.082,708.334 
				264.152,727.475 272.223,743.336 275.892,749.949 279.56,743.336 287.63,727.475 295.701,708.334 299.37,691.887 
				297.524,679.564 292.493,669.502 285.03,662.718 275.892,660.23 266.752,662.718 259.29,669.502 254.258,679.564 			"/>
			<circle fill="#FFFFFF" stroke="#221F1F" stroke-width="0.2401" stroke-miterlimit="10" cx="275.891" cy="668.672" r="4.221"/>
		</g>
		<g opacity="0.85">
			
				<polygon opacity="0.7" fill="#41833E" stroke="#221F1F" stroke-width="1.23" stroke-miterlimit="10" enable-background="new    " points="
				208.722,691.887 212.391,708.334 220.461,727.475 228.532,743.336 232.2,749.949 235.869,743.336 243.939,727.475 
				252.01,708.334 255.678,691.887 253.833,679.564 248.802,669.502 241.339,662.718 232.2,660.23 223.062,662.718 215.599,669.502 
				210.567,679.564 			"/>
			<circle fill="#FFFFFF" stroke="#221F1F" stroke-width="0.2401" stroke-miterlimit="10" cx="232.2" cy="668.672" r="4.22"/>
		</g>
		<g opacity="0.85">
			
				<polygon opacity="0.4" fill="#70A668" stroke="#221F1F" stroke-width="1.23" stroke-miterlimit="10" enable-background="new    " points="
				230.906,656.597 227.237,673.046 219.167,692.186 211.096,708.047 207.427,714.66 203.759,708.047 195.688,692.186 
				187.617,673.046 183.949,656.597 185.794,644.275 190.826,634.213 198.289,627.429 207.427,624.941 216.566,627.429 
				224.029,634.213 229.061,644.275 			"/>
			<circle fill="#FFFFFF" stroke="#221F1F" stroke-width="0.2401" stroke-miterlimit="10" cx="207.427" cy="633.383" r="4.221"/>
		</g>
		<g opacity="0.85">
			
				<polygon opacity="0.5" fill="#69BD58" stroke="#221F1F" stroke-width="1.23" stroke-miterlimit="10" enable-background="new    " points="
				273.408,656.597 269.738,673.046 261.668,692.186 253.598,708.047 249.929,714.66 246.261,708.047 238.19,692.186 
				230.119,673.046 226.451,656.597 228.295,644.275 233.327,634.213 240.79,627.429 249.929,624.941 259.067,627.429 
				266.531,634.213 271.562,644.275 			"/>
			<circle fill="#FFFFFF" stroke="#221F1F" stroke-width="0.2401" stroke-miterlimit="10" cx="249.929" cy="633.383" r="4.221"/>
		</g>
		<g opacity="0.85">
			<polygon fill="#558F4A" stroke="#221F1F" stroke-width="1.23" stroke-miterlimit="10" points="317.198,656.597 313.53,673.046 
				305.459,692.186 297.389,708.047 293.72,714.66 290.051,708.047 281.98,692.186 273.91,673.046 270.241,656.597 272.086,644.275 
				277.118,634.213 284.581,627.429 293.72,624.941 302.859,627.429 310.322,634.213 315.354,644.275 			"/>
			<circle fill="#FFFFFF" stroke="#221F1F" stroke-width="0.2401" stroke-miterlimit="10" cx="293.72" cy="633.383" r="4.22"/>
		</g>
		<g opacity="0.85">
			
				<polygon opacity="0.7" fill="#69BD58" stroke="#221F1F" stroke-width="1.23" stroke-miterlimit="10" enable-background="new    " points="
				360.727,656.597 357.058,673.046 348.987,692.186 340.916,708.047 337.248,714.66 333.579,708.047 325.508,692.186 
				317.438,673.046 313.77,656.597 315.614,644.275 320.646,634.213 328.109,627.429 337.248,624.941 346.387,627.429 
				353.85,634.213 358.881,644.275 			"/>
			<circle fill="#FFFFFF" stroke="#221F1F" stroke-width="0.2401" stroke-miterlimit="10" cx="337.248" cy="633.383" r="4.221"/>
		</g>
		<g opacity="0.85">
			<polygon fill="#70A668" stroke="#221F1F" stroke-width="1.23" stroke-miterlimit="10" points="403.457,656.597 399.788,673.046 
				391.718,692.186 383.647,708.047 379.979,714.66 376.31,708.047 368.239,692.186 360.168,673.046 356.5,656.597 358.345,644.275 
				363.376,634.213 370.839,627.429 379.979,624.941 389.118,627.429 396.581,634.213 401.612,644.275 			"/>
			<circle fill="#FFFFFF" stroke="#221F1F" stroke-width="0.2401" stroke-miterlimit="10" cx="379.978" cy="633.383" r="4.221"/>
		</g>
		<g opacity="0.85">
			<polygon fill="#69BD58" stroke="#221F1F" stroke-width="1.23" stroke-miterlimit="10" points="446.188,656.597 442.52,673.046 
				434.448,692.186 426.378,708.047 422.709,714.66 419.041,708.047 410.97,692.186 402.899,673.046 399.23,656.597 
				401.076,644.275 406.107,634.213 413.569,627.429 422.709,624.941 431.849,627.429 439.311,634.213 444.342,644.275 			"/>
			<circle fill="#FFFFFF" stroke="#221F1F" stroke-width="0.2401" stroke-miterlimit="10" cx="422.709" cy="633.383" r="4.221"/>
		</g>
		<g opacity="0.85">
			
				<polygon opacity="0.6" fill="#558F4A" stroke="#221F1F" stroke-width="1.23" stroke-miterlimit="10" enable-background="new    " points="
				487.959,656.597 484.29,673.046 476.22,692.186 468.148,708.047 464.48,714.66 460.812,708.047 452.741,692.186 444.67,673.046 
				441.002,656.597 442.847,644.275 447.877,634.213 455.34,627.429 464.48,624.941 473.618,627.429 481.082,634.213 
				486.113,644.275 			"/>
			<circle fill="#FFFFFF" stroke="#221F1F" stroke-width="0.2401" stroke-miterlimit="10" cx="464.48" cy="633.383" r="4.221"/>
		</g>
		<g opacity="0.85">
			<polygon fill="#69BD58" stroke="#221F1F" stroke-width="1.23" stroke-miterlimit="10" points="529.729,656.597 526.061,673.046 
				517.99,692.186 509.919,708.047 506.251,714.66 502.582,708.047 494.512,692.186 486.44,673.046 482.772,656.597 
				484.618,644.275 489.647,634.213 497.111,627.429 506.251,624.941 515.39,627.429 522.854,634.213 527.884,644.275 			"/>
			<circle fill="#FFFFFF" stroke="#221F1F" stroke-width="0.2401" stroke-miterlimit="10" cx="506.251" cy="633.383" r="4.221"/>
		</g>
		<g opacity="0.85">
			<polygon fill="#8BBD82" stroke="#221F1F" stroke-width="1.23" stroke-miterlimit="10" points="573.421,656.597 569.751,673.046 
				561.681,692.186 553.61,708.047 549.941,714.66 546.271,708.047 538.203,692.186 530.133,673.046 526.464,656.597 
				528.309,644.275 533.34,634.213 540.803,627.429 549.941,624.941 559.08,627.429 566.543,634.213 571.575,644.275 			"/>
			<circle fill="#FFFFFF" stroke="#221F1F" stroke-width="0.2401" stroke-miterlimit="10" cx="549.942" cy="633.383" r="4.221"/>
		</g>
		<g opacity="0.85">
			<polygon fill="#539845" stroke="#221F1F" stroke-width="1.23" stroke-miterlimit="10" points="551.236,622.181 554.904,638.628 
				562.976,657.769 571.046,673.629 574.715,680.244 578.383,673.629 586.454,657.769 594.524,638.628 598.193,622.181 
				596.348,609.858 591.316,599.796 583.854,593.012 574.715,590.524 565.575,593.012 558.113,599.796 553.082,609.858 			"/>
			<circle fill="#FFFFFF" stroke="#221F1F" stroke-width="0.2401" stroke-miterlimit="10" cx="574.715" cy="598.965" r="4.221"/>
		</g>
		<g opacity="0.85">
			<polygon fill="#539845" stroke="#221F1F" stroke-width="1.23" stroke-miterlimit="10" points="105.236,636.181 108.904,652.628 
				116.976,671.769 125.046,687.629 128.715,694.244 132.383,687.629 140.454,671.769 148.524,652.628 152.193,636.181 
				150.348,623.858 145.316,613.796 137.854,607.012 128.715,604.524 119.575,607.012 112.113,613.796 107.082,623.858 			"/>
			<circle fill="#FFFFFF" stroke="#221F1F" stroke-width="0.2401" stroke-miterlimit="10" cx="128.715" cy="612.965" r="4.221"/>
		</g>
		<g opacity="0.85">
			<polygon fill="#69BD58" stroke="#221F1F" stroke-width="1.23" stroke-miterlimit="10" points="508.734,622.181 512.402,638.628 
				520.474,657.769 528.544,673.629 532.213,680.244 535.881,673.629 543.952,657.769 552.021,638.628 555.691,622.181 
				553.846,609.858 548.815,599.796 541.354,593.012 532.213,590.524 523.074,593.012 515.611,599.796 510.58,609.858 			"/>
			<circle fill="#FFFFFF" stroke="#221F1F" stroke-width="0.2401" stroke-miterlimit="10" cx="532.213" cy="598.965" r="4.221"/>
		</g>
		<g opacity="0.85">
			<polygon fill="#539845" stroke="#221F1F" stroke-width="1.23" stroke-miterlimit="10" points="464.944,622.181 468.612,638.628 
				476.684,657.769 484.754,673.629 488.423,680.244 492.091,673.629 500.162,657.769 508.232,638.628 511.901,622.181 
				510.056,609.858 505.024,599.796 497.561,593.012 488.423,590.524 479.282,593.012 471.819,599.796 466.788,609.858 			"/>
			<circle fill="#FFFFFF" stroke="#221F1F" stroke-width="0.2401" stroke-miterlimit="10" cx="488.423" cy="598.965" r="4.221"/>
		</g>
		<g opacity="0.85">
			<polygon fill="#69BD58" stroke="#221F1F" stroke-width="1.23" stroke-miterlimit="10" points="421.416,612.181 425.084,628.628 
				433.155,647.769 441.226,663.629 444.895,670.244 448.562,663.629 456.634,647.769 464.704,628.628 468.373,612.181 
				466.527,599.858 461.496,589.796 454.033,583.012 444.895,580.524 435.755,583.012 428.293,589.796 423.262,599.858 			"/>
			<circle fill="#FFFFFF" stroke="#221F1F" stroke-width="0.2401" stroke-miterlimit="10" cx="444.895" cy="588.965" r="4.221"/>
		</g>
		<g opacity="0.85">
			<polygon fill="#7FC371" stroke="#221F1F" stroke-width="1.23" stroke-miterlimit="10" points="378.685,602.181 382.354,618.628 
				390.424,637.769 398.494,653.629 402.163,660.244 405.832,653.629 413.902,637.769 421.973,618.628 425.642,602.181 
				423.796,589.858 418.766,579.796 411.303,573.012 402.163,570.524 393.024,573.012 385.562,579.796 380.53,589.858 			"/>
			<circle fill="#FFFFFF" stroke="#221F1F" stroke-width="0.2401" stroke-miterlimit="10" cx="402.163" cy="578.965" r="4.221"/>
		</g>
		<g opacity="0.85">
			<polygon fill="#69BD58" stroke="#221F1F" stroke-width="1.23" stroke-miterlimit="10" points="335.954,612.181 339.623,628.628 
				347.693,647.769 355.764,663.629 359.433,670.244 363.101,663.629 371.172,647.769 379.243,628.628 382.911,612.181 
				381.066,599.858 376.035,589.796 368.572,583.012 359.433,580.524 350.294,583.012 342.831,589.796 337.799,599.858 			"/>
			<circle fill="#FFFFFF" stroke="#221F1F" stroke-width="0.2401" stroke-miterlimit="10" cx="359.433" cy="588.965" r="4.221"/>
		</g>
		<g opacity="0.85">
			
				<polygon opacity="0.4" fill="#6D9C64" stroke="#221F1F" stroke-width="1.23" stroke-miterlimit="10" enable-background="new    " points="
				294.183,612.181 297.853,628.628 305.922,647.769 313.993,663.629 317.663,670.244 321.33,663.629 329.401,647.769 
				337.472,628.628 341.14,612.181 339.295,599.858 334.264,589.796 326.801,583.012 317.663,580.524 308.523,583.012 
				301.06,589.796 296.028,599.858 			"/>
			<circle fill="#FFFFFF" stroke="#221F1F" stroke-width="0.2401" stroke-miterlimit="10" cx="317.662" cy="588.965" r="4.221"/>
		</g>
		<g opacity="0.85">
			<polygon fill="#69BD58" stroke="#221F1F" stroke-width="1.23" stroke-miterlimit="10" points="252.413,612.181 256.082,628.628 
				264.152,647.769 272.223,663.629 275.892,670.244 279.56,663.629 287.63,647.769 295.701,628.628 299.37,612.181 
				297.524,599.858 292.493,589.796 285.03,583.012 275.892,580.524 266.752,583.012 259.29,589.796 254.258,599.858 			"/>
			<circle fill="#FFFFFF" stroke="#221F1F" stroke-width="0.2401" stroke-miterlimit="10" cx="275.891" cy="588.965" r="4.221"/>
		</g>
		<g opacity="0.85">
			
				<polygon opacity="0.5" fill="#539845" stroke="#221F1F" stroke-width="1.23" stroke-miterlimit="10" enable-background="new    " points="
				208.722,622.181 212.391,638.628 220.461,657.769 228.532,673.629 232.2,680.244 235.869,673.629 243.939,657.769 
				252.01,638.628 255.678,622.181 253.833,609.858 248.802,599.796 241.339,593.012 232.2,590.524 223.062,593.012 
				215.599,599.796 210.567,609.858 			"/>
			<circle fill="#FFFFFF" stroke="#221F1F" stroke-width="0.2401" stroke-miterlimit="10" cx="232.2" cy="598.965" r="4.22"/>
		</g>
		<g opacity="0.85">
			
				<polygon opacity="0.8" fill="#70A668" stroke="#221F1F" stroke-width="1.23" stroke-miterlimit="10" enable-background="new    " points="
				230.906,576.892 227.237,593.339 219.167,612.479 211.096,628.34 207.427,634.955 203.759,628.34 195.688,612.479 
				187.617,593.339 183.949,576.892 185.794,564.569 190.826,554.507 198.289,547.723 207.427,545.235 216.566,547.723 
				224.029,554.507 229.061,564.569 			"/>
			<circle fill="#FFFFFF" stroke="#221F1F" stroke-width="0.2401" stroke-miterlimit="10" cx="207.427" cy="553.677" r="4.221"/>
		</g>
		<g opacity="0.85">
			<polygon fill="#69BD58" stroke="#221F1F" stroke-width="1.23" stroke-miterlimit="10" points="273.408,566.892 269.738,583.339 
				261.668,602.479 253.598,618.34 249.929,624.955 246.261,618.34 238.19,602.479 230.119,583.339 226.451,566.892 
				228.295,554.569 233.327,544.507 240.79,537.723 249.929,535.235 259.067,537.723 266.531,544.507 271.562,554.569 			"/>
			<circle fill="#FFFFFF" stroke="#221F1F" stroke-width="0.2401" stroke-miterlimit="10" cx="249.929" cy="543.677" r="4.221"/>
		</g>
		<g opacity="0.85">
			<polygon fill="#558F4A" stroke="#221F1F" stroke-width="1.23" stroke-miterlimit="10" points="317.198,566.892 313.53,583.339 
				305.459,602.479 297.389,618.34 293.72,624.955 290.051,618.34 281.98,602.479 273.91,583.339 270.241,566.892 272.086,554.569 
				277.118,544.507 284.581,537.723 293.72,535.235 302.859,537.723 310.322,544.507 315.354,554.569 			"/>
			<circle fill="#FFFFFF" stroke="#221F1F" stroke-width="0.2401" stroke-miterlimit="10" cx="293.72" cy="543.677" r="4.22"/>
		</g>
		<g opacity="0.85">
			<polygon fill="#558F4A" stroke="#221F1F" stroke-width="1.23" stroke-miterlimit="10" points="199.366,610.797 195.698,627.245 
				187.627,646.385 179.557,662.246 175.888,668.86 172.219,662.246 164.148,646.385 156.078,627.245 152.409,610.797 
				154.254,598.475 159.286,588.413 166.749,581.628 175.888,579.141 185.027,581.628 192.49,588.413 197.521,598.475 			"/>
			<circle fill="#FFFFFF" stroke="#221F1F" stroke-width="0.2401" stroke-miterlimit="10" cx="175.888" cy="587.582" r="4.22"/>
		</g>
		<g opacity="0.85">
			<polygon fill="#69BD58" stroke="#221F1F" stroke-width="1.23" stroke-miterlimit="10" points="360.727,566.892 357.058,583.339 
				348.987,602.479 340.916,618.34 337.248,624.955 333.579,618.34 325.508,602.479 317.438,583.339 313.77,566.892 
				315.614,554.569 320.646,544.507 328.109,537.723 337.248,535.235 346.387,537.723 353.85,544.507 358.881,554.569 			"/>
			<circle fill="#FFFFFF" stroke="#221F1F" stroke-width="0.2401" stroke-miterlimit="10" cx="337.248" cy="543.677" r="4.221"/>
		</g>
		<g opacity="0.85">
			
				<polygon opacity="0.3" fill="#70A668" stroke="#221F1F" stroke-width="1.23" stroke-miterlimit="10" enable-background="new    " points="
				403.457,556.892 399.788,573.339 391.718,592.479 383.647,608.34 379.979,614.955 376.31,608.34 368.239,592.479 
				360.168,573.339 356.5,556.892 358.345,544.569 363.376,534.507 370.839,527.723 379.979,525.235 389.118,527.723 
				396.581,534.507 401.612,544.569 			"/>
			<circle fill="#FFFFFF" stroke="#221F1F" stroke-width="0.2401" stroke-miterlimit="10" cx="379.978" cy="533.677" r="4.221"/>
		</g>
		<g opacity="0.85">
			<polygon fill="#69BD58" stroke="#221F1F" stroke-width="1.23" stroke-miterlimit="10" points="446.188,556.892 442.52,573.339 
				434.448,592.479 426.378,608.34 422.709,614.955 419.041,608.34 410.97,592.479 402.899,573.339 399.23,556.892 401.076,544.569 
				406.107,534.507 413.569,527.723 422.709,525.235 431.849,527.723 439.311,534.507 444.342,544.569 			"/>
			<circle fill="#FFFFFF" stroke="#221F1F" stroke-width="0.2401" stroke-miterlimit="10" cx="422.709" cy="533.677" r="4.221"/>
		</g>
		<g opacity="0.85">
			<polygon fill="#69BD58" stroke="#221F1F" stroke-width="1.23" stroke-miterlimit="10" points="188.31,664.096 184.642,680.543 
				176.57,699.684 168.5,715.545 164.831,722.158 161.163,715.545 153.092,699.684 145.021,680.543 141.353,664.096 
				143.198,651.773 148.229,641.711 155.691,634.927 164.831,632.439 173.971,634.927 181.433,641.711 186.464,651.773 			"/>
			<circle fill="#FFFFFF" stroke="#221F1F" stroke-width="0.2401" stroke-miterlimit="10" cx="164.831" cy="640.881" r="4.221"/>
		</g>
		<g opacity="0.85">
			<polygon fill="#558F4A" stroke="#221F1F" stroke-width="1.23" stroke-miterlimit="10" points="487.959,556.892 484.29,573.339 
				476.22,592.479 468.148,608.34 464.48,614.955 460.812,608.34 452.741,592.479 444.67,573.339 441.002,556.892 442.847,544.569 
				447.877,534.507 455.34,527.723 464.48,525.235 473.618,527.723 481.082,534.507 486.113,544.569 			"/>
			<circle fill="#FFFFFF" stroke="#221F1F" stroke-width="0.2401" stroke-miterlimit="10" cx="464.48" cy="533.677" r="4.221"/>
		</g>
		<g opacity="0.85">
			
				<polygon opacity="0.6" fill="#69BD58" stroke="#221F1F" stroke-width="1.23" stroke-miterlimit="10" enable-background="new    " points="
				529.729,566.892 526.061,583.339 517.99,602.479 509.919,618.34 506.251,624.955 502.582,618.34 494.512,602.479 486.44,583.339 
				482.772,566.892 484.618,554.569 489.647,544.507 497.111,537.723 506.251,535.235 515.39,537.723 522.854,544.507 
				527.884,554.569 			"/>
			<circle fill="#FFFFFF" stroke="#221F1F" stroke-width="0.2401" stroke-miterlimit="10" cx="506.251" cy="543.677" r="4.221"/>
		</g>
		<g opacity="0.85">
			
				<polygon opacity="0.3" fill="#8BBD82" stroke="#221F1F" stroke-width="1.23" stroke-miterlimit="10" enable-background="new    " points="
				573.421,576.892 569.751,593.339 561.681,612.479 553.61,628.34 549.941,634.955 546.271,628.34 538.203,612.479 
				530.133,593.339 526.464,576.892 528.309,564.569 533.34,554.507 540.803,547.723 549.941,545.235 559.08,547.723 
				566.543,554.507 571.575,564.569 			"/>
			<circle fill="#FFFFFF" stroke="#221F1F" stroke-width="0.2401" stroke-miterlimit="10" cx="549.942" cy="553.677" r="4.221"/>
		</g>
	</g>
	<g>
		<g>
			<polygon fill="#937945" stroke="#221F1F" stroke-width="3" stroke-miterlimit="10" points="728.651,582.16 734.396,569.312 
				742.104,556.89 751.721,545.021 763.19,533.836 776.459,523.46 791.471,514.021 808.169,505.652 826.5,498.476 846.409,492.624 
				867.84,488.222 890.736,485.4 915.046,484.287 940.711,485.008 967.677,487.694 995.89,492.473 1024.551,497.939 
				1179.365,521.94 1200.291,526.015 1219.248,530.551 1236.018,535.714 1250.386,541.668 1262.136,548.58 1271.052,556.612 
				1276.917,565.932 1279.516,576.702 1278.631,589.09 1274.404,602.493 1267.249,616.071 1257.346,629.629 1244.883,642.97 
				1230.046,655.899 1213.02,668.221 1193.99,679.738 1173.143,690.257 1150.662,699.581 1126.734,707.515 1101.546,713.861 
				1075.281,718.426 1048.127,721.014 1020.268,721.427 991.889,719.472 963.176,714.951 859.087,692.993 836.915,687.569 
				816.457,681.977 797.797,676.118 781.02,669.895 766.213,663.211 753.461,655.968 742.851,648.068 734.468,639.414 
				728.398,629.908 724.728,619.453 723.541,607.951 724.925,595.304 			"/>
			<polygon opacity="0.08" fill="#604219" enable-background="new    " points="731.779,599.166 750.964,609.317 764.533,616.081 
				780.41,623.61 798.336,631.639 818.052,639.896 839.299,648.116 861.819,656.028 885.354,663.363 909.646,669.854 
				934.435,675.232 959.462,679.229 984.471,681.573 1009.201,682 1036.304,680.345 1062.725,676.942 1088.318,672.048 
				1112.936,665.917 1136.43,658.807 1158.654,650.972 1179.462,642.669 1198.703,634.153 1216.234,625.682 1231.904,617.509 
				1245.568,609.891 1257.078,603.085 1266.285,597.346 1273.047,592.93 1278.631,589.09 1274.404,602.493 1267.249,616.071 
				1257.346,629.629 1244.883,642.97 1230.046,655.899 1213.02,668.221 1193.99,679.738 1173.143,690.257 1150.662,699.581 
				1126.734,707.515 1101.546,713.861 1075.281,718.426 1048.127,721.014 1020.268,721.427 991.889,719.472 963.176,714.951 
				859.087,692.993 836.915,687.569 816.457,681.977 797.797,676.118 781.02,669.895 766.213,663.211 753.461,655.968 
				742.851,648.068 734.468,639.414 728.398,629.908 724.728,619.453 723.541,607.951 724.925,595.304 			"/>
			<circle fill="#221F1F" cx="806.617" cy="573.596" r="7.499"/>
		</g>
		<g opacity="0.85">
			<polygon fill="#69BD58" stroke="#221F1F" stroke-width="1.23" stroke-miterlimit="10" points="838.509,679.564 833.478,669.502 
				826.015,662.718 816.876,660.23 807.735,662.718 800.273,669.502 795.243,679.564 793.397,691.887 797.067,708.334 
				805.137,727.475 813.208,743.336 816.876,749.949 820.545,743.336 828.615,727.475 836.687,708.334 840.354,691.887 			"/>
			<circle fill="#FFFFFF" stroke="#221F1F" stroke-width="0.2401" stroke-miterlimit="10" cx="816.876" cy="668.672" r="4.221"/>
		</g>
		<g opacity="0.85">
			<polygon fill="#459481" stroke="#221F1F" stroke-width="1.23" stroke-miterlimit="10" points="882.301,679.564 877.27,669.502 
				869.807,662.718 860.666,660.23 851.528,662.718 844.064,669.502 839.033,679.564 837.188,691.887 840.856,708.334 
				848.927,727.475 856.998,743.336 860.666,749.949 864.335,743.336 872.405,727.475 880.477,708.334 884.145,691.887 			"/>
			<circle fill="#FFFFFF" stroke="#221F1F" stroke-width="0.2401" stroke-miterlimit="10" cx="860.666" cy="668.672" r="4.221"/>
		</g>
		<g opacity="0.85">
			<polygon fill="#69BD58" stroke="#221F1F" stroke-width="1.23" stroke-miterlimit="10" points="925.827,679.564 920.796,669.502 
				913.334,662.718 904.194,660.23 895.056,662.718 887.593,669.502 882.562,679.564 880.716,691.887 884.385,708.334 
				892.455,727.475 900.526,743.336 904.194,749.949 907.863,743.336 915.934,727.475 924.005,708.334 927.673,691.887 			"/>
			<circle fill="#FFFFFF" stroke="#221F1F" stroke-width="0.2401" stroke-miterlimit="10" cx="904.194" cy="668.672" r="4.221"/>
		</g>
		<g opacity="0.85">
			
				<polygon opacity="0.9" fill="#6FBF97" stroke="#221F1F" stroke-width="1.23" stroke-miterlimit="10" enable-background="new    " points="
				968.559,679.564 963.526,669.502 956.064,662.718 946.926,660.23 937.786,662.718 930.323,669.502 925.293,679.564 
				923.447,691.887 927.116,708.334 935.187,727.475 943.257,743.336 946.926,749.949 950.595,743.336 958.665,727.475 
				966.735,708.334 970.404,691.887 			"/>
			<circle fill="#FFFFFF" stroke="#221F1F" stroke-width="0.2401" stroke-miterlimit="10" cx="946.926" cy="668.672" r="4.221"/>
		</g>
		<g opacity="0.85">
			
				<polygon opacity="0.9" fill="#69BD58" stroke="#221F1F" stroke-width="1.23" stroke-miterlimit="10" enable-background="new    " points="
				1011.29,679.564 1006.258,669.502 998.795,662.718 989.656,660.23 980.517,662.718 973.054,669.502 968.022,679.564 
				966.178,691.887 969.846,708.334 977.917,727.475 985.988,743.336 989.656,749.949 993.325,743.336 1001.396,727.475 
				1009.466,708.334 1013.135,691.887 			"/>
			<circle fill="#FFFFFF" stroke="#221F1F" stroke-width="0.2401" stroke-miterlimit="10" cx="989.656" cy="668.672" r="4.221"/>
		</g>
		<g opacity="0.85">
			
				<polygon opacity="0.8" fill="#6CBC59" stroke="#221F1F" stroke-width="1.23" stroke-miterlimit="10" enable-background="new    " points="
				1053.061,679.564 1048.029,669.502 1040.565,662.718 1031.426,660.23 1022.288,662.718 1014.825,669.502 1009.794,679.564 
				1007.949,691.887 1011.617,708.334 1019.688,727.475 1027.759,743.336 1031.426,749.949 1035.096,743.336 1043.167,727.475 
				1051.236,708.334 1054.906,691.887 			"/>
			<circle fill="#FFFFFF" stroke="#221F1F" stroke-width="0.2401" stroke-miterlimit="10" cx="1031.427" cy="668.672" r="4.221"/>
		</g>
		<g opacity="0.85">
			<polygon fill="#69BD58" stroke="#221F1F" stroke-width="1.23" stroke-miterlimit="10" points="1094.831,679.564 
				1089.799,669.502 1082.337,662.718 1073.197,660.23 1064.059,662.718 1056.596,669.502 1051.564,679.564 1049.719,691.887 
				1053.388,708.334 1061.459,727.475 1069.529,743.336 1073.197,749.949 1076.865,743.336 1084.938,727.475 1093.007,708.334 
				1096.676,691.887 			"/>
			<circle fill="#FFFFFF" stroke="#221F1F" stroke-width="0.2401" stroke-miterlimit="10" cx="1073.198" cy="668.672" r="4.221"/>
		</g>
		<g opacity="0.85">
			
				<polygon opacity="0.7" fill="#41833E" stroke="#221F1F" stroke-width="1.23" stroke-miterlimit="10" enable-background="new    " points="
				1138.521,679.564 1133.49,669.502 1126.027,662.718 1116.889,660.23 1107.75,662.718 1100.287,669.502 1095.256,679.564 
				1093.41,691.887 1097.079,708.334 1105.15,727.475 1113.22,743.336 1116.889,749.949 1120.557,743.336 1128.628,727.475 
				1136.697,708.334 1140.367,691.887 			"/>
			<circle fill="#FFFFFF" stroke="#221F1F" stroke-width="0.2401" stroke-miterlimit="10" cx="1116.889" cy="668.672" r="4.22"/>
		</g>
		<g opacity="0.85">
			
				<polygon opacity="0.4" fill="#70A668" stroke="#221F1F" stroke-width="1.23" stroke-miterlimit="10" enable-background="new    " points="
				1120.027,644.275 1125.061,634.213 1132.523,627.429 1141.662,624.941 1150.8,627.429 1158.263,634.213 1163.295,644.275 
				1165.14,656.597 1161.472,673.046 1153.4,692.186 1145.33,708.047 1141.662,714.66 1137.992,708.047 1129.922,692.186 
				1121.852,673.046 1118.183,656.597 			"/>
			<circle fill="#FFFFFF" stroke="#221F1F" stroke-width="0.2401" stroke-miterlimit="10" cx="1141.662" cy="633.383" r="4.221"/>
		</g>
		<g opacity="0.85">
			
				<polygon opacity="0.5" fill="#69BD58" stroke="#221F1F" stroke-width="1.23" stroke-miterlimit="10" enable-background="new    " points="
				1077.527,644.275 1082.558,634.213 1090.021,627.429 1099.16,624.941 1108.299,627.429 1115.762,634.213 1120.794,644.275 
				1122.638,656.597 1118.97,673.046 1110.898,692.186 1102.828,708.047 1099.16,714.66 1095.49,708.047 1087.421,692.186 
				1079.352,673.046 1075.681,656.597 			"/>
			<circle fill="#FFFFFF" stroke="#221F1F" stroke-width="0.2401" stroke-miterlimit="10" cx="1099.16" cy="633.383" r="4.221"/>
		</g>
		<g opacity="0.85">
			<polygon fill="#558F4A" stroke="#221F1F" stroke-width="1.23" stroke-miterlimit="10" points="1033.735,644.275 
				1038.767,634.213 1046.23,627.429 1055.369,624.941 1064.508,627.429 1071.971,634.213 1077.003,644.275 1078.848,656.597 
				1075.179,673.046 1067.109,692.186 1059.038,708.047 1055.369,714.66 1051.699,708.047 1043.63,692.186 1035.559,673.046 
				1031.891,656.597 			"/>
			<circle fill="#FFFFFF" stroke="#221F1F" stroke-width="0.2401" stroke-miterlimit="10" cx="1055.369" cy="633.383" r="4.22"/>
		</g>
		<g opacity="0.85">
			
				<polygon opacity="0.7" fill="#69BD58" stroke="#221F1F" stroke-width="1.23" stroke-miterlimit="10" enable-background="new    " points="
				990.208,644.275 995.239,634.213 1002.702,627.429 1011.841,624.941 1020.979,627.429 1028.442,634.213 1033.475,644.275 
				1035.319,656.597 1031.651,673.046 1023.581,692.186 1015.51,708.047 1011.841,714.66 1008.173,708.047 1000.102,692.186 
				992.031,673.046 988.362,656.597 			"/>
			<circle fill="#FFFFFF" stroke="#221F1F" stroke-width="0.2401" stroke-miterlimit="10" cx="1011.841" cy="633.383" r="4.221"/>
		</g>
		<g opacity="0.85">
			<polygon fill="#70A668" stroke="#221F1F" stroke-width="1.23" stroke-miterlimit="10" points="947.477,644.275 952.508,634.213 
				959.971,627.429 969.11,624.941 978.25,627.429 985.713,634.213 990.744,644.275 992.589,656.597 988.921,673.046 
				980.85,692.186 972.779,708.047 969.11,714.66 965.441,708.047 957.371,692.186 949.301,673.046 945.632,656.597 			"/>
			<circle fill="#FFFFFF" stroke="#221F1F" stroke-width="0.2401" stroke-miterlimit="10" cx="969.111" cy="633.383" r="4.221"/>
		</g>
		<g opacity="0.85">
			<polygon fill="#69BD58" stroke="#221F1F" stroke-width="1.23" stroke-miterlimit="10" points="904.747,644.275 909.778,634.213 
				917.24,627.429 926.38,624.941 935.52,627.429 942.981,634.213 948.013,644.275 949.858,656.597 946.189,673.046 
				938.119,692.186 930.048,708.047 926.38,714.66 922.711,708.047 914.641,692.186 906.569,673.046 902.901,656.597 			"/>
			<circle fill="#FFFFFF" stroke="#221F1F" stroke-width="0.2401" stroke-miterlimit="10" cx="926.38" cy="633.383" r="4.221"/>
		</g>
		<g opacity="0.85">
			
				<polygon opacity="0.6" fill="#558F4A" stroke="#221F1F" stroke-width="1.23" stroke-miterlimit="10" enable-background="new    " points="
				862.976,644.275 868.007,634.213 875.471,627.429 884.608,624.941 893.749,627.429 901.212,634.213 906.242,644.275 
				908.087,656.597 904.419,673.046 896.348,692.186 888.276,708.047 884.608,714.66 880.94,708.047 872.869,692.186 
				864.799,673.046 861.13,656.597 			"/>
			<circle fill="#FFFFFF" stroke="#221F1F" stroke-width="0.2401" stroke-miterlimit="10" cx="884.609" cy="633.383" r="4.221"/>
		</g>
		<g opacity="0.85">
			<polygon fill="#69BD58" stroke="#221F1F" stroke-width="1.23" stroke-miterlimit="10" points="821.205,644.275 826.235,634.213 
				833.699,627.429 842.838,624.941 851.978,627.429 859.441,634.213 864.471,644.275 866.316,656.597 862.648,673.046 
				854.577,692.186 846.507,708.047 842.838,714.66 839.17,708.047 831.099,692.186 823.028,673.046 819.36,656.597 			"/>
			<circle fill="#FFFFFF" stroke="#221F1F" stroke-width="0.2401" stroke-miterlimit="10" cx="842.838" cy="633.383" r="4.221"/>
		</g>
		<g opacity="0.85">
			<polygon fill="#8BBD82" stroke="#221F1F" stroke-width="1.23" stroke-miterlimit="10" points="777.514,644.275 782.546,634.213 
				790.009,627.429 799.147,624.941 808.286,627.429 815.749,634.213 820.78,644.275 822.625,656.597 818.956,673.046 
				810.886,692.186 802.817,708.047 799.147,714.66 795.479,708.047 787.408,692.186 779.338,673.046 775.668,656.597 			"/>
			<circle fill="#FFFFFF" stroke="#221F1F" stroke-width="0.2401" stroke-miterlimit="10" cx="799.147" cy="633.383" r="4.221"/>
		</g>
		<g opacity="0.85">
			<polygon fill="#539845" stroke="#221F1F" stroke-width="1.23" stroke-miterlimit="10" points="796.007,609.858 790.976,599.796 
				783.514,593.012 774.374,590.524 765.235,593.012 757.772,599.796 752.741,609.858 750.896,622.181 754.564,638.628 
				762.635,657.769 770.706,673.629 774.374,680.244 778.043,673.629 786.113,657.769 794.185,638.628 797.853,622.181 			"/>
			<circle fill="#FFFFFF" stroke="#221F1F" stroke-width="0.2401" stroke-miterlimit="10" cx="774.374" cy="598.965" r="4.221"/>
		</g>
		<g opacity="0.85">
			<polygon fill="#539845" stroke="#221F1F" stroke-width="1.23" stroke-miterlimit="10" points="1242.007,623.858 
				1236.977,613.796 1229.514,607.012 1220.374,604.524 1211.234,607.012 1203.773,613.796 1198.74,623.858 1196.896,636.181 
				1200.564,652.628 1208.635,671.769 1216.706,687.629 1220.374,694.244 1224.043,687.629 1232.113,671.769 1240.186,652.628 
				1243.854,636.181 			"/>
			<circle fill="#FFFFFF" stroke="#221F1F" stroke-width="0.2401" stroke-miterlimit="10" cx="1220.374" cy="612.965" r="4.221"/>
		</g>
		<g opacity="0.85">
			<polygon fill="#69BD58" stroke="#221F1F" stroke-width="1.23" stroke-miterlimit="10" points="838.509,609.858 833.478,599.796 
				826.015,593.012 816.876,590.524 807.735,593.012 800.273,599.796 795.243,609.858 793.397,622.181 797.067,638.628 
				805.137,657.769 813.208,673.629 816.876,680.244 820.545,673.629 828.615,657.769 836.687,638.628 840.354,622.181 			"/>
			<circle fill="#FFFFFF" stroke="#221F1F" stroke-width="0.2401" stroke-miterlimit="10" cx="816.876" cy="598.965" r="4.221"/>
		</g>
		<g opacity="0.85">
			<polygon fill="#539845" stroke="#221F1F" stroke-width="1.23" stroke-miterlimit="10" points="882.301,609.858 877.27,599.796 
				869.807,593.012 860.666,590.524 851.528,593.012 844.064,599.796 839.033,609.858 837.188,622.181 840.856,638.628 
				848.927,657.769 856.998,673.629 860.666,680.244 864.335,673.629 872.405,657.769 880.477,638.628 884.145,622.181 			"/>
			<circle fill="#FFFFFF" stroke="#221F1F" stroke-width="0.2401" stroke-miterlimit="10" cx="860.666" cy="598.965" r="4.221"/>
		</g>
		<g opacity="0.85">
			<polygon fill="#69BD58" stroke="#221F1F" stroke-width="1.23" stroke-miterlimit="10" points="925.827,599.858 920.796,589.796 
				913.334,583.012 904.194,580.524 895.056,583.012 887.593,589.796 882.562,599.858 880.716,612.181 884.385,628.628 
				892.455,647.769 900.526,663.629 904.194,670.244 907.863,663.629 915.934,647.769 924.005,628.628 927.673,612.181 			"/>
			<circle fill="#FFFFFF" stroke="#221F1F" stroke-width="0.2401" stroke-miterlimit="10" cx="904.194" cy="588.965" r="4.221"/>
		</g>
		<g opacity="0.85">
			<polygon fill="#7FC371" stroke="#221F1F" stroke-width="1.23" stroke-miterlimit="10" points="968.559,589.858 963.526,579.796 
				956.064,573.012 946.926,570.524 937.786,573.012 930.323,579.796 925.293,589.858 923.447,602.181 927.116,618.628 
				935.187,637.769 943.257,653.629 946.926,660.244 950.595,653.629 958.665,637.769 966.735,618.628 970.404,602.181 			"/>
			<circle fill="#FFFFFF" stroke="#221F1F" stroke-width="0.2401" stroke-miterlimit="10" cx="946.926" cy="578.965" r="4.221"/>
		</g>
		<g opacity="0.85">
			<polygon fill="#69BD58" stroke="#221F1F" stroke-width="1.23" stroke-miterlimit="10" points="1011.29,599.858 1006.258,589.796 
				998.795,583.012 989.656,580.524 980.517,583.012 973.054,589.796 968.022,599.858 966.178,612.181 969.846,628.628 
				977.917,647.769 985.988,663.629 989.656,670.244 993.325,663.629 1001.396,647.769 1009.466,628.628 1013.135,612.181 			"/>
			<circle fill="#FFFFFF" stroke="#221F1F" stroke-width="0.2401" stroke-miterlimit="10" cx="989.656" cy="588.965" r="4.221"/>
		</g>
		<g opacity="0.85">
			
				<polygon opacity="0.4" fill="#6D9C64" stroke="#221F1F" stroke-width="1.23" stroke-miterlimit="10" enable-background="new    " points="
				1053.061,599.858 1048.029,589.796 1040.565,583.012 1031.426,580.524 1022.288,583.012 1014.825,589.796 1009.794,599.858 
				1007.949,612.181 1011.617,628.628 1019.688,647.769 1027.759,663.629 1031.426,670.244 1035.096,663.629 1043.167,647.769 
				1051.236,628.628 1054.906,612.181 			"/>
			<circle fill="#FFFFFF" stroke="#221F1F" stroke-width="0.2401" stroke-miterlimit="10" cx="1031.427" cy="588.965" r="4.221"/>
		</g>
		<g opacity="0.85">
			<polygon fill="#69BD58" stroke="#221F1F" stroke-width="1.23" stroke-miterlimit="10" points="1094.831,599.858 
				1089.799,589.796 1082.337,583.012 1073.197,580.524 1064.059,583.012 1056.596,589.796 1051.564,599.858 1049.719,612.181 
				1053.388,628.628 1061.459,647.769 1069.529,663.629 1073.197,670.244 1076.865,663.629 1084.938,647.769 1093.007,628.628 
				1096.676,612.181 			"/>
			<circle fill="#FFFFFF" stroke="#221F1F" stroke-width="0.2401" stroke-miterlimit="10" cx="1073.198" cy="588.965" r="4.221"/>
		</g>
		<g opacity="0.85">
			
				<polygon opacity="0.5" fill="#539845" stroke="#221F1F" stroke-width="1.23" stroke-miterlimit="10" enable-background="new    " points="
				1138.521,609.858 1133.49,599.796 1126.027,593.012 1116.889,590.524 1107.75,593.012 1100.287,599.796 1095.256,609.858 
				1093.41,622.181 1097.079,638.628 1105.15,657.769 1113.22,673.629 1116.889,680.244 1120.557,673.629 1128.628,657.769 
				1136.697,638.628 1140.367,622.181 			"/>
			<circle fill="#FFFFFF" stroke="#221F1F" stroke-width="0.2401" stroke-miterlimit="10" cx="1116.889" cy="598.965" r="4.22"/>
		</g>
		<g opacity="0.85">
			
				<polygon opacity="0.8" fill="#70A668" stroke="#221F1F" stroke-width="1.23" stroke-miterlimit="10" enable-background="new    " points="
				1120.027,564.569 1125.061,554.507 1132.523,547.723 1141.662,545.235 1150.8,547.723 1158.263,554.507 1163.295,564.569 
				1165.14,576.892 1161.472,593.339 1153.4,612.479 1145.33,628.34 1141.662,634.955 1137.992,628.34 1129.922,612.479 
				1121.852,593.339 1118.183,576.892 			"/>
			<circle fill="#FFFFFF" stroke="#221F1F" stroke-width="0.2401" stroke-miterlimit="10" cx="1141.662" cy="553.677" r="4.221"/>
		</g>
		<g opacity="0.85">
			<polygon fill="#69BD58" stroke="#221F1F" stroke-width="1.23" stroke-miterlimit="10" points="1077.527,554.569 
				1082.558,544.507 1090.021,537.723 1099.16,535.235 1108.299,537.723 1115.762,544.507 1120.794,554.569 1122.638,566.892 
				1118.97,583.339 1110.898,602.479 1102.828,618.34 1099.16,624.955 1095.49,618.34 1087.421,602.479 1079.352,583.339 
				1075.681,566.892 			"/>
			<circle fill="#FFFFFF" stroke="#221F1F" stroke-width="0.2401" stroke-miterlimit="10" cx="1099.16" cy="543.677" r="4.221"/>
		</g>
		<g opacity="0.85">
			<polygon fill="#558F4A" stroke="#221F1F" stroke-width="1.23" stroke-miterlimit="10" points="1033.735,554.569 
				1038.767,544.507 1046.23,537.723 1055.369,535.235 1064.508,537.723 1071.971,544.507 1077.003,554.569 1078.848,566.892 
				1075.179,583.339 1067.109,602.479 1059.038,618.34 1055.369,624.955 1051.699,618.34 1043.63,602.479 1035.559,583.339 
				1031.891,566.892 			"/>
			<circle fill="#FFFFFF" stroke="#221F1F" stroke-width="0.2401" stroke-miterlimit="10" cx="1055.369" cy="543.677" r="4.22"/>
		</g>
		<g opacity="0.85">
			<polygon fill="#558F4A" stroke="#221F1F" stroke-width="1.23" stroke-miterlimit="10" points="1151.568,598.475 
				1156.599,588.413 1164.062,581.628 1173.201,579.141 1182.34,581.628 1189.803,588.413 1194.835,598.475 1196.68,610.797 
				1193.011,627.245 1184.941,646.385 1176.87,662.246 1173.201,668.86 1169.531,662.246 1161.462,646.385 1153.391,627.245 
				1149.723,610.797 			"/>
			<circle fill="#FFFFFF" stroke="#221F1F" stroke-width="0.2401" stroke-miterlimit="10" cx="1173.201" cy="587.582" r="4.22"/>
		</g>
		<g opacity="0.85">
			<polygon fill="#69BD58" stroke="#221F1F" stroke-width="1.23" stroke-miterlimit="10" points="990.208,554.569 995.239,544.507 
				1002.702,537.723 1011.841,535.235 1020.979,537.723 1028.442,544.507 1033.475,554.569 1035.319,566.892 1031.651,583.339 
				1023.581,602.479 1015.51,618.34 1011.841,624.955 1008.173,618.34 1000.102,602.479 992.031,583.339 988.362,566.892 			"/>
			<circle fill="#FFFFFF" stroke="#221F1F" stroke-width="0.2401" stroke-miterlimit="10" cx="1011.841" cy="543.677" r="4.221"/>
		</g>
		<g opacity="0.85">
			
				<polygon opacity="0.3" fill="#70A668" stroke="#221F1F" stroke-width="1.23" stroke-miterlimit="10" enable-background="new    " points="
				947.477,544.569 952.508,534.507 959.971,527.723 969.11,525.235 978.25,527.723 985.713,534.507 990.744,544.569 
				992.589,556.892 988.921,573.339 980.85,592.479 972.779,608.34 969.11,614.955 965.441,608.34 957.371,592.479 949.301,573.339 
				945.632,556.892 			"/>
			<circle fill="#FFFFFF" stroke="#221F1F" stroke-width="0.2401" stroke-miterlimit="10" cx="969.111" cy="533.677" r="4.221"/>
		</g>
		<g opacity="0.85">
			<polygon fill="#69BD58" stroke="#221F1F" stroke-width="1.23" stroke-miterlimit="10" points="904.747,544.569 909.778,534.507 
				917.24,527.723 926.38,525.235 935.52,527.723 942.981,534.507 948.013,544.569 949.858,556.892 946.189,573.339 
				938.119,592.479 930.048,608.34 926.38,614.955 922.711,608.34 914.641,592.479 906.569,573.339 902.901,556.892 			"/>
			<circle fill="#FFFFFF" stroke="#221F1F" stroke-width="0.2401" stroke-miterlimit="10" cx="926.38" cy="533.677" r="4.221"/>
		</g>
		<g opacity="0.85">
			<polygon fill="#69BD58" stroke="#221F1F" stroke-width="1.23" stroke-miterlimit="10" points="1162.625,651.773 
				1167.656,641.711 1175.117,634.927 1184.258,632.439 1193.398,634.927 1200.859,641.711 1205.891,651.773 1207.736,664.096 
				1204.068,680.543 1195.997,699.684 1187.926,715.545 1184.258,722.158 1180.589,715.545 1172.52,699.684 1164.447,680.543 
				1160.779,664.096 			"/>
			<circle fill="#FFFFFF" stroke="#221F1F" stroke-width="0.2401" stroke-miterlimit="10" cx="1184.258" cy="640.881" r="4.221"/>
		</g>
		<g opacity="0.85">
			<polygon fill="#558F4A" stroke="#221F1F" stroke-width="1.23" stroke-miterlimit="10" points="862.976,544.569 868.007,534.507 
				875.471,527.723 884.608,525.235 893.749,527.723 901.212,534.507 906.242,544.569 908.087,556.892 904.419,573.339 
				896.348,592.479 888.276,608.34 884.608,614.955 880.94,608.34 872.869,592.479 864.799,573.339 861.13,556.892 			"/>
			<circle fill="#FFFFFF" stroke="#221F1F" stroke-width="0.2401" stroke-miterlimit="10" cx="884.609" cy="533.677" r="4.221"/>
		</g>
		<g opacity="0.85">
			
				<polygon opacity="0.6" fill="#69BD58" stroke="#221F1F" stroke-width="1.23" stroke-miterlimit="10" enable-background="new    " points="
				821.205,554.569 826.235,544.507 833.699,537.723 842.838,535.235 851.978,537.723 859.441,544.507 864.471,554.569 
				866.316,566.892 862.648,583.339 854.577,602.479 846.507,618.34 842.838,624.955 839.17,618.34 831.099,602.479 
				823.028,583.339 819.36,566.892 			"/>
			<circle fill="#FFFFFF" stroke="#221F1F" stroke-width="0.2401" stroke-miterlimit="10" cx="842.838" cy="543.677" r="4.221"/>
		</g>
		<g opacity="0.85">
			
				<polygon opacity="0.3" fill="#8BBD82" stroke="#221F1F" stroke-width="1.23" stroke-miterlimit="10" enable-background="new    " points="
				777.514,564.569 782.546,554.507 790.009,547.723 799.147,545.235 808.286,547.723 815.749,554.507 820.78,564.569 
				822.625,576.892 818.956,593.339 810.886,612.479 802.817,628.34 799.147,634.955 795.479,628.34 787.408,612.479 
				779.338,593.339 775.668,576.892 			"/>
			<circle fill="#FFFFFF" stroke="#221F1F" stroke-width="0.2401" stroke-miterlimit="10" cx="799.147" cy="553.677" r="4.221"/>
		</g>
	</g>
	<g>
		<g>
			<polygon fill="#937945" stroke="#221F1F" stroke-width="3" stroke-miterlimit="10" points="886.871,370 887.425,360.996 
				887.576,352.051 887.37,343.167 886.854,334.345 886.071,325.587 885.068,316.897 882.585,299.724 876.98,266.27 
				874.589,250.021 873.654,242.023 868.887,170.035 869.264,168.634 870.465,166.83 872.374,164.683 874.872,162.249 
				877.842,159.588 898.956,142.116 901.923,139.497 904.418,137.118 906.322,135.037 907.518,133.311 907.888,132 907.359,131.231 
				906.005,130.875 903.942,130.875 901.289,131.171 898.163,131.707 894.683,132.422 876.091,136.668 872.96,137.242 
				870.3,137.589 868.229,137.65 866.865,137.367 866.325,136.682 866.663,133.612 868.065,129.603 870.381,124.794 873.454,119.33 
				877.132,113.35 903.268,74.592 906.867,68.976 909.839,63.979 912.03,59.743 913.286,56.41 913.454,54.121 911.175,54.479 
				905.445,58.642 896.64,66.08 838.188,118.031 819.648,133.928 800.29,149.932 780.49,165.516 760.624,180.151 741.067,193.31 
				722.197,204.463 704.39,213.083 688.021,218.643 673.466,220.614 659.179,218.607 643.723,212.944 627.382,204.164 
				610.44,192.804 593.181,179.402 575.888,164.498 558.845,148.627 542.334,132.329 512.048,100.603 477.707,63.259 
				470.351,55.695 465.513,51.469 463.477,51.121 463.462,53.44 464.408,56.769 466.18,60.971 468.64,65.914 471.653,71.46 
				490.243,103.547 493.714,109.89 496.784,115.894 499.317,121.423 501.178,126.343 502.229,130.519 502.337,133.815 
				501.674,134.776 500.132,135.229 497.835,135.251 494.909,134.914 491.481,134.294 487.677,133.464 471.202,129.537 
				467.398,128.775 463.972,128.25 461.048,128.035 458.755,128.206 457.214,128.836 456.555,130 456.91,131.328 458.146,133.182 
				460.136,135.489 462.755,138.175 465.877,141.166 488.126,161.336 491.245,164.377 493.861,167.127 495.849,169.514 
				497.081,171.461 497.433,172.896 490.475,235.613 489.471,242.703 488.093,249.94 486.402,257.331 484.463,264.88 
				473.211,305.216 471.087,313.842 469.15,322.667 467.466,331.699 466.094,340.942 465.097,350.403 464.538,360.087 464.48,370 
				465.979,391.589 469.483,412.556 474.896,432.793 482.123,452.196 491.069,470.657 501.639,488.07 513.736,504.329 
				527.268,519.328 542.137,532.96 558.248,545.12 575.507,555.701 593.817,564.595 613.085,571.698 633.214,576.904 
				654.109,580.105 675.676,581.196 697.16,580.101 717.833,576.888 737.63,571.665 756.489,564.54 774.349,555.621 
				791.146,545.016 806.816,532.833 821.299,519.18 834.53,504.165 846.448,487.896 856.991,470.481 866.095,452.029 
				873.697,432.646 879.735,412.442 884.146,391.524 			"/>
			<polygon fill="#B08C50" points="689.965,288.11 678.221,288.015 667.423,287.174 657.468,285.693 648.25,283.68 639.667,281.239 
				631.612,278.479 623.982,275.506 602.601,266.373 595.626,263.612 588.555,261.172 581.281,259.158 573.702,257.677 
				565.712,256.836 557.207,256.741 548.354,258.2 539.481,261.811 530.729,267.371 522.229,274.676 514.12,283.522 
				506.544,293.707 499.635,305.025 493.531,317.274 488.37,330.25 484.289,343.748 481.426,357.565 479.917,371.499 479.9,385.343 
				481.515,398.895 484.895,411.951 490.181,424.308 497.256,434.971 505.781,443.235 515.56,449.334 526.391,453.501 
				538.075,455.97 550.416,456.974 563.214,456.745 576.269,455.518 589.383,453.524 602.356,450.998 648.875,440.23 
				658.167,438.539 666.126,437.714 674.142,437.808 683.593,438.624 694.267,440.019 758.497,450.7 772.021,452.581 
				785.271,454.045 798.037,454.949 810.104,455.151 821.255,454.509 831.28,452.88 839.966,450.122 847.098,446.092 
				853.223,440.008 858.951,431.427 864.159,420.72 868.725,408.259 872.523,394.413 875.434,379.553 877.333,364.05 
				878.098,348.275 877.606,332.598 875.735,317.39 872.361,303.021 867.363,289.862 860.617,278.284 852.001,268.658 
				841.392,261.353 828.666,256.741 815.676,254.313 804.218,253.209 794.087,253.27 785.079,254.338 776.988,256.254 
				769.61,258.861 762.74,262 756.173,265.513 743.129,273.03 736.242,276.716 728.839,280.145 720.714,283.156 711.663,285.593 
				701.481,287.297 			"/>
			<circle fill="#D2EBF5" cx="587.471" cy="364.607" r="79.597"/>
			<circle fill="#FFFFFF" cx="587.471" cy="369.607" r="71.637"/>
			<circle fill="#EDCC1A" stroke="#E4B921" stroke-width="2" stroke-miterlimit="10" cx="587.471" cy="364.607" r="49.182"/>
			<circle fill="#F4D64E" cx="587.471" cy="364.607" r="42.051"/>
			<circle fill="#282827" cx="587.471" cy="364.607" r="33.65"/>
			<circle fill="#D2EBF5" cx="779.461" cy="364.607" r="79.597"/>
			<circle fill="#FFFFFF" cx="779.461" cy="369.607" r="71.637"/>
			<circle fill="#EDCC1A" stroke="#E4B921" stroke-width="2" stroke-miterlimit="10" cx="779.461" cy="364.607" r="49.182"/>
			<circle fill="#F4D64E" cx="779.461" cy="364.607" r="42.051"/>
			<circle fill="#282827" cx="779.461" cy="364.607" r="33.65"/>
			<circle cx="683.471" cy="539.607" r="7.499"/>
		</g>
		<g>
			<polygon fill="#937945" stroke="#221F1F" stroke-width="2.3753" stroke-miterlimit="10" points="859.058,334.91 858.646,329.808 
				857.44,324.853 855.479,320.071 852.803,315.486 849.45,311.125 845.464,307.01 840.881,303.169 835.744,299.625 
				830.092,296.405 823.964,293.532 817.401,291.033 810.443,288.932 803.131,287.254 795.502,286.024 787.599,285.268 
				779.461,285.01 771.323,285.268 763.42,286.024 755.791,287.254 748.479,288.932 741.521,291.033 734.958,293.532 
				728.83,296.405 723.178,299.625 718.041,303.169 713.458,307.01 709.472,311.125 706.119,315.486 703.442,320.071 
				701.481,324.853 700.275,329.808 699.864,334.91 701.652,339.754 706.704,343.953 714.556,347.505 724.738,350.412 
				736.786,352.672 750.234,354.287 764.614,355.256 779.461,355.579 794.308,355.256 808.688,354.287 822.136,352.672 
				834.184,350.412 844.366,347.505 852.218,343.953 857.27,339.754 			"/>
			<circle fill="#221F1F" cx="779.461" cy="369.607" r="7.499"/>
		</g>
		<g>
			<polygon fill="#937945" stroke="#221F1F" stroke-width="2.3753" stroke-miterlimit="10" points="667.067,334.91 666.656,329.808 
				665.45,324.853 663.489,320.071 660.812,315.486 657.46,311.125 653.474,307.01 648.891,303.169 643.754,299.625 
				638.102,296.405 631.974,293.532 625.411,291.033 618.453,288.932 611.141,287.254 603.512,286.024 595.608,285.268 
				587.471,285.01 579.333,285.268 571.43,286.024 563.801,287.254 556.488,288.932 549.53,291.033 542.968,293.532 536.84,296.405 
				531.188,299.625 526.051,303.169 521.468,307.01 517.481,311.125 514.129,315.486 511.452,320.071 509.491,324.853 
				508.285,329.808 507.874,334.91 509.662,339.754 514.714,343.953 522.565,347.505 532.748,350.412 544.796,352.672 
				558.244,354.287 572.624,355.256 587.471,355.579 602.317,355.256 616.697,354.287 630.146,352.672 642.193,350.412 
				652.376,347.505 660.229,343.953 665.279,339.754 			"/>
			<circle fill="#221F1F" cx="587.471" cy="369.607" r="7.499"/>
		</g>
		<g>
			
				<ellipse fill="#EFA520" stroke="#221F1F" stroke-width="3" stroke-miterlimit="10" cx="683.965" cy="447.102" rx="35.998" ry="68.997"/>
			<polygon fill="#D38328" points="718.629,446.102 718.45,453.157 717.925,460.007 717.07,466.62 715.905,472.959 714.445,478.99 
				712.709,484.679 710.713,489.99 708.476,494.89 706.014,499.343 703.346,503.315 700.487,506.771 697.458,509.677 
				694.273,511.997 690.951,513.697 687.509,514.743 683.965,515.099 680.421,514.743 676.979,513.697 673.656,511.997 
				670.472,509.677 667.442,506.771 664.584,503.315 661.916,499.343 659.454,494.89 657.217,489.99 655.221,484.679 
				653.484,478.99 652.024,472.959 650.859,466.62 650.005,460.007 649.479,453.157 649.301,446.102 649.812,448.504 
				650.459,451.261 651.368,454.836 652.543,459.066 653.987,463.789 655.704,468.838 657.696,474.051 659.967,479.264 
				662.519,484.312 665.354,489.035 668.477,493.266 671.89,496.841 675.597,499.598 679.599,501.372 683.9,502 688.203,501.372 
				692.21,499.598 695.922,496.841 699.344,493.266 702.477,489.035 705.323,484.312 707.886,479.264 710.168,474.051 
				712.173,468.838 713.901,463.789 715.356,459.066 716.542,454.836 717.459,451.261 718.5,446.73 			"/>
			<circle fill="#221F1F" cx="684.888" cy="408" r="7.499"/>
		</g>
	</g>
</g>
</svg>
