<?xml version="1.0" encoding="utf-8"?>
<!-- Generator: Adobe Illustrator 16.0.4, SVG Export Plug-In . SVG Version: 6.00 Build 0)  -->
<!DOCTYPE svg PUBLIC "-//W3C//DTD SVG 1.1//EN" "http://www.w3.org/Graphics/SVG/1.1/DTD/svg11.dtd">
<svg version="1.1" id="Layer_1" xmlns="http://www.w3.org/2000/svg" xmlns:xlink="http://www.w3.org/1999/xlink" x="0px" y="0px"
	 width="612px" height="792px" viewBox="0 0 612 792" enable-background="new 0 0 612 792" xml:space="preserve">
<g>
	<polygon fill="#FFF1CB" stroke="#000000" stroke-width="2" stroke-miterlimit="10" points="187.969,427.98 153,548.867 
		273.992,513.929 425.312,362.933 338.651,277.624 	"/>
	<polygon fill="#FFC708" stroke="#000000" stroke-width="1.5" stroke-miterlimit="10" points="372.869,243.242 187.969,427.98 
		229.698,429.263 230.981,470.955 272.709,472.236 273.992,513.929 458.892,329.19 437.386,307.703 415.88,286.216 394.375,264.729 
			"/>
	<polygon fill="#FDD900" stroke="#000000" stroke-width="1.5" stroke-miterlimit="10" points="372.869,243.242 187.969,427.98 
		229.698,429.263 394.375,264.729 	"/>
	<polygon fill="#F5891F" stroke="#000000" stroke-width="1.5" stroke-miterlimit="10" points="272.709,472.236 273.992,513.929 
		458.892,329.19 437.386,307.703 	"/>
	<polygon fill="#F8A01B" stroke="#000000" stroke-width="1.5" stroke-miterlimit="10" points="230.981,470.955 272.709,472.236 
		437.386,307.703 415.88,286.216 	"/>
	<polygon points="411.147,377.382 325.125,291.435 321.226,295.33 319.276,297.278 405.299,383.226 407.248,381.277 	"/>
	<polygon fill="#F48D8E" stroke="#000000" stroke-width="2" stroke-miterlimit="10" points="430.157,271.658 421.19,263.303 
		412.254,256.102 403.58,250.169 395.403,245.617 387.957,242.559 381.476,241.107 376.192,241.375 372.341,243.477 
		372.137,243.687 371.94,243.905 371.751,244.129 371.57,244.361 371.398,244.6 371.235,244.847 371.082,245.101 370.94,245.363 
		364.482,251.815 358.024,258.268 351.567,264.72 345.109,271.172 338.651,277.624 332.194,284.076 325.736,290.528 319.278,296.98 
		320.253,297.954 321.228,298.928 322.202,299.902 323.177,300.876 324.151,301.85 325.126,302.824 326.101,303.798 
		327.075,304.771 330.868,308.561 334.66,312.35 338.452,316.139 342.245,319.928 346.038,323.717 349.83,327.506 353.622,331.295 
		357.415,335.084 358.634,336.301 359.853,337.519 361.071,338.736 362.289,339.954 363.507,341.171 364.726,342.389 
		365.944,343.606 367.163,344.823 371.931,349.586 376.697,354.35 381.464,359.112 386.231,363.875 390.999,368.639 
		395.766,373.401 400.532,378.165 405.3,382.928 411.971,376.263 418.642,369.598 425.312,362.933 431.983,356.267 438.654,349.602 
		445.325,342.937 451.997,336.271 458.668,329.606 458.658,329.569 458.65,329.532 458.644,329.493 458.638,329.454 
		458.632,329.415 458.625,329.376 458.617,329.339 458.607,329.302 458.601,329.294 458.593,329.287 458.585,329.279 
		458.577,329.271 458.569,329.264 458.562,329.256 458.554,329.249 458.547,329.241 458.554,329.234 458.562,329.226 
		458.569,329.219 458.577,329.211 458.585,329.203 458.593,329.196 458.601,329.188 458.607,329.181 460.556,325.261 
		460.711,319.953 459.183,313.484 456.082,306.081 451.519,297.97 445.604,289.378 438.446,280.532 	"/>
	<polygon points="166.742,501.364 200.545,535.138 153,548.867 	"/>
	<polygon opacity="0.8" fill="#FFFFFF" points="172.398,507.021 183.643,518.251 153,548.867 	"/>
	<circle cx="153" cy="548.867" r="3.599"/>
</g>
</svg>
