<?xml version="1.0" encoding="utf-8"?>
<!-- Generator: Adobe Illustrator 16.0.4, SVG Export Plug-In . SVG Version: 6.00 Build 0)  -->
<!DOCTYPE svg PUBLIC "-//W3C//DTD SVG 1.1//EN" "http://www.w3.org/Graphics/SVG/1.1/DTD/svg11.dtd">
<svg version="1.1" id="Layer_1" xmlns="http://www.w3.org/2000/svg" xmlns:xlink="http://www.w3.org/1999/xlink" x="0px" y="0px"
	 width="657px" height="1251px" viewBox="0 0 657 1251" enable-background="new 0 0 657 1251" xml:space="preserve">
<g>
	<g>
		<polygon fill="#304485" stroke="#000000" stroke-width="1.5776" stroke-miterlimit="10" points="262.477,452.444 239.248,466.132 
			228.338,473.529 218.627,481.834 210.663,491.447 204.994,502.773 202.167,516.214 202.729,532.174 207.114,547.641 
			214.736,559.923 224.618,569.894 235.782,578.43 247.251,586.404 258.049,594.693 267.196,604.171 273.716,615.714 
			277.404,630.027 279.262,646.475 280.814,681.229 282.173,697.261 285.03,710.881 290.214,720.95 298.561,726.334 
			311.291,729.027 327.972,731.575 346.955,733.665 366.59,734.986 385.226,735.226 401.214,734.071 412.904,731.211 
			418.646,726.334 419.671,716.711 418.858,701.029 415.023,658.779 413.65,635.851 413.738,614.146 416.115,595.486 
			421.604,581.691 429.264,570.152 436.957,557.189 443.723,543.01 448.595,527.83 450.61,511.859 448.807,495.31 442.22,478.392 
			429.887,461.318 412.065,447.107 390.585,438.136 366.83,433.658 342.188,432.923 318.045,435.183 295.788,439.689 
			276.803,445.692 		"/>
		<polygon fill="#846B4A" stroke="#000000" stroke-width="2.0328" stroke-miterlimit="10" points="294.387,715.449 292.082,717.899 
			289.77,720.509 287.189,723.637 284.719,726.98 282.739,730.239 281.63,733.109 281.767,735.286 288.281,737.555 304.012,740.518 
			325.899,743.601 350.883,746.227 375.904,747.823 397.902,747.816 413.818,745.63 420.592,740.69 421.45,734.963 421.688,730.658 
			421.354,727.573 420.493,725.506 419.151,724.253 417.374,723.608 415.21,723.37 412.704,723.337 408.996,723.637 
			388.228,726.591 379.302,727.611 369.979,728.328 360.625,728.546 351.602,728.069 343.068,726.751 334.94,724.767 
			327.212,722.412 312.934,717.778 306.373,716.09 300.193,715.215 		"/>
		<polyline fill="none" stroke="#000000" stroke-width="1.5776" stroke-miterlimit="10" points="345.885,526.389 348.638,526.555 
			355.374,526.833 359.524,526.909 363.817,526.888 367.967,526.729 371.688,526.389 375.098,525.719 378.427,524.688 
			381.561,523.435 384.383,522.1 386.777,520.82 388.631,519.734 389.827,518.981 390.252,518.698 		"/>
		<polyline fill="none" stroke="#000000" stroke-width="1.5776" stroke-miterlimit="10" points="345.885,532.896 346.12,534.718 
			346.925,539.485 348.438,546.137 350.807,553.621 354.172,560.88 358.679,566.859 364.47,570.503 371.688,570.756 
			380.138,567.173 386.054,561.41 389.867,554.284 392.016,546.617 392.931,539.226 393.046,532.933 392.797,528.556 
			392.618,526.914 		"/>
		<circle cx="341.244" cy="609.169" r="7.178"/>
	</g>
	<g>
		<g>
			<polygon fill="#59595A" stroke="#000000" stroke-width="1.916" stroke-miterlimit="10" points="289.625,735.286 285.955,743.355 
				281.151,760.003 275.855,782.63 270.706,808.638 266.347,835.428 263.415,860.401 262.553,880.959 264.4,894.502 
				270.782,902.729 281.95,909.008 296.19,913.233 311.784,915.306 327.016,915.123 340.172,912.582 349.534,907.583 
				353.387,900.023 353.778,886.712 353.725,841.415 352.473,788.909 351.366,766.584 349.924,750.417 348.132,743.057 
				344.426,740.818 337.857,738.42 329.344,736.123 319.798,734.188 310.138,732.874 301.279,732.445 294.137,733.162 			"/>
			<polyline fill="none" stroke="#000000" stroke-width="2.1925" stroke-miterlimit="10" points="285.546,781.564 286.43,781.321 
				288.837,780.598 292.41,779.405 296.786,777.752 301.607,775.646 306.511,773.1 311.137,770.121 315.125,766.72 318.433,762.979 
				321.268,759.103 323.638,755.29 325.555,751.73 327.028,748.624 328.067,746.164 328.684,744.545 328.887,743.962 			"/>
			<circle cx="318.918" cy="743.261" r="7.178"/>
		</g>
		<g>
			<g>
				<polygon fill="#59595A" stroke="#000000" stroke-width="1.916" stroke-miterlimit="10" points="268.697,886.541 
					268.157,891.619 269.176,900.109 271.502,911.687 293.939,1004.537 307.446,1071.484 309.875,1080.942 312.462,1087.617 
					315.474,1091.574 319.179,1092.88 323.969,1090.868 329.697,1085.146 335.824,1076.18 341.808,1064.435 347.105,1050.379 
					351.181,1034.479 353.488,1017.202 353.491,999.015 349.005,926.186 347.432,911.35 345.338,899.313 342.551,890.803 
					338.898,886.541 332.971,884.488 324.159,882.347 313.498,880.452 302.023,879.146 290.771,878.764 280.775,879.644 
					273.072,882.123 				"/>
				<circle cx="307.007" cy="898.445" r="7.179"/>
			</g>
			<g>
				<polygon stroke="#223159" stroke-width="1.1832" stroke-miterlimit="10" points="328.208,1064.045 318.554,1062.275 
					309.024,1062.322 299.483,1063.825 289.791,1066.426 258.442,1077.216 246.776,1080.611 234.364,1084.462 222.456,1089.448 
					212.867,1095.046 207.409,1100.727 207.896,1105.963 216.139,1110.229 233.952,1112.999 263.146,1113.743 294.184,1111.574 
					316.9,1106.527 332.188,1099.465 340.931,1091.247 344.017,1082.735 342.333,1074.791 336.769,1068.273 				"/>
				<circle cx="320.417" cy="1075.132" r="7.178"/>
			</g>
		</g>
	</g>
	<g>
		<g>
			<polygon fill="#59595A" stroke="#000000" stroke-width="1.916" stroke-miterlimit="10" points="418.762,736.074 423.279,744.313 
				429.897,761.408 437.631,784.667 445.494,811.399 452.502,838.913 457.668,864.518 460.008,885.521 458.534,899.234 
				451.605,907.462 439.48,913.741 424.021,917.966 407.091,920.038 390.553,919.855 376.271,917.314 366.106,912.316 
				361.924,904.756 360.661,876.251 360.214,855.245 360.113,817.262 359.311,801.926 354.729,753.285 354.535,746.894 
				355.242,743.845 359.268,741.607 366.398,739.208 375.643,736.911 386.005,734.976 396.492,733.663 406.109,733.234 
				413.864,733.951 			"/>
			<polyline fill="none" stroke="#000000" stroke-width="2.1925" stroke-miterlimit="10" points="381.379,743.962 381.65,744.638 
				382.44,746.447 383.718,749.064 385.445,752.159 387.589,755.404 390.113,758.472 392.984,761.034 396.168,762.763 
				399.935,763.853 404.348,764.733 409.051,765.424 413.692,765.943 417.917,766.313 423.705,766.682 424.562,766.72 			"/>
			<circle cx="388.178" cy="746.811" r="7.178"/>
		</g>
		<g>
			<g>
				<polygon fill="#59595A" stroke="#000000" stroke-width="1.916" stroke-miterlimit="10" points="377.209,895.291 375.234,903.71 
					374.878,914.382 375.612,927.02 378.248,957.045 379.095,973.861 378.924,991.496 377.209,1009.664 375.202,1027.273 
					374.461,1043.277 374.921,1057.449 376.519,1069.566 379.188,1079.402 382.865,1086.736 387.486,1091.343 392.984,1092.997 
					400.715,1086.135 411.146,1067.547 422.893,1040.547 434.56,1008.446 444.761,974.559 452.106,942.194 455.206,914.668 
					452.669,895.291 445.297,883.634 435.444,876.619 424.058,873.592 412.082,873.895 400.464,876.873 390.148,881.868 
					382.081,888.228 				"/>
				<circle cx="415.785" cy="900.623" r="7.178"/>
			</g>
			<g>
				<polygon stroke="#223159" stroke-width="1.1832" stroke-miterlimit="10" points="390.168,1064.045 399.822,1062.275 
					409.351,1062.322 418.893,1063.825 428.584,1066.426 459.934,1077.216 471.6,1080.611 484.013,1084.462 495.92,1089.448 
					505.509,1095.046 510.967,1100.727 510.48,1105.963 502.237,1110.229 484.425,1112.999 455.229,1113.743 424.192,1111.574 
					401.475,1106.527 386.188,1099.465 377.445,1091.247 374.358,1082.735 376.043,1074.791 381.607,1068.273 				"/>
				<circle cx="393.772" cy="1075.132" r="7.178"/>
			</g>
		</g>
	</g>
	<g>
		<g>
			<polygon fill="#304485" stroke="#000000" stroke-width="1.5776" stroke-miterlimit="10" points="405.471,470.707 
				433.145,464.507 460.819,458.307 474.229,539.946 487.638,621.584 468.476,615.275 449.314,608.964 427.394,539.835 			"/>
			<circle cx="437.07" cy="480.024" r="7.178"/>
		</g>
		<g>
			<g>
				<polygon fill="#304485" stroke="#000000" stroke-width="1.5776" stroke-miterlimit="10" points="487.638,600.287 
					469.129,602.259 450.619,604.232 446.254,678.771 441.889,753.311 462.606,753.311 483.324,753.311 485.481,676.799 				"/>
				<polygon fill="#FFFFFF" stroke="#000000" stroke-width="1.5776" stroke-miterlimit="10" points="489.084,751.208 
					462.857,751.208 436.63,751.208 436.63,755.282 436.63,759.358 462.857,759.358 489.084,759.358 489.084,755.282 				"/>
				<circle cx="468.432" cy="614.693" r="7.178"/>
			</g>
			<g>
				
					<rect x="452.669" y="758.749" fill="#42B649" stroke="#000000" stroke-width="1.5776" stroke-miterlimit="10" width="18.931" height="27.607"/>
				<polygon fill="#42B649" stroke="#000000" stroke-width="2.0328" stroke-miterlimit="10" points="439.249,813.295 
					438.268,817.589 434.139,833.141 433.175,837.899 432.821,841.789 433.32,844.414 435.403,846.332 438.537,846.908 
					442.419,846.479 446.747,845.376 455.533,842.494 459.388,841.383 462.479,840.938 465.149,841.475 468.593,842.842 
					476.646,846.633 480.677,848.336 484.326,849.431 487.305,849.559 489.323,848.359 490.311,845.373 490.481,840.78 
					490.045,835.07 489.213,828.734 486.464,810.879 485.633,801.148 484.121,796.064 481.774,791.711 478.734,788.107 
					475.144,785.271 471.143,783.225 466.875,781.982 462.479,781.564 458.121,782.118 453.947,783.717 450.081,786.271 
					446.645,789.686 443.759,793.867 441.547,798.727 440.13,804.169 439.631,810.103 				"/>
				<circle cx="463.013" cy="759.462" r="7.178"/>
			</g>
		</g>
	</g>
	<g>
		<g>
			<polygon fill="#304485" stroke="#000000" stroke-width="1.5776" stroke-miterlimit="10" points="252.187,515.829 
				218.399,515.829 184.613,515.829 184.613,581.691 184.613,647.555 210.512,647.555 236.412,647.555 244.299,581.691 			"/>
			<circle cx="217.604" cy="525.962" r="7.178"/>
		</g>
		<g>
			<g>
				<polygon fill="#304485" stroke="#000000" stroke-width="1.5776" stroke-miterlimit="10" points="230.651,637.098 
					209.935,637.098 189.217,637.098 189.217,702.96 189.217,768.824 209.935,768.824 230.651,768.824 230.651,702.96 				"/>
				<polygon fill="#FFFFFF" stroke="#000000" stroke-width="1.5776" stroke-miterlimit="10" points="236.412,766.72 210.186,766.72 
					183.958,766.72 183.958,770.796 183.958,774.871 210.186,774.871 236.412,774.871 236.412,770.796 				"/>
				<circle cx="210.505" cy="642.897" r="7.178"/>
			</g>
			<g>
				<g>
					
						<rect x="199.997" y="774.871" fill="#42B649" stroke="#000000" stroke-width="1.5776" stroke-miterlimit="10" width="18.931" height="27.606"/>
					<polygon fill="#42B649" stroke="#000000" stroke-width="2.0328" stroke-miterlimit="10" points="232.455,824.338 
						233.437,828.632 237.565,844.185 238.528,848.942 238.882,852.832 238.384,855.458 236.3,857.375 233.167,857.951 
						229.285,857.522 224.957,856.42 216.17,853.538 212.316,852.427 209.224,851.982 206.554,852.518 203.11,853.886 
						195.058,857.676 191.026,859.379 187.377,860.474 184.399,860.601 182.38,859.401 181.393,856.415 181.223,851.822 
						181.659,846.113 182.491,839.778 185.24,821.923 186.071,812.192 187.583,807.107 189.929,802.754 192.969,799.15 
						196.56,796.314 200.561,794.267 204.829,793.025 209.224,792.606 213.583,793.161 217.756,794.76 221.622,797.312 
						225.06,800.728 227.944,804.91 230.157,809.769 231.574,815.212 232.073,821.146 					"/>
					<circle cx="209.913" cy="775.207" r="7.178"/>
				</g>
				<g>
					<polyline fill="none" stroke="#F6BC17" stroke-width="4.3068" stroke-miterlimit="10" points="203.885,832.252 203.85,832.475 
						203.814,832.698 203.743,833.288 203.671,833.878 203.615,834.711 203.559,835.544 203.57,836.501 203.583,837.456 
						203.715,838.411 203.846,839.366 204.15,840.2 204.453,841.033 204.98,841.623 205.508,842.213 206.311,842.437 
						207.116,842.659 208.537,842.437 209.958,842.213 211.027,841.623 212.095,841.033 212.861,840.2 213.626,839.366 
						214.139,838.411 214.652,837.456 214.963,836.501 215.275,835.544 215.435,834.711 215.595,833.878 215.653,833.288 
						215.712,832.698 215.72,832.475 215.729,832.252 					"/>
					<polygon fill="none" stroke="#F6BC17" stroke-width="4.3068" stroke-miterlimit="10" points="207.654,851.272 208.364,851.461 
						209.074,851.649 209.6,852.159 210.127,852.67 210.49,853.42 210.853,854.168 211.07,855.076 211.288,855.983 211.379,856.967 
						211.471,857.951 211.455,858.927 211.439,859.903 211.335,860.793 211.231,861.681 211.058,862.399 210.884,863.117 
						210.653,863.718 210.422,864.319 210.132,864.894 209.841,865.468 209.488,865.988 209.135,866.509 208.717,866.95 
						208.299,867.391 207.813,867.724 207.328,868.056 206.771,868.255 206.215,868.454 205.586,868.492 204.956,868.53 
						204.251,868.38 203.546,868.23 202.894,867.934 202.244,867.638 201.761,867.256 201.279,866.874 200.943,866.405 
						200.606,865.938 200.39,865.386 200.175,864.834 200.058,864.199 199.94,863.565 199.895,862.852 199.851,862.137 
						199.856,861.344 199.862,860.552 199.894,859.681 199.924,858.81 200.03,857.952 200.135,857.095 200.372,856.342 
						200.607,855.589 200.963,854.942 201.319,854.297 201.783,853.761 202.246,853.225 202.806,852.803 203.366,852.381 
						204.011,852.075 204.656,851.77 205.374,851.584 206.093,851.398 206.874,851.335 207.654,851.272 					"/>
					<polygon fill="none" stroke="#F6BC17" stroke-width="4.3068" stroke-miterlimit="10" points="203.885,877.652 202.879,877.985 
						201.874,878.316 201.013,879.2 200.154,880.084 199.5,881.352 198.846,882.62 198.456,884.106 198.064,885.593 
						197.996,887.131 197.925,888.667 198.237,890.086 198.548,891.506 199.298,892.643 200.048,893.778 201.293,894.464 
						202.54,895.148 203.932,895.082 205.324,895.016 206.44,894.17 207.557,893.324 208.349,891.941 209.14,890.559 
						209.557,888.883 209.975,887.208 209.97,885.482 209.966,883.756 209.489,882.223 209.012,880.689 208.015,879.591 
						207.017,878.492 205.451,878.072 203.885,877.652 					"/>
					<polygon fill="none" stroke="#F6BC17" stroke-width="4.3068" stroke-miterlimit="10" points="202.54,904.839 201.305,905.111 
						200.072,905.385 199.197,906.188 198.323,906.992 197.8,908.153 197.276,909.314 197.095,910.658 196.916,912.001 
						197.07,913.351 197.223,914.701 197.703,915.883 198.185,917.064 198.984,917.901 199.782,918.738 200.893,919.057 
						202.001,919.375 203.128,919.067 204.254,918.76 205.101,917.95 205.946,917.142 206.496,915.994 207.045,914.847 
						207.282,913.527 207.52,912.208 207.428,910.882 207.337,909.555 206.902,908.39 206.468,907.224 205.674,906.383 
						204.879,905.542 203.709,905.19 202.54,904.839 					"/>
					<polyline fill="none" stroke="#F6BC17" stroke-width="4.3068" stroke-miterlimit="10" points="203.078,892.726 
						202.673,899.725 202.27,906.724 					"/>
					<polyline fill="none" stroke="#F6BC17" stroke-width="4.3068" stroke-miterlimit="10" points="204.154,865.809 
						204.126,865.898 204.098,865.988 204.023,866.239 203.948,866.49 203.846,866.873 203.742,867.256 203.629,867.743 
						203.515,868.23 203.408,868.794 203.3,869.357 203.216,869.968 203.132,870.578 203.09,871.208 203.047,871.838 
						203.062,872.457 203.078,873.077 203.14,873.714 203.201,874.352 203.369,875.701 203.536,877.051 203.846,879.102 
						204.154,881.152 					"/>
					<polyline fill="none" stroke="#F6BC17" stroke-width="4.3068" stroke-miterlimit="10" points="208.462,839.16 208.415,839.222 
						208.368,839.283 208.243,839.461 208.117,839.641 207.934,839.926 207.752,840.211 207.534,840.595 207.317,840.978 
						207.087,841.449 206.857,841.921 206.638,842.471 206.417,843.021 206.229,843.641 206.04,844.261 205.905,844.94 
						205.769,845.621 205.698,846.335 205.627,847.048 205.606,847.76 205.585,848.472 205.601,849.151 205.618,849.832 
						205.661,850.452 205.702,851.072 205.757,851.604 205.812,852.135 205.866,852.55 205.921,852.965 205.963,853.234 
						206.004,853.504 206.021,853.6 206.038,853.695 					"/>
					<polyline fill="none" stroke="#F6BC17" stroke-width="4.3068" stroke-miterlimit="10" points="201.463,917.491 
						201.355,917.806 201.249,918.12 201.136,918.472 201.023,918.823 200.89,919.268 200.757,919.711 200.617,920.217 
						200.477,920.724 200.346,921.265 200.214,921.805 200.104,922.353 199.994,922.9 199.921,923.426 199.847,923.951 
						199.579,926.911 199.309,929.873 					"/>
					<polygon fill="#F6BC17" stroke="#000000" stroke-width="4.3068" stroke-miterlimit="10" points="199.333,929.873 
						194.936,929.958 190.537,930.042 185.936,931.602 181.333,933.161 176.817,935.953 172.3,938.746 168.157,942.528 
						164.013,946.311 160.533,950.84 157.052,955.369 154.522,960.403 151.994,965.438 150.705,970.732 149.416,976.028 
						149.655,981.344 149.895,986.66 151.49,991.359 153.085,996.059 155.523,999.748 157.96,1003.437 161.018,1006.236 
						164.074,1009.036 167.527,1011.064 170.98,1013.095 174.605,1014.474 178.23,1015.854 181.805,1016.701 185.379,1017.548 
						188.681,1017.984 191.982,1018.421 194.786,1018.566 197.59,1018.711 200.21,1018.668 202.829,1018.625 205.667,1018.297 
						208.505,1017.969 211.475,1017.175 214.445,1016.382 217.46,1014.941 220.475,1013.503 223.449,1011.236 226.423,1008.97 
						229.269,1005.695 232.115,1002.42 234.747,997.958 237.379,993.495 239.71,987.663 242.042,981.831 243.229,975.771 
						244.415,969.71 243.883,964.602 243.352,959.494 241.411,955.267 239.471,951.039 236.427,947.615 233.384,944.191 
						229.548,941.497 225.712,938.802 221.389,936.76 217.067,934.719 212.569,933.256 208.069,931.793 203.701,930.832 
						199.333,929.873 					"/>
					<polygon fill="#FCEC7B" stroke="#000000" stroke-width="3.2301" stroke-miterlimit="10" points="165.462,977.093 
						165.075,980.532 164.688,983.972 165.312,986.946 165.936,989.921 167.38,992.414 168.822,994.905 170.892,996.9 
						172.963,998.896 175.468,1000.38 177.974,1001.863 180.723,1002.817 183.471,1003.771 186.271,1004.183 189.072,1004.594 
						191.731,1004.443 194.39,1004.293 196.96,1003.65 199.531,1003.009 202.112,1001.927 204.692,1000.844 207.164,999.281 
						209.633,997.718 211.874,995.635 214.114,993.552 216.003,990.909 217.892,988.267 219.31,985.025 220.729,981.784 
						221.556,977.904 222.382,974.024 222.498,969.466 222.612,964.908 221.805,960.643 220.997,956.377 219.289,953.297 
						217.581,950.218 215.208,948.172 212.834,946.127 210.027,944.964 207.219,943.799 204.212,943.366 201.205,942.934 
						198.23,943.079 195.254,943.225 192.545,943.798 189.837,944.371 187.625,945.218 185.415,946.064 183.634,947.104 
						181.853,948.145 180.263,949.407 178.672,950.671 177.253,952.173 175.835,953.675 174.569,955.435 173.303,957.195 
						172.17,959.229 171.039,961.263 170.02,963.587 169.002,965.912 168.08,968.544 167.156,971.177 166.309,974.135 
						165.462,977.093 					"/>
					<circle fill="#FFFFFF" stroke="#000000" stroke-width="1.0767" stroke-miterlimit="10" cx="208.73" cy="830.816" r="7.7"/>
				</g>
			</g>
		</g>
	</g>
	<g>
		<g>
			<polygon fill="#42B649" points="267.208,368.443 269.458,376.234 274.401,394.582 277.034,405.357 279.323,415.947 
				280.929,425.407 281.514,432.794 281.22,439.108 279.073,458.936 278.673,464.828 278.798,469.856 279.672,473.717 
				281.514,476.107 285.141,477.636 290.898,479.019 298.298,480.11 306.856,480.765 316.084,480.838 325.497,480.183 
				334.607,478.654 342.928,476.107 350.194,472.778 356.447,469.067 361.664,465.071 365.817,460.886 368.885,456.606 
				370.842,452.328 371.662,448.148 371.322,444.163 369.456,439.521 366.025,433.52 351.027,410.544 346.018,402.287 
				341.781,394.26 338.786,386.781 336.839,379.849 332.949,362.306 331.766,358.076 330.367,354.921 328.595,353 326.285,352.472 
				321.64,353.014 313.781,354.14 303.924,355.767 293.285,357.808 283.077,360.182 274.519,362.801 268.824,365.583 			"/>
			<polygon fill="#95CB65" points="268.62,376.963 269.325,378.229 271.397,381.555 274.773,386.234 279.389,391.555 
				285.181,396.812 292.083,401.294 300.034,404.295 308.969,405.107 312.551,404.724 315.874,403.969 318.893,402.827 
				321.559,401.281 323.828,399.311 325.651,396.9 326.984,394.032 327.78,390.688 328.488,387.108 329.505,383.62 330.707,380.343 
				331.972,377.396 333.171,374.897 334.183,372.966 334.88,371.72 335.141,371.278 			"/>
			<polygon fill="none" stroke="#000000" stroke-width="2.0328" stroke-miterlimit="10" points="267.208,368.443 269.458,376.234 
				274.401,394.582 277.034,405.357 279.323,415.947 280.929,425.407 281.514,432.794 281.22,439.108 279.073,458.936 
				278.673,464.828 278.798,469.856 279.672,473.717 281.514,476.107 285.141,477.636 290.898,479.019 298.298,480.11 
				306.856,480.765 316.084,480.838 325.497,480.183 334.607,478.654 342.928,476.107 350.194,472.778 356.447,469.067 
				361.664,465.071 365.817,460.886 368.885,456.606 370.842,452.328 371.662,448.148 371.322,444.163 369.456,439.521 
				366.025,433.52 351.027,410.544 346.018,402.287 341.781,394.26 338.786,386.781 336.839,379.849 332.949,362.306 
				331.766,358.076 330.367,354.921 328.595,353 326.285,352.472 321.64,353.014 313.781,354.14 303.924,355.767 293.285,357.808 
				283.077,360.182 274.519,362.801 268.824,365.583 			"/>
			<polygon fill="#526DB0" stroke="#000000" stroke-width="1.5776" stroke-miterlimit="10" points="280.189,443.321 
				277.588,444.292 274.974,446.949 272.547,450.912 270.513,455.793 269.072,461.21 268.426,466.781 268.778,472.119 
				270.33,476.843 274.536,480.938 282.094,484.528 292.063,487.444 303.508,489.513 315.487,490.566 327.066,490.431 
				337.304,488.938 345.263,485.914 352.093,481.625 359.233,476.597 366.179,471.051 372.428,465.209 377.473,459.293 
				380.813,453.525 381.945,448.127 380.364,443.321 377.488,439.385 375.034,436.388 372.939,434.231 371.146,432.819 
				369.591,432.055 368.218,431.84 366.965,432.078 365.771,432.672 364.857,433.647 364.373,435.075 364.156,436.929 363.88,441.8 
				363.498,444.762 362.735,448.039 361.433,451.603 359.7,455.372 357.624,459.201 355.014,462.966 351.672,466.541 
				347.406,469.801 342.022,472.622 335.326,474.88 327.122,476.449 318.3,477.331 310.015,477.589 302.469,477.191 
				295.866,476.104 290.41,474.296 286.302,471.735 283.748,468.388 282.95,464.223 283.185,455.8 283.186,452.237 283.049,449.187 
				282.727,446.71 282.174,444.868 281.343,443.717 			"/>
			<circle cx="324.669" cy="459.122" r="7.178"/>
		</g>
		<g>
			<g>
				<polygon fill="#42B649" points="225.207,360.162 230.72,364.375 238.472,369.137 247.928,373.94 258.557,378.278 
					269.823,381.646 281.193,383.537 292.134,383.446 302.11,380.866 311.613,377.428 321.233,374.767 330.592,372.381 
					339.305,369.774 346.991,366.447 353.271,361.9 357.762,355.633 360.083,347.148 362.943,335.152 368.549,319.511 
					383.449,282.225 390.469,263.047 395.687,245.16 397.966,229.795 396.168,218.188 390.671,207.619 382.59,195.303 
					371.887,182.376 358.529,169.978 342.482,159.242 323.711,151.306 302.18,147.308 277.856,148.385 253.372,153.076 
					231.604,159.181 212.887,166.729 197.552,175.744 185.934,186.259 178.364,198.297 175.176,211.889 176.701,227.062 
					181.381,244.598 187.191,264.413 193.764,285.242 200.732,305.812 207.728,324.859 214.385,341.112 220.333,353.303 				"/>
				<polygon fill="#95CB65" points="229.707,311.988 229.954,312.904 230.569,315.396 231.371,319.081 232.172,323.574 
					232.789,328.492 233.035,333.452 232.727,338.07 231.68,341.962 230.327,345.396 229.214,348.808 228.324,352.063 
					227.637,355.026 227.134,357.564 226.798,359.543 226.611,360.828 226.553,361.287 227.913,362.219 231.75,364.677 
					237.694,368.15 245.375,372.133 254.427,376.115 264.478,379.59 275.16,382.047 286.104,382.979 292.53,382.783 297.53,382.242 
					301.436,381.429 304.576,380.42 307.281,379.286 309.88,378.103 312.703,376.942 316.079,375.879 330.572,372.035 
					334.404,370.912 337.931,369.779 340.958,368.665 343.291,367.598 347.524,365.453 349.787,364.159 352.018,362.569 
					354.118,360.573 355.992,358.058 357.543,354.915 358.673,351.033 358.725,349.053 358.233,346.734 357.343,344.129 
					354.944,338.256 353.725,335.09 352.685,331.838 351.968,328.553 351.462,324.021 351.299,319.652 351.392,315.585 
					351.657,311.954 352.012,308.894 352.369,306.54 352.646,305.029 352.757,304.495 316.079,314.552 290.443,330.525 
					261.258,318.298 				"/>
				<polygon fill="#8A2C47" points="236.543,313.435 237.621,314.533 240.676,317.432 245.445,321.534 251.662,326.242 
					259.062,330.959 267.379,335.09 276.351,338.036 285.71,339.202 297.512,337.933 308.339,334.424 318.007,329.417 
					326.334,323.656 333.13,317.883 338.214,312.839 341.399,309.269 342.503,307.913 308.849,316.854 306.353,317.729 
					303.951,319.059 301.573,320.666 299.152,322.375 296.621,324.009 293.91,325.394 290.953,326.354 287.683,326.712 
					284.221,326.39 280.765,325.529 277.358,324.3 274.043,322.867 267.864,320.057 265.086,319.013 262.573,318.43 
					259.643,317.989 				"/>
				<polygon fill="#9C4B88" points="263.362,333.417 263.68,333.258 264.574,332.837 265.954,332.239 267.733,331.544 
					269.819,330.836 272.124,330.2 274.559,329.718 277.034,329.473 279.214,329.467 280.912,329.613 282.266,329.871 
					283.41,330.196 284.48,330.547 285.612,330.878 286.941,331.148 288.603,331.313 290.362,331.265 291.934,330.977 
					293.377,330.528 296.108,329.47 297.513,329.021 299.023,328.733 300.698,328.685 302.542,328.907 304.46,329.33 
					306.354,329.882 308.125,330.493 309.673,331.09 310.901,331.605 311.711,331.966 312.003,332.103 311.654,332.392 
					310.59,333.162 308.786,334.265 306.219,335.553 302.862,336.878 298.692,338.092 293.685,339.048 287.813,339.596 
					281.933,339.557 276.894,338.963 272.682,337.987 269.277,336.803 266.661,335.581 264.816,334.494 263.722,333.715 				"/>
				<polyline fill="none" stroke="#000000" stroke-width="1.972" stroke-miterlimit="10" points="228.756,312.049 264.251,318.753 
					266.458,319.447 269.047,320.537 275.12,323.263 278.479,324.582 281.97,325.658 285.528,326.332 289.096,326.443 
					292.272,325.937 294.873,324.946 297.154,323.594 301.788,320.309 304.652,318.624 308.223,317.077 312.758,315.795 
					318.444,314.463 344.652,307.333 354.167,304.556 				"/>
				<polyline fill="none" stroke="#000000" stroke-width="1.1832" stroke-miterlimit="10" points="236.448,313.429 237.613,314.603 
					240.898,317.684 245.986,322.016 252.557,326.943 260.294,331.808 268.879,335.953 277.994,338.721 287.321,339.458 
					299.272,337.55 310.17,333.625 319.848,328.383 328.139,322.523 334.877,316.749 339.896,311.755 343.029,308.247 
					344.11,306.922 				"/>
				<polygon fill="none" stroke="#000000" stroke-width="2.0328" stroke-miterlimit="10" points="225.207,360.162 230.72,364.375 
					238.472,369.137 247.928,373.94 258.557,378.278 269.823,381.646 281.193,383.537 292.134,383.446 302.11,380.866 
					311.613,377.428 321.233,374.767 330.592,372.381 339.305,369.774 346.991,366.447 353.271,361.9 357.762,355.633 
					360.083,347.148 362.943,335.152 368.549,319.511 383.449,282.225 390.469,263.047 395.687,245.16 397.966,229.795 
					396.168,218.188 390.671,207.619 382.59,195.303 371.887,182.376 358.529,169.978 342.482,159.242 323.711,151.306 
					302.18,147.308 277.856,148.385 253.372,153.076 231.604,159.181 212.887,166.729 197.552,175.744 185.934,186.259 
					178.364,198.297 175.176,211.889 176.701,227.062 181.381,244.598 187.191,264.413 193.764,285.242 200.732,305.812 
					207.728,324.859 214.385,341.112 220.333,353.303 				"/>
				<circle cx="296.194" cy="361.345" r="7.178"/>
			</g>
			<g>
				<polygon points="300.537,279.302 300.773,280.98 300.868,282.565 300.827,284.023 300.66,285.317 300.371,286.412 
					299.968,287.271 299.458,287.861 298.846,288.145 298.174,288.093 297.491,287.719 296.812,287.054 296.159,286.129 
					295.549,284.975 295.003,283.623 294.538,282.104 294.173,280.45 293.937,278.771 293.842,277.186 293.882,275.728 
					294.05,274.435 294.338,273.34 294.742,272.479 295.252,271.891 295.864,271.606 296.535,271.659 297.22,272.033 
					297.898,272.698 298.55,273.623 299.16,274.776 299.707,276.128 300.171,277.647 				"/>
				<circle cx="296.194" cy="273.396" r="7.178"/>
			</g>
			<g>
				<polygon points="270.484,280.672 270.003,282.298 269.432,283.779 268.792,285.089 268.104,286.198 267.386,287.074 
					266.663,287.689 265.954,288.015 265.28,288.019 264.691,287.693 264.223,287.068 263.882,286.183 263.67,285.07 
					263.594,283.768 263.656,282.312 263.862,280.736 264.216,279.078 264.697,277.454 265.268,275.972 265.909,274.662 
					266.598,273.554 267.314,272.678 268.038,272.062 268.747,271.737 269.421,271.732 270.01,272.058 270.478,272.682 
					270.819,273.568 271.03,274.68 271.106,275.982 271.044,277.44 270.838,279.016 				"/>
				<circle cx="269.376" cy="273.79" r="7.178"/>
			</g>
			<g>
				<g>
					<polygon fill="#FFFFFF" stroke="#6675B8" stroke-width="1.1832" stroke-miterlimit="10" points="378.786,228.772 
						377.921,220.188 375.438,212.192 371.512,204.957 366.311,198.654 360.008,193.453 352.772,189.525 344.776,187.043 
						336.192,186.178 327.609,187.043 319.613,189.525 312.378,193.453 306.074,198.654 300.873,204.957 296.946,212.192 
						294.464,220.188 293.599,228.772 294.464,237.356 296.946,245.353 300.873,252.587 306.074,258.891 312.378,264.092 
						319.613,268.019 327.609,270.501 336.192,271.366 344.776,270.501 352.772,268.019 360.008,264.092 366.311,258.891 
						371.512,252.587 375.438,245.353 377.921,237.356 					"/>
					<circle cx="308.421" cy="256.437" r="7.178"/>
				</g>
				<g>
					<polygon fill="#E9D917" points="346.658,241.292 346.438,236.941 345.805,232.888 344.805,229.221 343.478,226.025 
						341.87,223.389 340.025,221.398 337.986,220.14 335.798,219.702 333.609,220.14 331.57,221.398 329.726,223.389 
						328.118,226.025 326.792,229.221 325.79,232.888 325.157,236.941 324.937,241.292 325.157,245.644 325.79,249.696 
						326.792,253.363 328.118,256.559 329.726,259.195 331.57,261.186 333.609,262.444 335.798,262.882 337.986,262.444 
						340.025,261.186 341.87,259.195 343.478,256.559 344.805,253.363 345.805,249.696 346.438,245.644 					"/>
					<polygon points="343.289,241.292 343.137,238.291 342.7,235.495 342.009,232.966 341.095,230.762 339.986,228.943 
						338.714,227.571 337.308,226.702 335.798,226.399 334.288,226.702 332.882,227.571 331.61,228.943 330.501,230.762 
						329.587,232.966 328.896,235.495 328.459,238.291 328.307,241.292 328.459,244.294 328.896,247.089 329.587,249.619 
						330.501,251.822 331.61,253.642 332.882,255.015 334.288,255.882 335.798,256.185 337.308,255.882 338.714,255.015 
						339.986,253.642 341.095,251.822 342.009,249.619 342.7,247.089 343.137,244.294 					"/>
					<circle cx="337.605" cy="228.304" r="7.178"/>
				</g>
				<g>
					<polygon fill="#42B649" stroke="#000000" stroke-width="2.1925" stroke-miterlimit="10" points="381.738,220.392 
						380.804,211.132 378.128,202.509 373.892,194.706 368.282,187.907 361.483,182.297 353.68,178.061 345.057,175.384 
						335.798,174.451 326.539,175.384 317.915,178.061 310.112,182.297 303.312,187.907 297.703,194.706 293.468,202.509 
						290.791,211.132 289.857,220.392 293.806,228.717 304.214,234.663 318.929,238.23 335.797,239.42 352.667,238.23 
						367.382,234.663 377.79,228.717 					"/>
					<circle cx="336.027" cy="188.339" r="7.178"/>
				</g>
			</g>
			<g>
				<g>
					<polygon fill="#FFFFFF" stroke="#6675B8" stroke-width="1.1832" stroke-miterlimit="10" points="273.879,224.04 
						273.013,215.455 270.532,207.46 266.605,200.225 261.403,193.921 255.099,188.72 247.864,184.793 239.869,182.311 
						231.285,181.446 222.702,182.311 214.705,184.793 207.47,188.72 201.166,193.921 195.965,200.225 192.038,207.46 
						189.556,215.455 188.69,224.04 189.556,232.625 192.038,240.619 195.965,247.855 201.166,254.158 207.47,259.359 
						214.705,263.286 222.702,265.768 231.285,266.634 239.869,265.768 247.864,263.286 255.099,259.359 261.403,254.158 
						266.605,247.855 270.532,240.619 273.013,232.625 					"/>
					<circle cx="248.474" cy="256.437" r="7.178"/>
				</g>
				<g>
					<polygon fill="#E9D917" points="239.483,241.292 239.263,236.941 238.63,232.888 237.629,229.221 236.302,226.025 
						234.696,223.389 232.851,221.398 230.812,220.14 228.623,219.702 226.434,220.14 224.396,221.398 222.55,223.389 
						220.944,226.025 219.617,229.221 218.616,232.888 217.983,236.941 217.763,241.292 217.983,245.644 218.616,249.696 
						219.617,253.363 220.944,256.559 222.55,259.195 224.396,261.186 226.434,262.444 228.623,262.882 230.812,262.444 
						232.851,261.186 234.696,259.195 236.302,256.559 237.629,253.363 238.63,249.696 239.263,245.644 					"/>
					<polygon points="236.115,241.292 235.962,238.291 235.526,235.495 234.835,232.966 233.921,230.762 232.812,228.943 
						231.539,227.571 230.133,226.702 228.623,226.399 227.113,226.702 225.707,227.571 224.435,228.943 223.326,230.762 
						222.411,232.966 221.721,235.495 221.284,238.291 221.132,241.292 221.284,244.294 221.721,247.089 222.411,249.619 
						223.326,251.822 224.435,253.642 225.707,255.015 227.113,255.882 228.623,256.185 230.133,255.882 231.539,255.015 
						232.812,253.642 233.921,251.822 234.835,249.619 235.526,247.089 235.962,244.294 					"/>
					<circle cx="227.964" cy="225.149" r="7.178"/>
				</g>
				<g>
					<polygon fill="#42B649" stroke="#000000" stroke-width="2.1925" stroke-miterlimit="10" points="277.226,218.025 
						276.292,208.766 273.616,200.143 269.379,192.34 263.77,185.541 256.971,179.931 249.167,175.695 240.543,173.018 
						231.285,172.085 222.026,173.018 213.403,175.695 205.599,179.931 198.8,185.541 193.19,192.34 188.955,200.143 
						186.278,208.766 185.344,218.025 189.292,226.351 199.7,232.296 214.417,235.864 231.285,237.054 248.154,235.864 
						262.869,232.296 273.278,226.351 					"/>
					<circle cx="230.069" cy="185.184" r="7.178"/>
				</g>
			</g>
		</g>
	</g>
</g>
</svg>
