<?xml version="1.0" encoding="utf-8"?>
<!-- Generator: Adobe Illustrator 16.0.4, SVG Export Plug-In . SVG Version: 6.00 Build 0)  -->
<!DOCTYPE svg PUBLIC "-//W3C//DTD SVG 1.1//EN" "http://www.w3.org/Graphics/SVG/1.1/DTD/svg11.dtd">
<svg version="1.1" id="Layer_1" xmlns="http://www.w3.org/2000/svg" xmlns:xlink="http://www.w3.org/1999/xlink" x="0px" y="0px"
	 width="685.466px" height="915.261px" viewBox="0 0 685.466 915.261" enable-background="new 0 0 685.466 915.261"
	 xml:space="preserve">
<g>
	<g>
		<polygon fill="#FFFFFF" stroke="#000000" stroke-width="3.8091" stroke-miterlimit="10" points="378.27,324.721 373.88,329.136 
			370.618,334.432 368.315,340.974 366.802,349.132 365.915,359.27 365.49,371.754 365.356,386.952 365.348,405.232 
			365.464,423.532 365.915,438.779 366.842,451.324 368.392,461.517 370.709,469.705 373.944,476.239 378.239,481.47 
			383.737,485.743 391.006,489.06 400.525,491.312 412.303,492.689 426.353,493.386 442.686,493.591 461.313,493.502 
			482.247,493.308 505.499,493.198 529.08,493.498 550.832,494.092 570.511,494.535 587.873,494.379 602.671,493.176 
			614.663,490.473 623.603,485.825 629.248,478.786 632.841,470.702 635.824,462.844 638.236,454.646 640.118,445.551 
			641.512,434.985 642.457,422.386 642.992,407.189 643.162,388.832 643.3,370.911 643.548,356.986 643.654,346.43 643.363,338.615 
			642.426,332.915 640.591,328.704 637.608,325.354 633.222,322.235 624.841,319.283 611.371,317.063 594.102,315.475 
			574.33,314.408 553.346,313.762 532.444,313.43 512.916,313.309 496.055,313.291 480.109,313.232 462.974,313.189 445.42,313.367 
			428.217,313.974 412.13,315.208 397.932,317.273 386.389,320.376 378.27,324.721 		"/>
		<circle cx="499.202" cy="411.692" r="4.64"/>
	</g>
	<g>
		<polygon fill="#FFFFFF" stroke="#000000" stroke-width="2.5394" stroke-miterlimit="10" points="413.723,494.524 413.557,503.471 
			413.391,512.416 413.225,521.361 413.059,530.307 424.987,530.307 436.915,530.307 448.842,530.307 460.77,530.307 
			460.77,526.662 460.77,523.018 460.77,519.373 460.77,515.728 453.978,515.396 447.186,515.065 440.394,514.734 433.602,514.403 
			433.27,509.268 432.938,504.132 432.606,498.996 432.274,493.86 427.636,494.026 422.999,494.192 418.361,494.358 
			413.723,494.524 413.723,494.524 413.723,494.524 413.723,494.524 413.723,494.524 413.723,494.524 413.723,494.524 
			413.723,494.524 		"/>
		<circle cx="422.998" cy="494.192" r="4.64"/>
	</g>
	<g>
		<polygon fill="#FFFFFF" stroke="#000000" stroke-width="2.5394" stroke-miterlimit="10" points="432.274,494.524 432.606,499.991 
			432.938,505.458 433.27,510.925 433.602,516.392 443.209,516.723 452.818,517.054 462.426,517.385 472.034,517.716 
			472.034,514.072 472.034,510.428 472.034,506.783 472.034,503.139 466.402,502.973 460.77,502.808 455.137,502.643 
			449.505,502.477 449.008,500.322 448.511,498.168 448.014,496.014 447.517,493.86 443.706,494.026 439.895,494.192 
			436.084,494.358 432.274,494.524 432.274,494.524 432.274,494.524 432.274,494.524 432.274,494.524 432.274,494.524 
			432.274,494.524 432.274,494.524 		"/>
		<circle cx="439.896" cy="494.192" r="4.64"/>
	</g>
	<g>
		<polygon fill="#FFFFFF" stroke="#000000" stroke-width="2.5394" stroke-miterlimit="10" points="562.816,493.86 562.485,502.973 
			562.154,512.084 561.823,521.195 561.492,530.307 566.627,530.638 571.762,530.969 576.898,531.301 582.034,531.632 
			581.702,522.355 581.37,513.078 581.038,503.801 580.707,494.524 576.234,494.358 571.761,494.192 567.289,494.026 
			562.816,493.86 562.816,493.86 562.816,493.86 562.816,493.86 562.816,493.86 562.816,493.86 562.816,493.86 562.816,493.86 		"/>
		<circle cx="572.418" cy="494.192" r="4.64"/>
	</g>
	<g>
		<polygon fill="#FFFFFF" stroke="#000000" stroke-width="2.5394" stroke-miterlimit="10" points="581.372,493.86 581.372,499.824 
			581.372,505.788 581.372,511.752 581.372,517.716 586.175,517.716 590.979,517.716 595.784,517.716 600.587,517.716 
			600.422,511.256 600.256,504.795 600.09,498.334 599.925,491.873 595.288,492.37 590.649,492.867 586.01,493.363 581.372,493.86 
			581.372,493.86 581.372,493.86 581.372,493.86 581.372,493.86 581.372,493.86 581.372,493.86 581.372,493.86 		"/>
		<circle cx="591.891" cy="494.192" r="4.64"/>
	</g>
	<g>
		<g>
			<polygon fill="#FFFFFF" stroke="#000000" stroke-width="3.8091" stroke-miterlimit="10" points="566.792,259.948 
				566.015,265.632 564.058,280.821 561.48,302.719 558.839,328.532 556.697,355.463 555.609,380.715 556.137,401.495 
				558.839,415.007 563.93,423.038 570.985,429.305 579.609,433.911 589.404,436.955 599.977,438.54 610.931,438.767 
				621.869,437.736 632.394,435.548 642.098,432.904 650.773,430.3 658.313,427.523 664.617,424.366 669.583,420.619 
				673.118,416.072 675.112,410.518 675.466,403.741 673.979,395.728 670.777,386.721 666.253,376.903 660.805,366.467 
				654.83,355.597 648.723,344.476 642.879,333.294 637.695,322.235 633.754,311.816 631.132,302.367 629.471,293.803 
				628.42,286.039 627.614,278.989 626.701,272.568 625.322,266.692 623.118,261.272 618.876,257.03 612.174,254.543 
				603.838,253.516 594.706,253.653 585.604,254.661 577.363,256.242 570.816,258.103 566.792,259.948 			"/>
			<circle cx="610.526" cy="356.692" r="4.64"/>
		</g>
		<g>
			<polygon fill="#F7B7CE" stroke="#000000" stroke-width="3.8091" stroke-miterlimit="10" points="593.298,385.188 
				592.958,387.449 594.169,389.986 596.561,392.765 599.76,395.748 603.394,398.904 607.09,402.193 610.476,405.586 
				613.179,409.043 615.374,412.619 617.456,416.271 619.364,419.829 621.046,423.125 622.45,425.985 623.52,428.238 
				624.203,429.719 624.442,430.248 624.625,429.573 625.157,427.702 626.014,424.867 627.175,421.303 628.616,417.241 
				630.312,412.917 632.243,408.56 634.381,404.405 636.935,400.527 639.889,396.856 642.908,393.421 645.648,390.242 
				647.766,387.34 648.92,384.744 648.771,382.473 646.973,380.551 644.372,379.362 641.951,379.121 639.577,379.596 
				637.115,380.551 634.438,381.753 631.411,382.974 627.902,383.975 623.78,384.525 619.182,384.515 614.452,384.116 
				609.767,383.54 605.31,382.992 601.254,382.678 597.781,382.8 595.072,383.568 593.298,385.188 			"/>
			<circle cx="624.442" cy="434.886" r="4.64"/>
		</g>
		<g>
			<g>
				
					<ellipse fill="#FFFFFF" stroke="#000000" stroke-width="5.0788" stroke-miterlimit="10" cx="562.816" cy="326.212" rx="43.734" ry="42.409"/>
				<circle cx="600.587" cy="348.741" r="4.64"/>
			</g>
			<g>
				
					<ellipse fill="#FF0000" stroke="#000000" stroke-width="2.6261" stroke-miterlimit="10" cx="585.347" cy="327.039" rx="11.264" ry="12.755"/>
				<circle cx="574.083" cy="327.039" r="4.64"/>
			</g>
		</g>
		<g>
			<g>
				
					<ellipse fill="#FFFFFF" stroke="#000000" stroke-width="3.8091" stroke-miterlimit="10" cx="637.033" cy="324.224" rx="30.481" ry="29.818"/>
				<circle cx="620.466" cy="348.741" r="4.64"/>
			</g>
			<g>
				
					<ellipse fill="#FF0000" stroke="#000000" stroke-width="2.5394" stroke-miterlimit="10" cx="623.78" cy="324.886" rx="11.928" ry="11.264"/>
				<circle cx="635.045" cy="322.897" r="4.64"/>
			</g>
		</g>
		<g>
			<g>
				<polygon fill="#FFFFFF" stroke="#000000" stroke-width="3.8091" stroke-miterlimit="10" points="572.755,264.586 
					567.114,267.563 561.299,267.618 555.423,264.356 549.595,257.378 543.93,246.292 538.538,230.697 533.531,210.202 
					529.021,184.406 525.723,158.357 524.125,137.038 524,119.958 525.129,106.628 527.282,96.56 530.233,89.265 533.76,84.252 
					537.636,81.034 541.953,81.012 546.821,85.465 552.045,93.706 557.432,105.054 562.789,118.825 567.919,134.334 
					572.633,150.901 576.732,167.84 580.529,184.064 584.125,198.984 587.004,212.661 588.659,225.158 588.574,236.537 
					586.236,246.859 581.135,256.188 572.755,264.586 				"/>
				<circle cx="576.732" cy="263.261" r="4.64"/>
			</g>
			<g>
				<polygon fill="#F7B7CE" stroke="#000000" stroke-width="2.5394" stroke-miterlimit="10" points="571.431,259.285 
					569.426,259.635 566.732,258.716 563.546,256.12 560.057,251.435 556.458,244.253 552.94,234.164 549.695,220.757 
					546.913,203.623 544.791,185.44 543.361,169.238 542.57,155.131 542.358,143.239 542.674,133.676 543.466,126.559 
					544.675,122.004 546.25,120.129 548.611,122.516 551.975,129.779 555.975,140.583 560.248,153.592 564.426,167.472 
					568.146,180.886 571.045,192.498 572.755,200.972 573.922,208.179 575.252,216.513 576.471,225.421 577.312,234.352 
					577.5,242.756 576.763,250.08 574.831,255.774 571.431,259.285 				"/>
				<circle cx="571.432" cy="254.646" r="4.639"/>
			</g>
		</g>
		<g>
			<g>
				<polygon fill="#FFFFFF" stroke="#000000" stroke-width="3.8091" stroke-miterlimit="10" points="617.816,260.61 
					624.161,263.435 630.316,263.553 636.193,260.447 641.703,253.6 646.751,242.493 651.25,226.609 655.107,205.432 
					658.237,178.442 660.475,151.342 661.725,129.748 662.001,113.015 661.302,100.499 659.642,91.553 657.027,85.537 
					653.463,81.803 648.961,79.708 643.459,82.231 637.137,91.697 630.347,106.475 623.448,124.933 616.799,145.441 
					610.755,166.369 605.673,186.085 601.913,202.96 599.877,216.58 599.551,227.809 600.656,236.926 602.907,244.209 
					606.028,249.94 609.741,254.398 613.763,257.861 617.816,260.61 				"/>
				<circle cx="614.502" cy="261.935" r="4.64"/>
			</g>
			<g>
				<polygon fill="#F7B7CE" stroke="#000000" stroke-width="2.5394" stroke-miterlimit="10" points="617.816,258.622 
					619.903,259.863 622.676,259.223 625.925,256.422 629.427,251.186 632.968,243.234 636.333,232.288 639.307,218.073 
					641.671,200.309 643.442,182.055 644.767,166.473 645.645,153.438 646.063,142.824 646.013,134.511 645.494,128.371 
					644.49,124.281 642.997,122.117 640.662,123.58 637.354,129.716 633.41,139.425 629.163,151.604 624.949,165.15 
					621.097,178.959 617.947,191.93 615.829,202.96 614.446,212.364 613.343,221.162 612.613,229.308 612.349,236.754 
					612.644,243.456 613.591,249.365 615.284,254.436 617.816,258.622 				"/>
				<circle cx="620.466" cy="252.658" r="4.64"/>
			</g>
		</g>
	</g>
	<g>
		<polygon points="424.489,316.769 424.75,317.057 425.561,317.849 426.953,319.048 428.961,320.559 431.624,322.279 
			434.973,324.108 439.043,325.948 443.872,327.703 448.659,329.226 452.639,330.568 455.884,331.924 458.471,333.48 
			460.475,335.434 461.972,337.977 463.04,341.3 463.75,345.594 464.458,351.127 465.218,357.794 465.665,365.24 465.428,373.114 
			464.143,381.059 461.444,388.716 456.964,395.73 450.333,401.754 443.026,406.239 436.696,408.943 431.252,409.948 
			426.601,409.332 422.649,407.18 419.302,403.571 416.467,398.587 414.052,392.312 412.073,386.053 410.503,381.021 
			409.203,377.128 408.027,374.295 406.827,372.441 405.457,371.484 403.772,371.343 401.627,371.934 399.434,373.398 
			397.598,375.732 395.959,378.636 394.36,381.812 392.643,384.965 390.656,387.799 388.237,390.016 385.227,391.316 
			381.784,391.738 378.27,391.612 374.849,391.09 371.684,390.322 368.94,389.463 366.777,388.661 365.36,388.069 364.851,387.838 
			364.556,385.633 363.973,379.699 363.566,371.064 363.795,360.752 365.12,349.787 367.996,339.195 372.888,330.002 
			380.257,323.23 388.866,318.957 397.023,316.35 404.516,315.07 411.133,314.781 416.654,315.145 420.863,315.821 423.545,316.477 
			424.489,316.769 		"/>
		<circle cx="386.388" cy="320.376" r="4.64"/>
	</g>
	<g>
		
			<ellipse transform="matrix(0.7495 -0.662 0.662 0.7495 -119.5886 328.3264)" fill="#FFFFFF" stroke="#000000" stroke-width="3.7437" stroke-miterlimit="10" cx="374.062" cy="322.19" rx="38.638" ry="24.59"/>
		<circle cx="382.749" cy="333.155" r="4.64"/>
	</g>
</g>
</svg>
