<?xml version="1.0" encoding="utf-8"?>
<!-- Generator: Adobe Illustrator 16.0.4, SVG Export Plug-In . SVG Version: 6.00 Build 0)  -->
<!DOCTYPE svg PUBLIC "-//W3C//DTD SVG 1.1//EN" "http://www.w3.org/Graphics/SVG/1.1/DTD/svg11.dtd">
<svg version="1.1" id="Layer_1" xmlns="http://www.w3.org/2000/svg" xmlns:xlink="http://www.w3.org/1999/xlink" x="0px" y="0px"
	 width="612px" height="792px" viewBox="0 0 612 792" enable-background="new 0 0 612 792" xml:space="preserve">
<g>
	<polygon fill="#FFFFFF" stroke="#000000" stroke-width="0.6012" stroke-miterlimit="10" points="158.201,101.702 155.793,104.351 
		153.056,107.025 150.011,109.704 146.683,112.366 143.096,114.99 139.273,117.554 135.238,120.037 131.015,122.417 
		126.627,124.672 122.099,126.782 117.453,128.725 112.713,130.479 107.904,132.023 103.048,133.336 98.17,134.395 93.294,135.18 
		88.484,136.265 83.828,138.189 79.383,140.88 75.209,144.265 71.364,148.271 67.905,152.823 64.891,157.85 62.378,163.278 
		60.426,169.035 59.092,175.046 58.436,181.24 58.513,187.543 59.383,193.882 61.104,200.185 63.734,206.376 67.331,212.385 
		72.004,217.467 77.717,221.044 84.309,223.295 91.618,224.395 99.483,224.522 107.744,223.854 116.239,222.568 124.808,220.84 
		133.288,218.848 141.519,216.769 149.339,214.78 156.588,213.058 163.105,211.78 168.728,211.124 173.295,211.267 176.647,212.385 
		179.211,214.508 181.596,217.458 183.908,221.102 186.255,225.303 188.748,229.928 191.492,234.844 194.596,239.916 
		198.169,245.009 202.319,249.991 207.153,254.727 212.779,259.082 219.307,262.922 226.843,266.115 235.497,268.524 
		245.375,270.017 256.586,270.459 268.105,269.625 278.857,267.5 288.877,264.266 298.199,260.104 306.855,255.199 314.882,249.731 
		322.312,243.882 329.179,237.836 335.518,231.773 341.361,225.877 346.746,220.329 351.704,215.311 356.27,211.005 
		360.477,207.595 364.359,205.261 367.951,204.187 371.539,204.562 375.39,206.301 379.508,209.163 383.9,212.908 388.573,217.298 
		393.533,222.093 398.784,227.055 404.334,231.943 410.188,236.519 416.352,240.543 422.832,243.777 429.635,245.981 
		436.766,246.916 444.23,246.343 452.036,244.022 460.188,239.714 468.584,232.83 476.952,223.226 485.038,211.341 492.588,197.61 
		499.35,182.471 505.068,166.358 509.492,149.709 512.369,132.96 513.443,116.547 512.464,100.907 509.176,86.476 503.327,73.689 
		494.664,62.985 482.933,54.799 467.881,49.568 449.256,47.727 429.738,48.3 412.091,49.909 396.183,52.389 381.883,55.574 
		369.061,59.299 357.584,63.4 347.323,67.711 338.146,72.067 329.921,76.303 322.519,80.254 315.807,83.754 309.653,86.639 
		303.929,88.743 298.501,89.902 293.24,89.949 288.014,88.721 282.322,86.728 275.822,84.655 268.618,82.601 260.813,80.661 
		252.512,78.934 243.818,77.516 234.835,76.504 225.669,75.996 216.423,76.088 207.201,76.878 198.107,78.462 189.245,80.938 
		180.719,84.403 172.634,88.954 165.093,94.688 158.201,101.702 	"/>
	<circle cx="288.151" cy="158.875" r="4.783"/>
</g>
</svg>
