<?xml version="1.0" encoding="utf-8"?>
<!-- Generator: Adobe Illustrator 16.0.4, SVG Export Plug-In . SVG Version: 6.00 Build 0)  -->
<!DOCTYPE svg PUBLIC "-//W3C//DTD SVG 1.1//EN" "http://www.w3.org/Graphics/SVG/1.1/DTD/svg11.dtd">
<svg version="1.1" id="Layer_1" xmlns="http://www.w3.org/2000/svg" xmlns:xlink="http://www.w3.org/1999/xlink" x="0px" y="0px"
	 width="612px" height="792px" viewBox="0 0 612 792" enable-background="new 0 0 612 792" xml:space="preserve">
<g>
	<polygon fill="#7A6031" stroke="#A8864F" stroke-width="1.5803" stroke-miterlimit="10" points="-792.864,534.091 
		-792.864,561.221 -792.864,588.352 -792.864,615.482 -792.864,642.613 -792.864,669.744 -792.864,696.875 -792.864,724.006 
		-792.864,751.137 -508.375,751.137 -223.887,751.137 60.602,751.137 345.091,751.137 629.58,751.137 914.068,751.137 
		1198.557,751.137 1483.045,751.137 1483.045,724.432 1483.045,697.728 1483.045,671.023 1483.045,644.318 1483.045,617.613 
		1483.045,590.909 1483.045,564.205 1483.045,537.5 1475.241,536.581 1452.539,534.197 1416.003,530.908 1366.695,527.272 
		1305.685,523.85 1234.03,521.2 1152.799,519.882 1063.053,520.454 970.181,523.271 878.241,527.858 786.302,533.538 
		693.431,539.631 598.698,545.457 501.171,550.338 399.92,553.594 294.012,554.546 197.46,552.277 120.197,547.053 55.171,539.963 
		-4.667,532.103 -66.366,524.561 -136.979,518.431 -223.553,514.804 -333.142,514.772 -447.407,517.234 -543.848,520.188 
		-623.262,523.382 -686.447,526.562 -734.202,529.477 -767.324,531.871 -786.612,533.494 -792.864,534.091 	"/>
	<circle cx="315" cy="657" r="10"/>
</g>
</svg>
