<?xml version="1.0" encoding="utf-8"?>
<!-- Generator: Adobe Illustrator 16.0.4, SVG Export Plug-In . SVG Version: 6.00 Build 0)  -->
<!DOCTYPE svg PUBLIC "-//W3C//DTD SVG 1.1//EN" "http://www.w3.org/Graphics/SVG/1.1/DTD/svg11.dtd">
<svg version="1.1" id="Layer_1" xmlns="http://www.w3.org/2000/svg" xmlns:xlink="http://www.w3.org/1999/xlink" x="0px" y="0px"
	 width="612px" height="792px" viewBox="0 0 612 792" enable-background="new 0 0 612 792" xml:space="preserve">
<g>
	<g>
		
			<ellipse fill="#76C8FF" stroke="#000000" stroke-width="0.75" stroke-miterlimit="10" cx="304.426" cy="393.468" rx="70.213" ry="125.532"/>
		<circle cx="304.426" cy="393.468" r="4.574"/>
	</g>
	<g>
		<g>
			<polygon fill="#0040F4" stroke="#000000" stroke-width="0.75" stroke-miterlimit="10" points="335,300.333 357,347 477,257 			
				"/>
			<circle cx="357" cy="317.574" r="4.574"/>
		</g>
		<g>
			<g>
				<polygon fill="#0040F4" stroke="#000000" stroke-width="0.75" stroke-miterlimit="10" points="409.666,271.917 425.263,305 
					510.334,241.197 				"/>
				<circle cx="425.262" cy="284.14" r="3.243"/>
			</g>
			<g>
				<g>
					<polygon fill="#0040F4" stroke="#000000" stroke-width="0.75" stroke-miterlimit="10" points="469.666,247.111 
						481.338,271.869 545,224.122 					"/>
					<circle cx="481.337" cy="256.258" r="2.427"/>
				</g>
				<g>
					
						<ellipse fill="#FF8500" stroke="#000000" stroke-width="0.842" stroke-miterlimit="10" cx="551.25" cy="224.122" rx="30.25" ry="24"/>
					<circle cx="531.277" cy="231.914" r="4.574"/>
				</g>
			</g>
		</g>
	</g>
	<g>
		<g>
			<polygon fill="#0040F4" stroke="#000000" stroke-width="0.75" stroke-miterlimit="10" points="277,300.333 255,347 135,257 			
				"/>
			<circle cx="255" cy="317.574" r="4.574"/>
		</g>
		<g>
			<g>
				<polygon fill="#0040F4" stroke="#000000" stroke-width="0.75" stroke-miterlimit="10" points="202.333,271.917 186.737,305 
					101.666,241.197 				"/>
				<circle cx="186.737" cy="284.14" r="3.243"/>
			</g>
			<g>
				<g>
					<polygon fill="#0040F4" stroke="#000000" stroke-width="0.75" stroke-miterlimit="10" points="142.333,247.111 
						130.662,271.869 67,224.122 					"/>
					<circle cx="130.663" cy="256.258" r="2.427"/>
				</g>
				<g>
					
						<ellipse fill="#FF8500" stroke="#000000" stroke-width="0.8558" stroke-miterlimit="10" cx="59.75" cy="224.122" rx="31.25" ry="24"/>
					<circle cx="80.722" cy="231.914" r="4.574"/>
				</g>
			</g>
		</g>
	</g>
	<g>
		<g>
			
				<rect x="350.289" y="464.977" transform="matrix(-0.8186 0.5743 -0.5743 -0.8186 985.6774 748.6682)" fill="#05C105" stroke="#000000" stroke-width="0.75" stroke-miterlimit="10" width="48.666" height="129.995"/>
			<circle cx="343" cy="487.574" r="4.574"/>
		</g>
		<g>
			<g>
				
					<rect x="388.242" y="563.397" transform="matrix(-0.9995 0.031 -0.031 -0.9995 831.9105 1243.8994)" fill="#05C105" stroke="#000000" stroke-width="0.75" stroke-miterlimit="10" width="36.15" height="129.997"/>
				<circle cx="403.158" cy="575.575" r="4.574"/>
			</g>
			<g>
				
					<rect x="425.394" y="631.717" transform="matrix(-0.0161 0.9999 -0.9999 -0.0161 1129.1261 246.1177)" fill="#B27F00" stroke="#000000" stroke-width="0.75" stroke-miterlimit="10" width="36.151" height="93.776"/>
				<circle cx="408.63" cy="679.575" r="4.574"/>
			</g>
		</g>
	</g>
	<g>
		<g>
			
				<rect x="219.885" y="465.026" transform="matrix(0.8186 0.5743 -0.5743 0.8186 348.6949 -44.1295)" fill="#05C105" stroke="#000000" stroke-width="0.75" stroke-miterlimit="10" width="48.665" height="129.996"/>
			<circle cx="275.844" cy="487.574" r="4.574"/>
		</g>
		<g>
			<g>
				
					<rect x="194.432" y="563.42" transform="matrix(0.9995 0.031 -0.031 0.9995 19.5911 -6.2881)" fill="#05C105" stroke="#000000" stroke-width="0.75" stroke-miterlimit="10" width="36.15" height="129.997"/>
				<circle cx="215.686" cy="575.575" r="4.574"/>
			</g>
			<g>
				
					<rect x="157.347" y="631.688" transform="matrix(0.0161 0.9999 -0.9999 0.0161 851.0858 492.2507)" fill="#B27F00" stroke="#000000" stroke-width="0.75" stroke-miterlimit="10" width="36.15" height="93.776"/>
				<circle cx="210.214" cy="679.575" r="4.574"/>
			</g>
		</g>
	</g>
	<g>
		<polygon fill="#EC3EFF" stroke="#000000" stroke-width="0.75" stroke-miterlimit="10" points="304.426,291.831 354.426,265.34 
			384.546,221.667 387.546,182.333 384.546,151 399.759,134.333 423.092,151 421.092,178.333 420.426,200.333 439.759,209 
			457.759,191.667 462.426,154.333 448.426,116.333 407.759,93 352.426,96.333 304.426,114.333 256.425,96.333 201.092,93 
			160.425,116.333 146.425,154.333 151.092,191.667 169.092,209 188.425,200.333 187.759,178.333 185.759,151 209.092,134.333 
			224.305,151 221.305,182.333 224.305,221.667 254.425,265.34 		"/>
		<circle cx="304.426" cy="277.673" r="4.574"/>
	</g>
</g>
</svg>
