<?xml version="1.0" encoding="utf-8"?>
<!-- Generator: Adobe Illustrator 16.0.4, SVG Export Plug-In . SVG Version: 6.00 Build 0)  -->
<!DOCTYPE svg PUBLIC "-//W3C//DTD SVG 1.1//EN" "http://www.w3.org/Graphics/SVG/1.1/DTD/svg11.dtd">
<svg version="1.1" id="Layer_1" xmlns="http://www.w3.org/2000/svg" xmlns:xlink="http://www.w3.org/1999/xlink" x="0px" y="0px"
	 width="612px" height="792px" viewBox="0 0 612 792" enable-background="new 0 0 612 792" xml:space="preserve">
<g>
	<g>
		<rect x="268" y="480" fill="#725D31" stroke="#8E6E06" stroke-miterlimit="10" width="70" height="196"/>
		<circle cx="303" cy="661" r="5"/>
	</g>
	<g>
		<g>
			<polygon fill="#9B7737" stroke="#8E6E06" stroke-miterlimit="10" points="322,540 346,537 438,485 447,455 482,520 447,515 
				349,551 324,571 			"/>
			<circle cx="333" cy="550" r="5"/>
		</g>
		<g>
			<polygon fill="#9B7737" stroke="#8E6E06" stroke-miterlimit="10" points="455.667,479.667 507,462.333 531.667,415.667 
				560.334,417.667 535,427.667 517,472.333 462.334,497.667 			"/>
			<circle cx="465" cy="486.334" r="5"/>
		</g>
		<g>
			<polygon fill="#9B7737" stroke="#8E6E06" stroke-miterlimit="10" points="447.667,459 487.667,423.667 496.334,371 
				496.334,430.333 451,471.667 			"/>
			<circle cx="451.334" cy="463.667" r="5"/>
		</g>
		<g>
			<polygon fill="#9B7737" stroke="#8E6E06" stroke-miterlimit="10" points="469,505 513.667,503.667 549.667,483.667 577.667,505 
				548.334,495 514.334,519 478.667,519.333 			"/>
			<circle cx="477.334" cy="512" r="5"/>
		</g>
	</g>
	<g>
		<g>
			<polygon fill="#9B7737" stroke="#8E6E06" stroke-miterlimit="10" points="286.333,540 262.333,537 170.333,485 161.333,455 
				126.333,520 161.333,515 259.333,551 284.333,571 			"/>
			<circle cx="275.333" cy="550" r="5"/>
		</g>
		<g>
			<polygon fill="#9B7737" stroke="#8E6E06" stroke-miterlimit="10" points="152.666,479.667 101.333,462.333 76.667,415.667 
				47.999,417.667 73.333,427.667 91.333,472.333 145.999,497.667 			"/>
			<circle cx="143.333" cy="486.334" r="5"/>
		</g>
		<g>
			<polygon fill="#9B7737" stroke="#8E6E06" stroke-miterlimit="10" points="160.666,459 120.666,423.667 111.999,371 
				111.999,430.333 157.333,471.667 			"/>
			<circle cx="156.999" cy="463.667" r="5"/>
		</g>
		<g>
			<polygon fill="#9B7737" stroke="#8E6E06" stroke-miterlimit="10" points="139.333,505 94.667,503.667 58.667,483.667 30.667,505 
				59.999,495 93.999,519 129.666,519.333 			"/>
			<circle cx="130.999" cy="512" r="5"/>
		</g>
	</g>
	<g>
		<g>
			<polygon fill="#007A00" stroke="#005900" stroke-width="0.9623" stroke-miterlimit="10" points="222,496 390,496 303.667,207 			
				"/>
			<circle cx="303" cy="480" r="5"/>
		</g>
		<g>
			<g>
				<polygon fill="#009300" stroke="#005900" stroke-width="1.0319" stroke-miterlimit="10" points="206,466 406,466 303.222,177 
									"/>
				<circle cx="303" cy="450" r="5"/>
			</g>
			<g>
				<g>
					<polygon fill="#00AA00" stroke="#005900" stroke-width="1.0319" stroke-miterlimit="10" points="191,436 421,436 302.806,147 
											"/>
					<circle cx="303" cy="420" r="5"/>
				</g>
				<g>
					<g>
						<polygon fill="#00D300" stroke="#005900" stroke-width="1.1426" stroke-miterlimit="10" points="165,406 447,406 302.083,117 
													"/>
						<circle cx="303" cy="390" r="5"/>
					</g>
					<g>
						<g>
							<ellipse fill="#FFFFFF" stroke="#000000" stroke-miterlimit="10" cx="334.116" cy="290.825" rx="22.782" ry="42.391"/>
							<circle cx="335.334" cy="323" r="5"/>
						</g>
						<g>
							<g>
								
									<ellipse transform="matrix(0.9939 -0.1102 0.1102 0.9939 -29.0485 38.3351)" fill="#282828" cx="332.333" cy="282" rx="13.667" ry="26.334"/>
								<circle cx="334.28" cy="299.559" r="5"/>
							</g>
							<g>
								<polygon points="364.334,260.333 363.706,259.417 361.938,257 359.201,253.583 355.667,249.667 351.509,245.75 
									346.896,242.333 342.003,239.917 337.001,239 332.027,239.516 327.209,240.875 322.704,242.797 318.668,245 
									315.256,247.203 312.626,249.125 310.934,250.484 310.334,251 310.889,249.863 312.521,246.906 315.186,242.809 
									318.834,238.25 323.42,233.91 328.896,230.469 335.217,228.605 342.334,229 349.021,231.687 354.209,235.865 
									358.084,240.965 360.834,246.417 362.646,251.65 363.709,256.094 364.209,259.179 364.334,260.333 								"/>
								<circle cx="331.667" cy="280.333" r="5"/>
							</g>
						</g>
					</g>
					<g>
						<g>
							<ellipse fill="#FFFFFF" stroke="#000000" stroke-miterlimit="10" cx="270.783" cy="290.825" rx="22.783" ry="42.391"/>
							<circle cx="272" cy="323" r="5"/>
						</g>
						<g>
							<g>
								<ellipse fill="#282828" cx="276" cy="282" rx="13.667" ry="26.333"/>
								<circle cx="276" cy="299.667" r="5"/>
							</g>
							<g>
								<polygon points="239,260.333 239.627,259.417 241.396,257 244.133,253.583 247.667,249.667 251.826,245.75 256.438,242.333 
									261.331,239.917 266.333,239 271.308,239.516 276.125,240.875 280.63,242.797 284.667,245 288.078,247.203 290.708,249.125 
									292.401,250.484 293,251 292.445,249.863 290.812,246.906 288.148,242.809 284.5,238.25 279.914,233.91 274.438,230.469 
									268.117,228.605 261,229 254.312,231.687 249.125,235.865 245.25,240.965 242.5,246.417 240.688,251.65 239.625,256.094 
									239.125,259.179 239,260.333 								"/>
								<circle cx="276.334" cy="278" r="5"/>
							</g>
						</g>
					</g>
				</g>
			</g>
		</g>
	</g>
</g>
</svg>
